SplineFontDB: 3.2
FontName: FiraSans-SemiBoldItalic
FullName: Fira Sans SemiBold Italic
FamilyName: Fira Sans SemiBold
Weight: Demi
Copyright: Digitized data copyright 2012-2016, The Mozilla Foundation and Telefonica S.A.
Version: 4.203
ItalicAngle: -8
UnderlinePosition: -100
UnderlineWidth: 50
Ascent: 800
Descent: 200
InvalidEm: 0
sfntRevision: 0x000433f7
LayerCount: 2
Layer: 0 1 "Back" 1
Layer: 1 1 "Fore" 0
XUID: [1021 167 -350641738 4067991]
StyleMap: 0x0001
FSType: 0
OS2Version: 4
OS2_WeightWidthSlopeOnly: 0
OS2_UseTypoMetrics: 1
CreationTime: 1476948552
ModificationTime: 1480667555
PfmFamily: 17
TTFWeight: 600
TTFWidth: 5
LineGap: 0
VLineGap: 0
Panose: 2 11 7 3 5 0 0 2 0 4
OS2TypoAscent: 935
OS2TypoAOffset: 0
OS2TypoDescent: -265
OS2TypoDOffset: 0
OS2TypoLinegap: 0
OS2WinAscent: 935
OS2WinAOffset: 0
OS2WinDescent: 265
OS2WinDOffset: 0
HheadAscent: 935
HheadAOffset: 0
HheadDescent: -265
HheadDOffset: 0
OS2SubXSize: 650
OS2SubYSize: 600
OS2SubXOff: -11
OS2SubYOff: 75
OS2SupXSize: 650
OS2SupYSize: 600
OS2SupXOff: 49
OS2SupYOff: 350
OS2StrikeYSize: 50
OS2StrikeYPos: 318
OS2CapHeight: 692
OS2XHeight: 530
OS2Vendor: 'CTDB'
OS2CodePages: 2000019f.00000000
OS2UnicodeRanges: 600002ff.00000001.00000000.00000000
Lookup: 1 0 0 "'aalt' Access All Alternates lookup 0" { "'aalt' Access All Alternates lookup 0 subtable"  } ['aalt' ('DFLT' <'dflt' > 'cyrl' <'dflt' > 'grek' <'dflt' > 'latn' <'AFK ' 'CAT ' 'EWE ' 'MOL ' 'PLK ' 'ROM ' 'TRK ' 'dflt' > ) ]
Lookup: 3 0 0 "'aalt' Access All Alternates lookup 1" { "'aalt' Access All Alternates lookup 1 subtable"  } ['aalt' ('DFLT' <'dflt' > 'cyrl' <'dflt' > 'grek' <'dflt' > 'latn' <'AFK ' 'CAT ' 'EWE ' 'MOL ' 'PLK ' 'ROM ' 'TRK ' 'dflt' > ) ]
Lookup: 1 0 0 "'locl' Localized Forms in Latin lookup 2" { "'locl' Localized Forms in Latin lookup 2 subtable"  } ['locl' ('latn' <'TAT ' > ) ]
Lookup: 1 0 0 "'locl' Localized Forms in Latin lookup 3" { "'locl' Localized Forms in Latin lookup 3 subtable"  } ['locl' ('latn' <'TRK ' > ) ]

StartChar: .notdef
Encoding: 65536 -1 0
Width: 657
GlyphClass: 1
Flags: W
LayerCount: 2
Fore
SplineSet
646 1050 m 1,0,-1
 449 -350 l 1,1,-1
 35 -350 l 1,2,-1
 232 1050 l 1,3,-1
 646 1050 l 1,0,-1
586 998 m 1,4,-1
 280 998 l 1,5,-1
 97 -298 l 1,6,-1
 403 -298 l 1,7,-1
 586 998 l 1,4,-1
417.5 425.5 m 128,-1,9
 441 400 441 400 441 359 c 0,10,11
 441 350 441 350 439 332 c 0,12,13
 432 280 432 280 406.5 252.5 c 128,-1,14
 381 225 381 225 331 218 c 1,15,-1
 323 171 l 2,16,17
 322 160 322 160 314.5 154.5 c 128,-1,18
 307 149 307 149 298 149 c 0,19,20
 287 149 287 149 280 156.5 c 128,-1,21
 273 164 273 164 274 175 c 2,22,-1
 284 257 l 1,23,24
 337 260 337 260 359 278 c 128,-1,25
 381 296 381 296 387 338 c 0,26,27
 389 352 389 352 389 358 c 0,28,29
 389 380 389 380 378 391.5 c 128,-1,30
 367 403 367 403 339 403 c 0,31,32
 310 403 310 403 285 390 c 1,33,-1
 273 389 l 2,34,35
 261 389 261 389 254.5 397 c 128,-1,36
 248 405 248 405 250 416 c 0,37,38
 252 433 252 433 281 442 c 128,-1,39
 310 451 310 451 343 451 c 0,40,8
 394 451 394 451 417.5 425.5 c 128,-1,9
313.5 109 m 128,-1,42
 323 98 323 98 321 81 c 0,43,44
 319 67 319 67 308.5 57.5 c 128,-1,45
 298 48 298 48 284 48 c 0,46,47
 268 48 268 48 259 60 c 128,-1,48
 250 72 250 72 253 89 c 0,49,50
 254 102 254 102 264 111 c 128,-1,51
 274 120 274 120 288 120 c 0,52,41
 304 120 304 120 313.5 109 c 128,-1,42
EndSplineSet
EndChar

StartChar: A
Encoding: 65 65 3
Width: 577
GlyphClass: 2
Flags: W
AnchorPoint: "Anchor-18" 0 0 basechar 0
AnchorPoint: "Anchor-17" 0 0 basechar 0
AnchorPoint: "Anchor-16" 349 692 basechar 0
AnchorPoint: "Anchor-15" 492 0 basechar 0
AnchorPoint: "Anchor-14" 250 0 basechar 0
LayerCount: 2
Fore
SplineSet
396 0 m 1,0,-1
 379 155 l 1,1,-1
 164 155 l 1,2,-1
 104 0 l 1,3,-1
 -47 0 l 1,4,-1
 260 692 l 1,5,-1
 437 692 l 1,6,-1
 549 0 l 1,7,-1
 396 0 l 1,0,-1
206 264 m 1,8,-1
 367 264 l 1,9,-1
 332 590 l 1,10,-1
 206 264 l 1,8,-1
EndSplineSet
Substitution2: "Single Substitution lookup 44 subtable" ordfeminine
Substitution2: "'c2sc' Capitals to Small Capitals lookup 27 subtable" a.sc
AlternateSubs2: "'aalt' Access All Alternates lookup 1 subtable" ordfeminine a.sc
Position2: "'cpsp' Capital Spacing lookup 0 subtable" dx=5 dy=0 dh=10 dv=0
EndChar

StartChar: uni1EAE
Encoding: 7854 7854 6
Width: 577
GlyphClass: 2
Flags: W
AnchorPoint: "Anchor-18" 0 0 basechar 0
AnchorPoint: "Anchor-17" 0 0 basechar 0
AnchorPoint: "Anchor-16" 381 907 basechar 0
AnchorPoint: "Anchor-15" 492 0 basechar 0
AnchorPoint: "Anchor-14" 0 0 basechar 0
LayerCount: 2
Fore
SplineSet
543 1027 m 1,0,-1
 375 890 l 1,1,-1
 325 939 l 1,2,-1
 473 1104 l 1,3,-1
 543 1027 l 1,0,-1
277.5 758 m 128,-1,5
 244 779 244 779 228 814.5 c 128,-1,6
 212 850 212 850 214 892 c 1,7,-1
 293 904 l 1,8,9
 298 873 298 873 316 855.5 c 128,-1,10
 334 838 334 838 366 838 c 0,11,12
 400 838 400 838 424.5 857 c 128,-1,13
 449 876 449 876 463 907 c 1,14,-1
 543 888 l 1,15,16
 528 823 528 823 478.5 780 c 128,-1,17
 429 737 429 737 359 737 c 0,18,4
 311 737 311 737 277.5 758 c 128,-1,5
396 0 m 1,19,-1
 379 155 l 1,20,-1
 164 155 l 1,21,-1
 104 0 l 1,22,-1
 -47 0 l 1,23,-1
 260 692 l 1,24,-1
 437 692 l 1,25,-1
 549 0 l 1,26,-1
 396 0 l 1,19,-1
206 264 m 1,27,-1
 367 264 l 1,28,-1
 332 590 l 1,29,-1
 206 264 l 1,27,-1
EndSplineSet
Substitution2: "'c2sc' Capitals to Small Capitals lookup 27 subtable" uni1EAF.sc
Substitution2: "'aalt' Access All Alternates lookup 0 subtable" uni1EAF.sc
Position2: "'cpsp' Capital Spacing lookup 0 subtable" dx=5 dy=0 dh=10 dv=0
EndChar

StartChar: uni1EB0
Encoding: 7856 7856 8
Width: 577
GlyphClass: 2
Flags: W
AnchorPoint: "Anchor-18" 0 0 basechar 0
AnchorPoint: "Anchor-17" 0 0 basechar 0
AnchorPoint: "Anchor-16" 380 907 basechar 0
AnchorPoint: "Anchor-15" 492 0 basechar 0
AnchorPoint: "Anchor-14" 0 0 basechar 0
LayerCount: 2
Fore
SplineSet
426 935 m 1,0,-1
 369 890 l 1,1,-1
 237 1031 l 1,2,-1
 322 1101 l 1,3,-1
 426 935 l 1,0,-1
276.5 758 m 128,-1,5
 243 779 243 779 227 814.5 c 128,-1,6
 211 850 211 850 213 892 c 1,7,-1
 292 904 l 1,8,9
 297 873 297 873 315 855.5 c 128,-1,10
 333 838 333 838 365 838 c 0,11,12
 399 838 399 838 423.5 857 c 128,-1,13
 448 876 448 876 462 907 c 1,14,-1
 542 888 l 1,15,16
 527 823 527 823 477.5 780 c 128,-1,17
 428 737 428 737 358 737 c 0,18,4
 310 737 310 737 276.5 758 c 128,-1,5
396 0 m 1,19,-1
 379 155 l 1,20,-1
 164 155 l 1,21,-1
 104 0 l 1,22,-1
 -47 0 l 1,23,-1
 260 692 l 1,24,-1
 437 692 l 1,25,-1
 549 0 l 1,26,-1
 396 0 l 1,19,-1
206 264 m 1,27,-1
 367 264 l 1,28,-1
 332 590 l 1,29,-1
 206 264 l 1,27,-1
EndSplineSet
Substitution2: "'c2sc' Capitals to Small Capitals lookup 27 subtable" uni1EB1.sc
Substitution2: "'aalt' Access All Alternates lookup 0 subtable" uni1EB1.sc
Position2: "'cpsp' Capital Spacing lookup 0 subtable" dx=5 dy=0 dh=10 dv=0
EndChar

StartChar: uni1EB4
Encoding: 7860 7860 10
Width: 577
GlyphClass: 2
Flags: W
AnchorPoint: "Anchor-18" 0 0 basechar 0
AnchorPoint: "Anchor-17" 0 0 basechar 0
AnchorPoint: "Anchor-16" 394 1075 basechar 0
AnchorPoint: "Anchor-15" 492 0 basechar 0
AnchorPoint: "Anchor-14" 0 0 basechar 0
LayerCount: 2
Fore
SplineSet
305 965.5 m 128,-1,1
 292 955 292 955 276 933 c 1,2,-1
 208 970 l 1,3,4
 234 1017 234 1017 268.5 1046 c 128,-1,5
 303 1075 303 1075 342 1075 c 0,6,7
 363 1075 363 1075 378.5 1068 c 128,-1,8
 394 1061 394 1061 412 1048 c 0,9,10
 425 1039 425 1039 432.5 1035 c 128,-1,11
 440 1031 440 1031 449 1031 c 0,12,13
 465 1031 465 1031 478 1041 c 128,-1,14
 491 1051 491 1051 508 1074 c 1,15,-1
 576 1036 l 1,16,17
 550 989 550 989 515.5 961.5 c 128,-1,18
 481 934 481 934 444 934 c 0,19,20
 424 934 424 934 410.5 940 c 128,-1,21
 397 946 397 946 374 959 c 0,22,23
 362 968 362 968 353.5 972 c 128,-1,24
 345 976 345 976 336 976 c 0,25,0
 318 976 318 976 305 965.5 c 128,-1,1
426.5 857 m 128,-1,27
 451 876 451 876 465 907 c 1,28,-1
 545 888 l 1,29,30
 530 823 530 823 480.5 780 c 128,-1,31
 431 737 431 737 361 737 c 0,32,33
 313 737 313 737 279.5 758 c 128,-1,34
 246 779 246 779 230 814.5 c 128,-1,35
 214 850 214 850 216 892 c 1,36,-1
 295 904 l 1,37,38
 300 873 300 873 318 855.5 c 128,-1,39
 336 838 336 838 368 838 c 0,40,26
 402 838 402 838 426.5 857 c 128,-1,27
260 692 m 1,41,-1
 437 692 l 1,42,-1
 549 0 l 1,43,-1
 396 0 l 1,44,-1
 379 155 l 1,45,-1
 164 155 l 1,46,-1
 104 0 l 1,47,-1
 -47 0 l 1,48,-1
 260 692 l 1,41,-1
206 264 m 1,49,-1
 367 264 l 1,50,-1
 332 590 l 1,51,-1
 206 264 l 1,49,-1
EndSplineSet
Substitution2: "'c2sc' Capitals to Small Capitals lookup 27 subtable" uni1EB5.sc
Substitution2: "'aalt' Access All Alternates lookup 0 subtable" uni1EB5.sc
Position2: "'cpsp' Capital Spacing lookup 0 subtable" dx=5 dy=0 dh=10 dv=0
EndChar

StartChar: uni1EA4
Encoding: 7844 7844 13
Width: 577
GlyphClass: 2
Flags: W
AnchorPoint: "Anchor-18" 0 0 basechar 0
AnchorPoint: "Anchor-17" 461 783 basechar 0
AnchorPoint: "Anchor-16" 373 905 basechar 0
AnchorPoint: "Anchor-15" 492 0 basechar 0
AnchorPoint: "Anchor-14" 0 0 basechar 0
LayerCount: 2
Fore
SplineSet
681 999 m 1,0,-1
 513 862 l 1,1,-1
 463 911 l 1,2,-1
 611 1076 l 1,3,-1
 681 999 l 1,0,-1
363 804 m 1,4,-1
 223 720 l 1,5,-1
 175 780 l 1,6,-1
 331 905 l 1,7,-1
 417 905 l 1,8,-1
 538 780 l 1,9,-1
 481 720 l 1,10,-1
 363 804 l 1,4,-1
260 692 m 1,11,-1
 437 692 l 1,12,-1
 549 0 l 1,13,-1
 396 0 l 1,14,-1
 379 155 l 1,15,-1
 164 155 l 1,16,-1
 104 0 l 1,17,-1
 -47 0 l 1,18,-1
 260 692 l 1,11,-1
206 264 m 1,19,-1
 367 264 l 1,20,-1
 332 590 l 1,21,-1
 206 264 l 1,19,-1
EndSplineSet
Substitution2: "'c2sc' Capitals to Small Capitals lookup 27 subtable" uni1EA5.sc
Substitution2: "'aalt' Access All Alternates lookup 0 subtable" uni1EA5.sc
Position2: "'cpsp' Capital Spacing lookup 0 subtable" dx=5 dy=0 dh=10 dv=0
EndChar

StartChar: uni1EA6
Encoding: 7846 7846 15
Width: 577
GlyphClass: 2
Flags: W
AnchorPoint: "Anchor-18" 0 0 basechar 0
AnchorPoint: "Anchor-17" 459 783 basechar 0
AnchorPoint: "Anchor-16" 371 905 basechar 0
AnchorPoint: "Anchor-15" 492 0 basechar 0
AnchorPoint: "Anchor-14" 0 0 basechar 0
LayerCount: 2
Fore
SplineSet
275 907 m 1,0,-1
 218 862 l 1,1,-1
 86 1003 l 1,2,-1
 171 1073 l 1,3,-1
 275 907 l 1,0,-1
221 720 m 1,4,-1
 173 780 l 1,5,-1
 329 905 l 1,6,-1
 415 905 l 1,7,-1
 536 780 l 1,8,-1
 479 720 l 1,9,-1
 361 804 l 1,10,-1
 221 720 l 1,4,-1
396 0 m 1,11,-1
 379 155 l 1,12,-1
 164 155 l 1,13,-1
 104 0 l 1,14,-1
 -47 0 l 1,15,-1
 260 692 l 1,16,-1
 437 692 l 1,17,-1
 549 0 l 1,18,-1
 396 0 l 1,11,-1
206 264 m 1,19,-1
 367 264 l 1,20,-1
 332 590 l 1,21,-1
 206 264 l 1,19,-1
EndSplineSet
Substitution2: "'c2sc' Capitals to Small Capitals lookup 27 subtable" uni1EA7.sc
Substitution2: "'aalt' Access All Alternates lookup 0 subtable" uni1EA7.sc
Position2: "'cpsp' Capital Spacing lookup 0 subtable" dx=5 dy=0 dh=10 dv=0
EndChar

StartChar: uni1EAA
Encoding: 7850 7850 17
Width: 577
GlyphClass: 2
Flags: W
AnchorPoint: "Anchor-18" 0 0 basechar 0
AnchorPoint: "Anchor-17" 457 783 basechar 0
AnchorPoint: "Anchor-16" 389 1073 basechar 0
AnchorPoint: "Anchor-15" 492 0 basechar 0
AnchorPoint: "Anchor-14" 0 0 basechar 0
LayerCount: 2
Fore
SplineSet
300 963.5 m 128,-1,1
 287 953 287 953 271 931 c 1,2,-1
 203 968 l 1,3,4
 229 1015 229 1015 263.5 1044 c 128,-1,5
 298 1073 298 1073 337 1073 c 0,6,7
 358 1073 358 1073 373.5 1066 c 128,-1,8
 389 1059 389 1059 407 1046 c 0,9,10
 420 1037 420 1037 427.5 1033 c 128,-1,11
 435 1029 435 1029 444 1029 c 0,12,13
 460 1029 460 1029 473 1039 c 128,-1,14
 486 1049 486 1049 503 1072 c 1,15,-1
 571 1034 l 1,16,17
 545 987 545 987 510.5 959.5 c 128,-1,18
 476 932 476 932 439 932 c 0,19,20
 419 932 419 932 405.5 938 c 128,-1,21
 392 944 392 944 369 957 c 0,22,23
 357 966 357 966 348.5 970 c 128,-1,24
 340 974 340 974 331 974 c 0,25,0
 313 974 313 974 300 963.5 c 128,-1,1
359 804 m 1,26,-1
 219 720 l 1,27,-1
 171 780 l 1,28,-1
 327 905 l 1,29,-1
 413 905 l 1,30,-1
 534 780 l 1,31,-1
 477 720 l 1,32,-1
 359 804 l 1,26,-1
260 692 m 1,33,-1
 437 692 l 1,34,-1
 549 0 l 1,35,-1
 396 0 l 1,36,-1
 379 155 l 1,37,-1
 164 155 l 1,38,-1
 104 0 l 1,39,-1
 -47 0 l 1,40,-1
 260 692 l 1,33,-1
206 264 m 1,41,-1
 367 264 l 1,42,-1
 332 590 l 1,43,-1
 206 264 l 1,41,-1
EndSplineSet
Substitution2: "'c2sc' Capitals to Small Capitals lookup 27 subtable" uni1EAB.sc
Substitution2: "'aalt' Access All Alternates lookup 0 subtable" uni1EAB.sc
Position2: "'cpsp' Capital Spacing lookup 0 subtable" dx=5 dy=0 dh=10 dv=0
EndChar

StartChar: uni2C6D
Encoding: 11373 11373 27
Width: 675
GlyphClass: 2
Flags: W
AnchorPoint: "Anchor-18" 0 0 basechar 0
AnchorPoint: "Anchor-17" 0 0 basechar 0
AnchorPoint: "Anchor-16" 400 692 basechar 0
AnchorPoint: "Anchor-15" 0 0 basechar 0
AnchorPoint: "Anchor-14" 303 0 basechar 0
LayerCount: 2
Fore
SplineSet
581 121 m 0,1,2
 581 106 581 106 587.5 96.5 c 128,-1,3
 594 87 594 87 610 80 c 1,4,-1
 570 -14 l 1,5,6
 474 -6 474 -6 447 67 c 1,7,8
 411 27 411 27 368.5 5.5 c 128,-1,9
 326 -16 326 -16 272 -16 c 0,10,11
 166 -16 166 -16 104.5 57 c 128,-1,12
 43 130 43 130 43 260 c 0,13,14
 43 376 43 376 84.5 479 c 128,-1,15
 126 582 126 582 200 645 c 128,-1,16
 274 708 274 708 367 708 c 0,17,18
 417 708 417 708 452.5 688.5 c 128,-1,19
 488 669 488 669 516 634 c 1,20,-1
 535 692 l 1,21,-1
 659 692 l 1,22,-1
 583 145 l 2,23,0
 581 127 581 127 581 121 c 0,1,2
439 153 m 1,25,-1
 493 540 l 1,26,27
 472 569 472 569 446.5 583.5 c 128,-1,28
 421 598 421 598 384 598 c 0,29,30
 324 598 324 598 280.5 548.5 c 128,-1,31
 237 499 237 499 215 420 c 128,-1,32
 193 341 193 341 193 256 c 0,33,34
 193 92 193 92 309 92 c 0,35,24
 381 92 381 92 439 153 c 1,25,-1
EndSplineSet
Substitution2: "'c2sc' Capitals to Small Capitals lookup 27 subtable" uni2C6D.sc
Substitution2: "'aalt' Access All Alternates lookup 0 subtable" uni2C6D.sc
Position2: "'cpsp' Capital Spacing lookup 0 subtable" dx=5 dy=0 dh=10 dv=0
EndChar

StartChar: Aogonek
Encoding: 260 260 29
Width: 577
GlyphClass: 2
Flags: W
AnchorPoint: "Anchor-18" 0 0 basechar 0
AnchorPoint: "Anchor-17" 0 0 basechar 0
AnchorPoint: "Anchor-16" 349 692 basechar 0
AnchorPoint: "Anchor-15" 492 0 basechar 0
AnchorPoint: "Anchor-14" 250 0 basechar 0
LayerCount: 2
Fore
SplineSet
349 -116 m 0,1,2
 349 -151 349 -151 394 -151 c 0,3,4
 419 -151 419 -151 456 -143 c 1,5,-1
 436 -235 l 1,6,7
 399 -242 399 -242 369 -242 c 0,8,9
 312 -242 312 -242 277 -214 c 128,-1,10
 242 -186 242 -186 242 -140 c 0,11,12
 242 -35 242 -35 393 24 c 1,13,-1
 379 155 l 1,14,-1
 164 155 l 1,15,-1
 104 0 l 1,16,-1
 -47 0 l 1,17,-1
 260 692 l 1,18,-1
 437 692 l 1,19,-1
 549 0 l 1,20,-1
 484 0 l 1,21,0
 349 -50 349 -50 349 -116 c 0,1,2
206 264 m 1,22,-1
 367 264 l 1,23,-1
 332 590 l 1,24,-1
 206 264 l 1,22,-1
EndSplineSet
Substitution2: "'c2sc' Capitals to Small Capitals lookup 27 subtable" aogonek.sc
Substitution2: "'aalt' Access All Alternates lookup 0 subtable" aogonek.sc
Position2: "'cpsp' Capital Spacing lookup 0 subtable" dx=5 dy=0 dh=10 dv=0
EndChar

StartChar: uni023A
Encoding: 570 570 32
Width: 577
GlyphClass: 2
Flags: W
AnchorPoint: "Anchor-18" 0 0 basechar 0
AnchorPoint: "Anchor-17" 0 0 basechar 0
AnchorPoint: "Anchor-16" 348 692 basechar 0
AnchorPoint: "Anchor-15" 0 0 basechar 0
AnchorPoint: "Anchor-14" 251 0 basechar 0
LayerCount: 2
Fore
SplineSet
410 0 m 1,0,-1
 390 155 l 1,1,-1
 270 155 l 1,2,-1
 177 -73 l 1,3,-1
 123 -60 l 1,4,-1
 210 155 l 1,5,-1
 155 155 l 1,6,-1
 93 0 l 1,7,-1
 -47 0 l 1,8,-1
 260 692 l 1,9,-1
 429 692 l 1,10,-1
 454 754 l 1,11,-1
 508 741 l 1,12,-1
 452 602 l 1,13,-1
 549 0 l 1,14,-1
 410 0 l 1,0,-1
196 257 m 1,15,-1
 252 257 l 1,16,-1
 347 491 l 1,17,-1
 333 601 l 1,18,-1
 196 257 l 1,15,-1
311 257 m 1,19,-1
 377 257 l 1,20,-1
 361 380 l 1,21,-1
 311 257 l 1,19,-1
EndSplineSet
Substitution2: "'c2sc' Capitals to Small Capitals lookup 27 subtable" uni2C65.sc
Substitution2: "'aalt' Access All Alternates lookup 0 subtable" uni2C65.sc
Position2: "'cpsp' Capital Spacing lookup 0 subtable" dx=5 dy=0 dh=10 dv=0
EndChar

StartChar: AE
Encoding: 198 198 34
Width: 826
GlyphClass: 2
Flags: W
AnchorPoint: "Anchor-18" 0 0 basechar 0
AnchorPoint: "Anchor-17" 0 0 basechar 0
AnchorPoint: "Anchor-16" 535 692 basechar 0
AnchorPoint: "Anchor-15" 0 0 basechar 0
AnchorPoint: "Anchor-14" 376 0 basechar 0
LayerCount: 2
Fore
SplineSet
782 584 m 1,0,-1
 505 584 l 1,1,-1
 519 403 l 1,2,-1
 762 403 l 1,3,-1
 749 297 l 1,4,-1
 527 297 l 1,5,-1
 542 108 l 1,6,-1
 768 108 l 1,7,-1
 753 0 l 1,8,-1
 411 0 l 1,9,-1
 403 155 l 1,10,-1
 174 155 l 1,11,-1
 100 0 l 1,12,-1
 -56 0 l 1,13,-1
 303 692 l 1,14,-1
 813 692 l 1,15,-1
 782 584 l 1,0,-1
227 264 m 1,16,-1
 397 264 l 1,17,-1
 380 583 l 1,18,-1
 227 264 l 1,16,-1
EndSplineSet
Substitution2: "'c2sc' Capitals to Small Capitals lookup 27 subtable" ae.sc
Substitution2: "'aalt' Access All Alternates lookup 0 subtable" ae.sc
Position2: "'cpsp' Capital Spacing lookup 0 subtable" dx=5 dy=0 dh=10 dv=0
EndChar

StartChar: B
Encoding: 66 66 37
Width: 606
GlyphClass: 2
Flags: W
AnchorPoint: "Anchor-18" 0 0 basechar 0
AnchorPoint: "Anchor-17" 0 0 basechar 0
AnchorPoint: "Anchor-16" 338 692 basechar 0
AnchorPoint: "Anchor-15" 0 0 basechar 0
AnchorPoint: "Anchor-14" 267 0 basechar 0
LayerCount: 2
Fore
SplineSet
531.5 321 m 128,-1,1
 569 288 569 288 569 220 c 0,2,3
 569 120 569 120 494 60 c 128,-1,4
 419 0 419 0 249 0 c 2,5,-1
 35 0 l 1,6,-1
 132 692 l 1,7,-1
 332 692 l 2,8,9
 451 692 451 692 517.5 654.5 c 128,-1,10
 584 617 584 617 584 535 c 0,11,12
 584 466 584 466 540.5 423.5 c 128,-1,13
 497 381 497 381 431 366 c 1,14,0
 494 354 494 354 531.5 321 c 128,-1,1
262 586 m 1,15,-1
 238 411 l 1,16,-1
 307 411 l 2,17,18
 369 411 369 411 401.5 440.5 c 128,-1,19
 434 470 434 470 434 521 c 0,20,21
 434 557 434 557 408.5 571.5 c 128,-1,22
 383 586 383 586 334 586 c 2,23,-1
 262 586 l 1,15,-1
384.5 140.5 m 128,-1,25
 419 172 419 172 419 230 c 0,26,27
 419 311 419 311 307 311 c 2,28,-1
 224 311 l 1,29,-1
 196 109 l 1,30,-1
 261 109 l 2,31,24
 350 109 350 109 384.5 140.5 c 128,-1,25
EndSplineSet
Substitution2: "'c2sc' Capitals to Small Capitals lookup 27 subtable" b.sc
Substitution2: "'aalt' Access All Alternates lookup 0 subtable" b.sc
Position2: "'cpsp' Capital Spacing lookup 0 subtable" dx=5 dy=0 dh=10 dv=0
EndChar

StartChar: uniA7B4
Encoding: 42932 42932 40
Width: 605
GlyphClass: 2
Flags: W
AnchorPoint: "Anchor-18" 0 0 basechar 0
AnchorPoint: "Anchor-17" 0 0 basechar 0
AnchorPoint: "Anchor-16" 362 692 basechar 0
AnchorPoint: "Anchor-15" 0 0 basechar 0
AnchorPoint: "Anchor-14" 0 0 basechar 0
LayerCount: 2
Fore
SplineSet
569 228 m 0,1,2
 569 156 569 156 532.5 104.5 c 128,-1,3
 496 53 496 53 433 26.5 c 128,-1,4
 370 0 370 0 291 0 c 0,5,6
 233 0 233 0 182 14 c 1,7,-1
 151 -208 l 1,8,-1
 6 -208 l 1,9,-1
 132 692 l 1,10,-1
 332 692 l 2,11,12
 584 692 584 692 584 534 c 0,13,14
 584 465 584 465 541 423 c 128,-1,15
 498 381 498 381 433 365 c 1,16,0
 569 339 569 339 569 228 c 0,1,2
382.5 140.5 m 128,-1,18
 420 172 420 172 420 232 c 0,19,20
 420 311 420 311 316 311 c 2,21,-1
 278 311 l 1,22,-1
 302 411 l 1,23,-1
 317 411 l 2,24,25
 369 411 369 411 401 438 c 128,-1,26
 433 465 433 465 433 517 c 0,27,28
 433 555 433 555 407.5 570.5 c 128,-1,29
 382 586 382 586 334 586 c 2,30,-1
 262 586 l 1,31,-1
 197 117 l 1,32,33
 240 109 240 109 281 109 c 0,34,17
 345 109 345 109 382.5 140.5 c 128,-1,18
EndSplineSet
Substitution2: "'c2sc' Capitals to Small Capitals lookup 27 subtable" uniA7B4.sc
Substitution2: "'aalt' Access All Alternates lookup 0 subtable" uniA7B4.sc
Position2: "'cpsp' Capital Spacing lookup 0 subtable" dx=5 dy=0 dh=10 dv=0
EndChar

StartChar: uni0181
Encoding: 385 385 41
Width: 732
GlyphClass: 2
Flags: W
AnchorPoint: "Anchor-18" 0 0 basechar 0
AnchorPoint: "Anchor-17" 0 0 basechar 0
AnchorPoint: "Anchor-16" 464 692 basechar 0
AnchorPoint: "Anchor-15" 0 0 basechar 0
AnchorPoint: "Anchor-14" 393 0 basechar 0
LayerCount: 2
Fore
SplineSet
657.5 321 m 128,-1,1
 695 288 695 288 695 220 c 0,2,3
 695 120 695 120 620 60 c 128,-1,4
 545 0 545 0 375 0 c 2,5,-1
 161 0 l 1,6,-1
 243 585 l 1,7,-1
 217 585 l 2,8,9
 161 585 161 585 161 524 c 0,10,11
 161 504 161 504 169 474 c 1,12,-1
 70 434 l 1,13,14
 58 459 58 459 51 481.5 c 128,-1,15
 44 504 44 504 44 530 c 0,16,17
 44 604 44 604 94 648 c 128,-1,18
 144 692 144 692 230 692 c 2,19,-1
 458 692 l 2,20,21
 577 692 577 692 643.5 654.5 c 128,-1,22
 710 617 710 617 710 535 c 0,23,24
 710 466 710 466 666.5 423.5 c 128,-1,25
 623 381 623 381 557 366 c 1,26,0
 620 354 620 354 657.5 321 c 128,-1,1
388 586 m 1,27,-1
 364 411 l 1,28,-1
 433 411 l 2,29,30
 495 411 495 411 527.5 440.5 c 128,-1,31
 560 470 560 470 560 521 c 0,32,33
 560 557 560 557 534.5 571.5 c 128,-1,34
 509 586 509 586 460 586 c 2,35,-1
 388 586 l 1,27,-1
510.5 140.5 m 128,-1,37
 545 172 545 172 545 230 c 0,38,39
 545 311 545 311 433 311 c 2,40,-1
 350 311 l 1,41,-1
 322 109 l 1,42,-1
 387 109 l 2,43,36
 476 109 476 109 510.5 140.5 c 128,-1,37
EndSplineSet
Substitution2: "'ss02' Style Set 2 lookup 35 subtable" uni0181.ss02
Substitution2: "'c2sc' Capitals to Small Capitals lookup 27 subtable" uni0253.sc
AlternateSubs2: "'aalt' Access All Alternates lookup 1 subtable" uni0253.sc uni0181.ss02
Position2: "'cpsp' Capital Spacing lookup 0 subtable" dx=5 dy=0 dh=10 dv=0
EndChar

StartChar: uni0243
Encoding: 579 579 42
Width: 617
GlyphClass: 2
Flags: W
AnchorPoint: "Anchor-18" 0 0 basechar 0
AnchorPoint: "Anchor-17" 0 0 basechar 0
AnchorPoint: "Anchor-16" 349 692 basechar 0
AnchorPoint: "Anchor-15" 0 0 basechar 0
AnchorPoint: "Anchor-14" 278 0 basechar 0
LayerCount: 2
Fore
SplineSet
542.5 321 m 128,-1,1
 580 288 580 288 580 220 c 0,2,3
 580 120 580 120 505 60 c 128,-1,4
 430 0 430 0 260 0 c 2,5,-1
 46 0 l 1,6,-1
 70 174 l 1,7,-1
 0 174 l 1,8,-1
 12 251 l 1,9,-1
 81 251 l 1,10,-1
 143 692 l 1,11,-1
 343 692 l 2,12,13
 462 692 462 692 528.5 654.5 c 128,-1,14
 595 617 595 617 595 535 c 0,15,16
 595 466 595 466 551.5 423.5 c 128,-1,17
 508 381 508 381 442 366 c 1,18,0
 505 354 505 354 542.5 321 c 128,-1,1
273 586 m 1,19,-1
 249 411 l 1,20,-1
 318 411 l 2,21,22
 380 411 380 411 412.5 440.5 c 128,-1,23
 445 470 445 470 445 521 c 0,24,25
 445 557 445 557 419.5 571.5 c 128,-1,26
 394 586 394 586 345 586 c 2,27,-1
 273 586 l 1,19,-1
395.5 140.5 m 128,-1,29
 430 172 430 172 430 230 c 0,30,31
 430 311 430 311 318 311 c 2,32,-1
 235 311 l 1,33,-1
 227 251 l 1,34,-1
 351 251 l 1,35,-1
 340 174 l 1,36,-1
 216 174 l 1,37,-1
 207 109 l 1,38,-1
 272 109 l 2,39,28
 361 109 361 109 395.5 140.5 c 128,-1,29
EndSplineSet
Substitution2: "'c2sc' Capitals to Small Capitals lookup 27 subtable" uni0180.sc
Substitution2: "'aalt' Access All Alternates lookup 0 subtable" uni0180.sc
Position2: "'cpsp' Capital Spacing lookup 0 subtable" dx=5 dy=0 dh=10 dv=0
EndChar

StartChar: C
Encoding: 67 67 44
Width: 563
GlyphClass: 2
Flags: W
AnchorPoint: "Anchor-18" 0 0 basechar 0
AnchorPoint: "Anchor-17" 0 0 basechar 0
AnchorPoint: "Anchor-16" 407 692 basechar 0
AnchorPoint: "Anchor-15" 0 0 basechar 0
AnchorPoint: "Anchor-14" 301 0 basechar 0
LayerCount: 2
Fore
SplineSet
595 628 m 1,1,-1
 516 551 l 1,2,3
 488 574 488 574 460 585.5 c 128,-1,4
 432 597 432 597 398 597 c 0,5,6
 326 597 326 597 280.5 545 c 128,-1,7
 235 493 235 493 215 417 c 128,-1,8
 195 341 195 341 195 267 c 0,9,10
 195 182 195 182 229 141 c 128,-1,11
 263 100 263 100 324 100 c 0,12,13
 363 100 363 100 396 115 c 128,-1,14
 429 130 429 130 468 158 c 1,15,-1
 526 69 l 1,16,17
 427 -16 427 -16 304 -16 c 0,18,19
 226 -16 226 -16 167.5 17 c 128,-1,20
 109 50 109 50 76.5 114 c 128,-1,21
 44 178 44 178 44 269 c 0,22,23
 44 373 44 373 80.5 473.5 c 128,-1,24
 117 574 117 574 195.5 641 c 128,-1,25
 274 708 274 708 394 708 c 0,26,0
 520 708 520 708 595 628 c 1,1,-1
EndSplineSet
Substitution2: "'c2sc' Capitals to Small Capitals lookup 27 subtable" c.sc
Substitution2: "'aalt' Access All Alternates lookup 0 subtable" c.sc
Position2: "'cpsp' Capital Spacing lookup 0 subtable" dx=5 dy=0 dh=10 dv=0
EndChar

StartChar: Ccedilla
Encoding: 199 199 47
Width: 563
GlyphClass: 2
Flags: W
AnchorPoint: "Anchor-18" 0 0 basechar 0
AnchorPoint: "Anchor-17" 0 0 basechar 0
AnchorPoint: "Anchor-16" 407 692 basechar 0
AnchorPoint: "Anchor-15" 0 0 basechar 0
AnchorPoint: "Anchor-14" 296 -257 basechar 0
LayerCount: 2
Fore
SplineSet
342 -14 m 1,1,-1
 336 -50 l 1,2,3
 379 -54 379 -54 402 -77.5 c 128,-1,4
 425 -101 425 -101 425 -138 c 0,5,6
 425 -168 425 -168 408.5 -195 c 128,-1,7
 392 -222 392 -222 357.5 -239.5 c 128,-1,8
 323 -257 323 -257 272 -257 c 0,9,10
 209 -257 209 -257 167 -226 c 1,11,-1
 209 -161 l 1,12,13
 236 -177 236 -177 270 -177 c 0,14,15
 293 -177 293 -177 307 -168 c 128,-1,16
 321 -159 321 -159 321 -142 c 0,17,18
 322 -123 322 -123 303 -116 c 128,-1,19
 284 -109 284 -109 236 -109 c 1,20,-1
 260 -13 l 1,21,22
 160 0 160 0 102 73 c 128,-1,23
 44 146 44 146 44 269 c 0,24,25
 44 373 44 373 80.5 473.5 c 128,-1,26
 117 574 117 574 195.5 641 c 128,-1,27
 274 708 274 708 394 708 c 0,28,29
 520 708 520 708 595 628 c 1,30,-1
 516 551 l 1,31,32
 488 574 488 574 460 585.5 c 128,-1,33
 432 597 432 597 398 597 c 0,34,35
 326 597 326 597 280.5 545 c 128,-1,36
 235 493 235 493 215 417 c 128,-1,37
 195 341 195 341 195 267 c 0,38,39
 195 182 195 182 229 141 c 128,-1,40
 263 100 263 100 324 100 c 0,41,42
 363 100 363 100 396 115 c 128,-1,43
 429 130 429 130 468 158 c 1,44,-1
 526 69 l 1,45,0
 443 -2 443 -2 342 -14 c 1,1,-1
EndSplineSet
Substitution2: "'c2sc' Capitals to Small Capitals lookup 27 subtable" ccedilla.sc
Substitution2: "'aalt' Access All Alternates lookup 0 subtable" ccedilla.sc
Position2: "'cpsp' Capital Spacing lookup 0 subtable" dx=5 dy=0 dh=10 dv=0
EndChar

StartChar: uniA7B3
Encoding: 42931 42931 50
Width: 553
GlyphClass: 2
Flags: W
AnchorPoint: "Anchor-18" 0 0 basechar 0
AnchorPoint: "Anchor-17" 0 0 basechar 0
AnchorPoint: "Anchor-16" 336 692 basechar 0
AnchorPoint: "Anchor-15" 0 0 basechar 0
AnchorPoint: "Anchor-14" 0 0 basechar 0
LayerCount: 2
Fore
SplineSet
598 692 m 1,0,-1
 362 294 l 1,1,-1
 496 -154 l 1,2,-1
 342 -154 l 1,3,-1
 264 194 l 1,4,-1
 99 -154 l 1,5,-1
 -61 -154 l 1,6,-1
 191 294 l 1,7,-1
 73 692 l 1,8,-1
 228 692 l 1,9,-1
 290 387 l 1,10,-1
 439 692 l 1,11,-1
 598 692 l 1,0,-1
EndSplineSet
Substitution2: "'c2sc' Capitals to Small Capitals lookup 27 subtable" uniA7B3.sc
Substitution2: "'aalt' Access All Alternates lookup 0 subtable" uniA7B3.sc
Position2: "'cpsp' Capital Spacing lookup 0 subtable" dx=5 dy=0 dh=10 dv=0
EndChar

StartChar: uni0187
Encoding: 391 391 51
Width: 571
GlyphClass: 2
Flags: W
AnchorPoint: "Anchor-18" 0 0 basechar 0
AnchorPoint: "Anchor-17" 0 0 basechar 0
AnchorPoint: "Anchor-16" 351 741 basechar 0
AnchorPoint: "Anchor-15" 0 0 basechar 0
AnchorPoint: "Anchor-14" 248 0 basechar 0
LayerCount: 2
Fore
SplineSet
783 808 m 1,1,-1
 730 721 l 1,2,3
 713 731 713 731 699 735.5 c 128,-1,4
 685 740 685 740 666 740 c 0,5,6
 610 740 610 740 601 674 c 2,7,-1
 595 628 l 1,8,-1
 528 559 l 1,9,10
 466 597 466 597 400 597 c 0,11,12
 327 597 327 597 281 545 c 128,-1,13
 235 493 235 493 215 417 c 128,-1,14
 195 341 195 341 195 267 c 0,15,16
 195 182 195 182 229 141 c 128,-1,17
 263 100 263 100 323 100 c 0,18,19
 363 100 363 100 394.5 115 c 128,-1,20
 426 130 426 130 468 159 c 1,21,-1
 526 69 l 1,22,23
 483 32 483 32 427 8 c 128,-1,24
 371 -16 371 -16 306 -16 c 0,25,26
 184 -16 184 -16 113.5 58 c 128,-1,27
 43 132 43 132 43 269 c 0,28,29
 43 370 43 370 81 471.5 c 128,-1,30
 119 573 119 573 196 640.5 c 128,-1,31
 273 708 273 708 382 708 c 0,32,33
 435 708 435 708 476 689 c 1,34,35
 488 765 488 765 534.5 806 c 128,-1,36
 581 847 581 847 658 847 c 0,37,0
 728 847 728 847 783 808 c 1,1,-1
EndSplineSet
Substitution2: "'c2sc' Capitals to Small Capitals lookup 27 subtable" uni0188.sc
Substitution2: "'aalt' Access All Alternates lookup 0 subtable" uni0188.sc
Position2: "'cpsp' Capital Spacing lookup 0 subtable" dx=5 dy=0 dh=10 dv=0
EndChar

StartChar: uni023B
Encoding: 571 571 52
Width: 563
GlyphClass: 2
Flags: W
AnchorPoint: "Anchor-18" 0 0 basechar 0
AnchorPoint: "Anchor-17" 0 0 basechar 0
AnchorPoint: "Anchor-16" 341 692 basechar 0
AnchorPoint: "Anchor-15" 0 0 basechar 0
AnchorPoint: "Anchor-14" 244 0 basechar 0
LayerCount: 2
Fore
SplineSet
396 115 m 128,-1,1
 429 130 429 130 468 158 c 1,2,-1
 526 69 l 1,3,4
 427 -16 427 -16 304 -16 c 0,5,6
 264 -16 264 -16 229 -7 c 1,7,-1
 202 -73 l 1,8,-1
 148 -60 l 1,9,-1
 177 12 l 1,10,11
 114 43 114 43 79 109 c 128,-1,12
 44 175 44 175 44 269 c 0,13,14
 44 373 44 373 80.5 473.5 c 128,-1,15
 117 574 117 574 195.5 641 c 128,-1,16
 274 708 274 708 394 708 c 0,17,18
 428 708 428 708 458 702 c 1,19,-1
 479 754 l 1,20,-1
 533 741 l 1,21,-1
 511 687 l 1,22,23
 557 667 557 667 595 628 c 1,24,-1
 516 551 l 1,25,26
 491 571 491 571 468 582 c 1,27,-1
 275 108 l 1,28,29
 299 100 299 100 324 100 c 0,30,0
 363 100 363 100 396 115 c 128,-1,1
229 140 m 1,32,-1
 415 596 l 1,33,34
 409 597 409 597 398 597 c 0,35,36
 326 597 326 597 280.5 545 c 128,-1,37
 235 493 235 493 215 417 c 128,-1,38
 195 341 195 341 195 267 c 0,39,31
 195 182 195 182 229 140 c 1,32,-1
EndSplineSet
Substitution2: "'c2sc' Capitals to Small Capitals lookup 27 subtable" uni023C.sc
Substitution2: "'aalt' Access All Alternates lookup 0 subtable" uni023C.sc
Position2: "'cpsp' Capital Spacing lookup 0 subtable" dx=5 dy=0 dh=10 dv=0
EndChar

StartChar: D
Encoding: 68 68 53
Width: 641
GlyphClass: 2
Flags: W
AnchorPoint: "Anchor-18" 332 346 basechar 0
AnchorPoint: "Anchor-17" 0 0 basechar 0
AnchorPoint: "Anchor-16" 353 692 basechar 0
AnchorPoint: "Anchor-15" 0 0 basechar 0
AnchorPoint: "Anchor-14" 251 0 basechar 0
LayerCount: 2
Fore
SplineSet
536 634.5 m 128,-1,1
 621 577 621 577 621 430 c 0,2,3
 621 310 621 310 582.5 213.5 c 128,-1,4
 544 117 544 117 457.5 58.5 c 128,-1,5
 371 0 371 0 232 0 c 2,6,-1
 35 0 l 1,7,-1
 132 692 l 1,8,-1
 310 692 l 2,9,0
 451 692 451 692 536 634.5 c 128,-1,1
262 584 m 1,10,-1
 196 108 l 1,11,-1
 254 108 l 2,12,13
 371 108 371 108 421 204 c 128,-1,14
 471 300 471 300 471 430 c 0,15,16
 471 519 471 519 431.5 551.5 c 128,-1,17
 392 584 392 584 320 584 c 2,18,-1
 262 584 l 1,10,-1
EndSplineSet
Substitution2: "'c2sc' Capitals to Small Capitals lookup 27 subtable" d.sc
Substitution2: "'aalt' Access All Alternates lookup 0 subtable" d.sc
Position2: "'cpsp' Capital Spacing lookup 0 subtable" dx=5 dy=0 dh=10 dv=0
EndChar

StartChar: Eth
Encoding: 208 208 57
Width: 651
GlyphClass: 2
Flags: W
AnchorPoint: "Anchor-18" 342 346 basechar 0
AnchorPoint: "Anchor-17" 0 0 basechar 0
AnchorPoint: "Anchor-16" 363 692 basechar 0
AnchorPoint: "Anchor-15" 0 0 basechar 0
AnchorPoint: "Anchor-14" 261 0 basechar 0
LayerCount: 2
Fore
SplineSet
546 634.5 m 128,-1,1
 631 577 631 577 631 430 c 0,2,3
 631 310 631 310 592.5 213.5 c 128,-1,4
 554 117 554 117 467.5 58.5 c 128,-1,5
 381 0 381 0 242 0 c 2,6,-1
 45 0 l 1,7,-1
 88 307 l 1,8,-1
 19 307 l 1,9,-1
 31 399 l 1,10,-1
 101 399 l 1,11,-1
 142 692 l 1,12,-1
 320 692 l 2,13,0
 461 692 461 692 546 634.5 c 128,-1,1
431 204 m 128,-1,15
 481 300 481 300 481 430 c 0,16,17
 481 519 481 519 441.5 551.5 c 128,-1,18
 402 584 402 584 330 584 c 2,19,-1
 272 584 l 1,20,-1
 246 399 l 1,21,-1
 385 399 l 1,22,-1
 372 307 l 1,23,-1
 234 307 l 1,24,-1
 206 108 l 1,25,-1
 264 108 l 2,26,14
 381 108 381 108 431 204 c 128,-1,15
EndSplineSet
Substitution2: "'c2sc' Capitals to Small Capitals lookup 27 subtable" eth.sc
Substitution2: "'aalt' Access All Alternates lookup 0 subtable" eth.sc
Position2: "'cpsp' Capital Spacing lookup 0 subtable" dx=5 dy=0 dh=10 dv=0
EndChar

StartChar: uni018A
Encoding: 394 394 63
Width: 768
GlyphClass: 2
Flags: W
AnchorPoint: "Anchor-18" 458 346 basechar 0
AnchorPoint: "Anchor-17" 0 0 basechar 0
AnchorPoint: "Anchor-16" 479 692 basechar 0
AnchorPoint: "Anchor-15" 0 0 basechar 0
AnchorPoint: "Anchor-14" 377 0 basechar 0
LayerCount: 2
Fore
SplineSet
662 634.5 m 128,-1,1
 747 577 747 577 747 430 c 0,2,3
 747 310 747 310 708.5 213.5 c 128,-1,4
 670 117 670 117 583.5 58.5 c 128,-1,5
 497 0 497 0 358 0 c 2,6,-1
 161 0 l 1,7,-1
 243 585 l 1,8,-1
 217 585 l 2,9,10
 161 585 161 585 161 524 c 0,11,12
 161 504 161 504 169 474 c 1,13,-1
 70 434 l 1,14,15
 58 459 58 459 51 481.5 c 128,-1,16
 44 504 44 504 44 530 c 0,17,18
 44 604 44 604 94 648 c 128,-1,19
 144 692 144 692 230 692 c 2,20,-1
 436 692 l 2,21,0
 577 692 577 692 662 634.5 c 128,-1,1
547 204 m 128,-1,23
 597 300 597 300 597 430 c 0,24,25
 597 519 597 519 557.5 551.5 c 128,-1,26
 518 584 518 584 446 584 c 2,27,-1
 388 584 l 1,28,-1
 322 108 l 1,29,-1
 380 108 l 2,30,22
 497 108 497 108 547 204 c 128,-1,23
EndSplineSet
Substitution2: "'c2sc' Capitals to Small Capitals lookup 27 subtable" uni0257.sc
Substitution2: "'aalt' Access All Alternates lookup 0 subtable" uni0257.sc
Position2: "'cpsp' Capital Spacing lookup 0 subtable" dx=5 dy=0 dh=10 dv=0
EndChar

StartChar: uni018B
Encoding: 395 395 65
Width: 586
GlyphClass: 2
Flags: W
AnchorPoint: "Anchor-18" 0 0 basechar 0
AnchorPoint: "Anchor-17" 0 0 basechar 0
AnchorPoint: "Anchor-16" 353 692 basechar 0
AnchorPoint: "Anchor-15" 0 0 basechar 0
AnchorPoint: "Anchor-14" 256 0 basechar 0
LayerCount: 2
Fore
SplineSet
476 0 m 1,0,-1
 247 0 l 2,1,2
 140 0 140 0 76.5 50 c 128,-1,3
 13 100 13 100 13 203 c 0,4,5
 13 317 13 317 94 379.5 c 128,-1,6
 175 442 175 442 314 442 c 2,7,-1
 393 442 l 1,8,-1
 412 579 l 1,9,-1
 150 579 l 1,10,-1
 166 692 l 1,11,-1
 573 692 l 1,12,-1
 476 0 l 1,0,-1
346 109 m 1,13,-1
 378 338 l 1,14,-1
 313 338 l 2,15,16
 240 338 240 338 203 303 c 128,-1,17
 166 268 166 268 166 207 c 0,18,19
 166 154 166 154 192 131.5 c 128,-1,20
 218 109 218 109 275 109 c 2,21,-1
 346 109 l 1,13,-1
EndSplineSet
Substitution2: "'c2sc' Capitals to Small Capitals lookup 27 subtable" uni018C.sc
Substitution2: "'aalt' Access All Alternates lookup 0 subtable" uni018C.sc
Position2: "'cpsp' Capital Spacing lookup 0 subtable" dx=5 dy=0 dh=10 dv=0
EndChar

StartChar: E
Encoding: 69 69 68
Width: 520
GlyphClass: 2
Flags: W
AnchorPoint: "Anchor-18" 0 0 basechar 0
AnchorPoint: "Anchor-17" 0 0 basechar 0
AnchorPoint: "Anchor-16" 338 692 basechar 0
AnchorPoint: "Anchor-15" 414 0 basechar 0
AnchorPoint: "Anchor-14" 240 0 basechar 0
LayerCount: 2
Fore
SplineSet
539 692 m 1,0,-1
 509 584 l 1,1,-1
 262 584 l 1,2,-1
 237 405 l 1,3,-1
 451 405 l 1,4,-1
 438 299 l 1,5,-1
 223 299 l 1,6,-1
 196 108 l 1,7,-1
 460 108 l 1,8,-1
 444 0 l 1,9,-1
 35 0 l 1,10,-1
 132 692 l 1,11,-1
 539 692 l 1,0,-1
EndSplineSet
Substitution2: "'c2sc' Capitals to Small Capitals lookup 27 subtable" e.sc
Substitution2: "'aalt' Access All Alternates lookup 0 subtable" e.sc
Position2: "'cpsp' Capital Spacing lookup 0 subtable" dx=5 dy=0 dh=10 dv=0
EndChar

StartChar: uni0228
Encoding: 552 552 72
Width: 520
GlyphClass: 2
Flags: W
AnchorPoint: "Anchor-18" 0 0 basechar 0
AnchorPoint: "Anchor-17" 0 0 basechar 0
AnchorPoint: "Anchor-16" 338 692 basechar 0
AnchorPoint: "Anchor-15" 414 0 basechar 0
AnchorPoint: "Anchor-14" 240 0 basechar 0
LayerCount: 2
Fore
SplineSet
262 584 m 1,0,-1
 237 405 l 1,1,-1
 451 405 l 1,2,-1
 438 299 l 1,3,-1
 223 299 l 1,4,-1
 196 108 l 1,5,-1
 460 108 l 1,6,-1
 444 0 l 1,7,-1
 281 0 l 1,8,-1
 273 -50 l 1,9,10
 317 -54 317 -54 339.5 -77 c 128,-1,11
 362 -100 362 -100 362 -137 c 0,12,13
 362 -166 362 -166 346 -193.5 c 128,-1,14
 330 -221 330 -221 295 -239 c 128,-1,15
 260 -257 260 -257 207 -257 c 0,16,17
 146 -257 146 -257 104 -226 c 1,18,-1
 146 -162 l 1,19,20
 173 -177 173 -177 208 -177 c 0,21,22
 231 -177 231 -177 244.5 -168 c 128,-1,23
 258 -159 258 -159 258 -142 c 0,24,25
 258 -123 258 -123 239.5 -116 c 128,-1,26
 221 -109 221 -109 173 -109 c 1,27,-1
 200 0 l 1,28,-1
 35 0 l 1,29,-1
 132 692 l 1,30,-1
 539 692 l 1,31,-1
 509 584 l 1,32,-1
 262 584 l 1,0,-1
EndSplineSet
Substitution2: "'c2sc' Capitals to Small Capitals lookup 27 subtable" uni0229.sc
Substitution2: "'aalt' Access All Alternates lookup 0 subtable" uni0229.sc
Position2: "'cpsp' Capital Spacing lookup 0 subtable" dx=5 dy=0 dh=10 dv=0
EndChar

StartChar: uni1EBE
Encoding: 7870 7870 74
Width: 520
GlyphClass: 2
Flags: W
AnchorPoint: "Anchor-18" 0 0 basechar 0
AnchorPoint: "Anchor-17" 450 783 basechar 0
AnchorPoint: "Anchor-16" 362 905 basechar 0
AnchorPoint: "Anchor-15" 414 0 basechar 0
AnchorPoint: "Anchor-14" 0 0 basechar 0
LayerCount: 2
Fore
SplineSet
600 1076 m 1,0,-1
 670 999 l 1,1,-1
 502 862 l 1,2,-1
 452 911 l 1,3,-1
 600 1076 l 1,0,-1
212 720 m 1,4,-1
 164 780 l 1,5,-1
 320 905 l 1,6,-1
 406 905 l 1,7,-1
 527 780 l 1,8,-1
 470 720 l 1,9,-1
 352 804 l 1,10,-1
 212 720 l 1,4,-1
539 692 m 1,11,-1
 509 584 l 1,12,-1
 262 584 l 1,13,-1
 237 405 l 1,14,-1
 451 405 l 1,15,-1
 438 299 l 1,16,-1
 223 299 l 1,17,-1
 196 108 l 1,18,-1
 460 108 l 1,19,-1
 444 0 l 1,20,-1
 35 0 l 1,21,-1
 132 692 l 1,22,-1
 539 692 l 1,11,-1
EndSplineSet
Substitution2: "'c2sc' Capitals to Small Capitals lookup 27 subtable" uni1EBF.sc
Substitution2: "'aalt' Access All Alternates lookup 0 subtable" uni1EBF.sc
Position2: "'cpsp' Capital Spacing lookup 0 subtable" dx=5 dy=0 dh=10 dv=0
EndChar

StartChar: uni1EC0
Encoding: 7872 7872 76
Width: 520
GlyphClass: 2
Flags: W
AnchorPoint: "Anchor-18" 0 0 basechar 0
AnchorPoint: "Anchor-17" 448 783 basechar 0
AnchorPoint: "Anchor-16" 360 905 basechar 0
AnchorPoint: "Anchor-15" 414 0 basechar 0
AnchorPoint: "Anchor-14" 0 0 basechar 0
LayerCount: 2
Fore
SplineSet
160 1073 m 1,0,-1
 264 907 l 1,1,-1
 207 862 l 1,2,-1
 75 1003 l 1,3,-1
 160 1073 l 1,0,-1
210 720 m 1,4,-1
 162 780 l 1,5,-1
 318 905 l 1,6,-1
 404 905 l 1,7,-1
 525 780 l 1,8,-1
 468 720 l 1,9,-1
 350 804 l 1,10,-1
 210 720 l 1,4,-1
539 692 m 1,11,-1
 509 584 l 1,12,-1
 262 584 l 1,13,-1
 237 405 l 1,14,-1
 451 405 l 1,15,-1
 438 299 l 1,16,-1
 223 299 l 1,17,-1
 196 108 l 1,18,-1
 460 108 l 1,19,-1
 444 0 l 1,20,-1
 35 0 l 1,21,-1
 132 692 l 1,22,-1
 539 692 l 1,11,-1
EndSplineSet
Substitution2: "'c2sc' Capitals to Small Capitals lookup 27 subtable" uni1EC1.sc
Substitution2: "'aalt' Access All Alternates lookup 0 subtable" uni1EC1.sc
Position2: "'cpsp' Capital Spacing lookup 0 subtable" dx=5 dy=0 dh=10 dv=0
EndChar

StartChar: uni1EC4
Encoding: 7876 7876 78
Width: 520
GlyphClass: 2
Flags: W
AnchorPoint: "Anchor-18" 0 0 basechar 0
AnchorPoint: "Anchor-17" 446 783 basechar 0
AnchorPoint: "Anchor-16" 378 1073 basechar 0
AnchorPoint: "Anchor-15" 414 0 basechar 0
AnchorPoint: "Anchor-14" 0 0 basechar 0
LayerCount: 2
Fore
SplineSet
394.5 938 m 128,-1,1
 381 944 381 944 358 957 c 0,2,3
 346 966 346 966 337.5 970 c 128,-1,4
 329 974 329 974 320 974 c 0,5,6
 302 974 302 974 289 963.5 c 128,-1,7
 276 953 276 953 260 931 c 1,8,-1
 192 968 l 1,9,10
 218 1015 218 1015 252.5 1044 c 128,-1,11
 287 1073 287 1073 326 1073 c 0,12,13
 347 1073 347 1073 362.5 1066 c 128,-1,14
 378 1059 378 1059 396 1046 c 0,15,16
 409 1037 409 1037 416.5 1033 c 128,-1,17
 424 1029 424 1029 433 1029 c 0,18,19
 449 1029 449 1029 462 1039 c 128,-1,20
 475 1049 475 1049 492 1072 c 1,21,-1
 560 1034 l 1,22,23
 534 987 534 987 499.5 959.5 c 128,-1,24
 465 932 465 932 428 932 c 0,25,0
 408 932 408 932 394.5 938 c 128,-1,1
208 720 m 1,26,-1
 160 780 l 1,27,-1
 316 905 l 1,28,-1
 402 905 l 1,29,-1
 523 780 l 1,30,-1
 466 720 l 1,31,-1
 348 804 l 1,32,-1
 208 720 l 1,26,-1
539 692 m 1,33,-1
 509 584 l 1,34,-1
 262 584 l 1,35,-1
 237 405 l 1,36,-1
 451 405 l 1,37,-1
 438 299 l 1,38,-1
 223 299 l 1,39,-1
 196 108 l 1,40,-1
 460 108 l 1,41,-1
 444 0 l 1,42,-1
 35 0 l 1,43,-1
 132 692 l 1,44,-1
 539 692 l 1,33,-1
EndSplineSet
Substitution2: "'c2sc' Capitals to Small Capitals lookup 27 subtable" uni1EC5.sc
Substitution2: "'aalt' Access All Alternates lookup 0 subtable" uni1EC5.sc
Position2: "'cpsp' Capital Spacing lookup 0 subtable" dx=5 dy=0 dh=10 dv=0
EndChar

StartChar: Eogonek
Encoding: 280 280 87
Width: 520
GlyphClass: 2
Flags: W
AnchorPoint: "Anchor-18" 0 0 basechar 0
AnchorPoint: "Anchor-17" 0 0 basechar 0
AnchorPoint: "Anchor-16" 338 692 basechar 0
AnchorPoint: "Anchor-15" 414 0 basechar 0
AnchorPoint: "Anchor-14" 240 0 basechar 0
LayerCount: 2
Fore
SplineSet
262 584 m 1,0,-1
 237 405 l 1,1,-1
 451 405 l 1,2,-1
 438 299 l 1,3,-1
 223 299 l 1,4,-1
 196 108 l 1,5,-1
 460 108 l 1,6,-1
 444 0 l 1,7,-1
 406 0 l 1,8,9
 271 -50 271 -50 271 -116 c 0,10,11
 271 -151 271 -151 316 -151 c 0,12,13
 341 -151 341 -151 378 -143 c 1,14,-1
 358 -235 l 1,15,16
 321 -242 321 -242 291 -242 c 0,17,18
 234 -242 234 -242 199 -214 c 128,-1,19
 164 -186 164 -186 164 -140 c 0,20,21
 164 -55 164 -55 263 0 c 1,22,-1
 35 0 l 1,23,-1
 132 692 l 1,24,-1
 539 692 l 1,25,-1
 509 584 l 1,26,-1
 262 584 l 1,0,-1
EndSplineSet
Substitution2: "'c2sc' Capitals to Small Capitals lookup 27 subtable" eogonek.sc
Substitution2: "'aalt' Access All Alternates lookup 0 subtable" eogonek.sc
Position2: "'cpsp' Capital Spacing lookup 0 subtable" dx=5 dy=0 dh=10 dv=0
EndChar

StartChar: uni0190
Encoding: 400 400 88
Width: 528
GlyphClass: 2
Flags: W
AnchorPoint: "Anchor-18" 0 0 basechar 0
AnchorPoint: "Anchor-17" 0 0 basechar 0
AnchorPoint: "Anchor-16" 345 692 basechar 0
AnchorPoint: "Anchor-15" 0 0 basechar 0
AnchorPoint: "Anchor-14" 252 0 basechar 0
LayerCount: 2
Fore
SplineSet
461.5 685 m 128,-1,1
 514 662 514 662 556 616 c 1,2,-1
 476 542 l 1,3,4
 419 599 419 599 347 599 c 0,5,6
 293 599 293 599 263 570.5 c 128,-1,7
 233 542 233 542 233 497 c 0,8,9
 233 459 233 459 257.5 439 c 128,-1,10
 282 419 282 419 329 419 c 2,11,-1
 403 419 l 1,12,-1
 370 311 l 1,13,-1
 319 311 l 2,14,15
 248 311 248 311 208.5 279 c 128,-1,16
 169 247 169 247 169 188 c 0,17,18
 169 96 169 96 277 96 c 0,19,20
 321 96 321 96 358 112 c 128,-1,21
 395 128 395 128 431 160 c 1,22,-1
 502 79 l 1,23,24
 402 -16 402 -16 256 -16 c 0,25,26
 185 -16 185 -16 131 7.5 c 128,-1,27
 77 31 77 31 47.5 74.5 c 128,-1,28
 18 118 18 118 18 175 c 0,29,30
 18 260 18 260 70.5 309.5 c 128,-1,31
 123 359 123 359 213 369 c 1,32,33
 151 382 151 382 118.5 418 c 128,-1,34
 86 454 86 454 86 508 c 0,35,36
 86 567 86 567 120 612.5 c 128,-1,37
 154 658 154 658 212 683 c 128,-1,38
 270 708 270 708 338 708 c 0,39,0
 409 708 409 708 461.5 685 c 128,-1,1
EndSplineSet
Substitution2: "'c2sc' Capitals to Small Capitals lookup 27 subtable" uni025B.sc
Substitution2: "'aalt' Access All Alternates lookup 0 subtable" uni025B.sc
Position2: "'cpsp' Capital Spacing lookup 0 subtable" dx=5 dy=0 dh=10 dv=0
EndChar

StartChar: uni018E
Encoding: 398 398 89
Width: 519
GlyphClass: 2
Flags: W
LayerCount: 2
Fore
SplineSet
102 692 m 1,0,-1
 505 692 l 1,1,-1
 409 0 l 1,2,-1
 0 0 l 1,3,-1
 15 108 l 1,4,-1
 278 108 l 1,5,-1
 305 299 l 1,6,-1
 90 299 l 1,7,-1
 104 405 l 1,8,-1
 319 405 l 1,9,-1
 345 584 l 1,10,-1
 87 584 l 1,11,-1
 102 692 l 1,0,-1
EndSplineSet
Substitution2: "'c2sc' Capitals to Small Capitals lookup 27 subtable" uni0258.sc
Substitution2: "'aalt' Access All Alternates lookup 0 subtable" uni0258.sc
Position2: "'cpsp' Capital Spacing lookup 0 subtable" dx=5 dy=0 dh=10 dv=0
EndChar

StartChar: uni0246
Encoding: 582 582 91
Width: 520
GlyphClass: 2
Flags: W
AnchorPoint: "Anchor-18" 0 0 basechar 0
AnchorPoint: "Anchor-17" 0 0 basechar 0
AnchorPoint: "Anchor-16" 320 692 basechar 0
AnchorPoint: "Anchor-15" 414 0 basechar 0
AnchorPoint: "Anchor-14" 223 0 basechar 0
LayerCount: 2
Fore
SplineSet
509 584 m 1,0,-1
 456 584 l 1,1,-1
 383 405 l 1,2,-1
 451 405 l 1,3,-1
 438 299 l 1,4,-1
 340 299 l 1,5,-1
 263 108 l 1,6,-1
 460 108 l 1,7,-1
 444 0 l 1,8,-1
 219 0 l 1,9,-1
 189 -73 l 1,10,-1
 135 -60 l 1,11,-1
 159 0 l 1,12,-1
 35 0 l 1,13,-1
 132 692 l 1,14,-1
 440 692 l 1,15,-1
 465 754 l 1,16,-1
 520 741 l 1,17,-1
 500 692 l 1,18,-1
 539 692 l 1,19,-1
 509 584 l 1,0,-1
324 405 m 1,20,-1
 396 584 l 1,21,-1
 262 584 l 1,22,-1
 237 405 l 1,23,-1
 324 405 l 1,20,-1
203 108 m 1,24,-1
 281 299 l 1,25,-1
 223 299 l 1,26,-1
 196 108 l 1,27,-1
 203 108 l 1,24,-1
EndSplineSet
Substitution2: "'c2sc' Capitals to Small Capitals lookup 27 subtable" uni0247.sc
Substitution2: "'aalt' Access All Alternates lookup 0 subtable" uni0247.sc
Position2: "'cpsp' Capital Spacing lookup 0 subtable" dx=5 dy=0 dh=10 dv=0
EndChar

StartChar: uni01B7
Encoding: 439 439 93
Width: 535
GlyphClass: 2
Flags: W
AnchorPoint: "Anchor-18" 0 0 basechar 0
AnchorPoint: "Anchor-17" 0 0 basechar 0
AnchorPoint: "Anchor-16" 319 692 basechar 0
AnchorPoint: "Anchor-15" 0 0 basechar 0
AnchorPoint: "Anchor-14" 229 0 basechar 0
LayerCount: 2
Fore
SplineSet
518 586 m 1,0,-1
 311 402 l 1,1,2
 402 398 402 398 450.5 354 c 128,-1,3
 499 310 499 310 499 233 c 0,4,5
 499 157 499 157 460.5 100.5 c 128,-1,6
 422 44 422 44 355.5 14 c 128,-1,7
 289 -16 289 -16 206 -16 c 0,8,9
 126 -16 126 -16 73 9.5 c 128,-1,10
 20 35 20 35 -16 85 c 1,11,-1
 68 158 l 1,12,13
 97 124 97 124 128.5 109.5 c 128,-1,14
 160 95 160 95 205 95 c 0,15,16
 269 95 269 95 308.5 131.5 c 128,-1,17
 348 168 348 168 348 228 c 0,18,19
 348 274 348 274 319 293.5 c 128,-1,20
 290 313 290 313 232 313 c 2,21,-1
 135 313 l 1,22,-1
 147 399 l 1,23,-1
 349 583 l 1,24,-1
 90 583 l 1,25,-1
 105 692 l 1,26,-1
 532 692 l 1,27,-1
 518 586 l 1,0,-1
EndSplineSet
Substitution2: "'c2sc' Capitals to Small Capitals lookup 27 subtable" uni0292.sc
Substitution2: "'aalt' Access All Alternates lookup 0 subtable" uni0292.sc
Position2: "'cpsp' Capital Spacing lookup 0 subtable" dx=5 dy=0 dh=10 dv=0
EndChar

StartChar: uni01B8
Encoding: 440 440 95
Width: 537
GlyphClass: 2
Flags: W
AnchorPoint: "Anchor-18" 0 0 basechar 0
AnchorPoint: "Anchor-17" 0 0 basechar 0
AnchorPoint: "Anchor-16" 329 692 basechar 0
AnchorPoint: "Anchor-15" 0 0 basechar 0
AnchorPoint: "Anchor-14" 232 0 basechar 0
LayerCount: 2
Fore
SplineSet
534 583 m 1,0,-1
 266 583 l 1,1,-1
 424 397 l 1,2,-1
 413 313 l 1,3,-1
 319 313 l 2,4,5
 250 313 250 313 210 278.5 c 128,-1,6
 170 244 170 244 170 184 c 0,7,8
 170 141 170 141 196 118 c 128,-1,9
 222 95 222 95 269 95 c 0,10,11
 318 95 318 95 356 110.5 c 128,-1,12
 394 126 394 126 434 160 c 1,13,-1
 502 82 l 1,14,15
 453 34 453 34 392.5 9 c 128,-1,16
 332 -16 332 -16 253 -16 c 0,17,18
 143 -16 143 -16 81.5 37 c 128,-1,19
 20 90 20 90 20 179 c 0,20,21
 20 244 20 244 52.5 294.5 c 128,-1,22
 85 345 85 345 142.5 373 c 128,-1,23
 200 401 200 401 271 402 c 1,24,-1
 108 586 l 1,25,-1
 123 692 l 1,26,-1
 549 692 l 1,27,-1
 534 583 l 1,0,-1
EndSplineSet
Substitution2: "'c2sc' Capitals to Small Capitals lookup 27 subtable" uni01B9.sc
Substitution2: "'aalt' Access All Alternates lookup 0 subtable" uni01B9.sc
Position2: "'cpsp' Capital Spacing lookup 0 subtable" dx=5 dy=0 dh=10 dv=0
EndChar

StartChar: F
Encoding: 70 70 96
Width: 480
GlyphClass: 2
Flags: W
AnchorPoint: "Anchor-18" 0 0 basechar 0
AnchorPoint: "Anchor-17" 0 0 basechar 0
AnchorPoint: "Anchor-16" 330 692 basechar 0
AnchorPoint: "Anchor-15" 0 0 basechar 0
AnchorPoint: "Anchor-14" 108 0 basechar 0
LayerCount: 2
Fore
SplineSet
529 692 m 1,0,-1
 498 584 l 1,1,-1
 262 584 l 1,2,-1
 235 389 l 1,3,-1
 441 389 l 1,4,-1
 426 282 l 1,5,-1
 220 282 l 1,6,-1
 181 0 l 1,7,-1
 35 0 l 1,8,-1
 132 692 l 1,9,-1
 529 692 l 1,0,-1
EndSplineSet
Substitution2: "'c2sc' Capitals to Small Capitals lookup 27 subtable" f.sc
Substitution2: "'aalt' Access All Alternates lookup 0 subtable" f.sc
Position2: "'cpsp' Capital Spacing lookup 0 subtable" dx=5 dy=0 dh=10 dv=0
EndChar

StartChar: uni0191
Encoding: 401 401 98
Width: 480
GlyphClass: 2
Flags: W
AnchorPoint: "Anchor-18" 0 0 basechar 0
AnchorPoint: "Anchor-17" 0 0 basechar 0
AnchorPoint: "Anchor-16" 330 692 basechar 0
AnchorPoint: "Anchor-15" 0 0 basechar 0
AnchorPoint: "Anchor-14" 108 0 basechar 0
LayerCount: 2
Fore
SplineSet
262 584 m 1,0,-1
 235 389 l 1,1,-1
 441 389 l 1,2,-1
 426 282 l 1,3,-1
 220 282 l 1,4,-1
 181 0 l 1,5,-1
 175 -40 l 2,6,7
 161 -129 161 -129 106.5 -174.5 c 128,-1,8
 52 -220 52 -220 -33 -220 c 0,9,10
 -110 -220 -110 -220 -163 -177 c 1,11,-1
 -104 -90 l 1,12,13
 -86 -101 -86 -101 -72 -106 c 128,-1,14
 -58 -111 -58 -111 -39 -111 c 0,15,16
 19 -111 19 -111 29 -45 c 2,17,-1
 35 0 l 1,18,-1
 132 692 l 1,19,-1
 529 692 l 1,20,-1
 498 584 l 1,21,-1
 262 584 l 1,0,-1
EndSplineSet
Substitution2: "'c2sc' Capitals to Small Capitals lookup 27 subtable" uni0191.sc
Substitution2: "'aalt' Access All Alternates lookup 0 subtable" uni0191.sc
Position2: "'cpsp' Capital Spacing lookup 0 subtable" dx=5 dy=0 dh=10 dv=0
EndChar

StartChar: G
Encoding: 71 71 99
Width: 632
GlyphClass: 2
Flags: W
AnchorPoint: "Anchor-18" 0 0 basechar 0
AnchorPoint: "Anchor-17" 0 0 basechar 0
AnchorPoint: "Anchor-16" 410 692 basechar 0
AnchorPoint: "Anchor-15" 0 0 basechar 0
AnchorPoint: "Anchor-14" 304 0 basechar 0
LayerCount: 2
Fore
SplineSet
629 622 m 1,1,-1
 546 548 l 1,2,3
 513 575 513 575 483 587 c 128,-1,4
 453 599 453 599 413 599 c 0,5,6
 335 599 335 599 285.5 545.5 c 128,-1,7
 236 492 236 492 214.5 411 c 128,-1,8
 193 330 193 330 193 245 c 0,9,10
 193 165 193 165 223.5 130 c 128,-1,11
 254 95 254 95 317 95 c 0,12,13
 372 95 372 95 421 120 c 1,14,-1
 446 288 l 1,15,-1
 350 288 l 1,16,-1
 351 395 l 1,17,-1
 602 395 l 1,18,-1
 555 56 l 1,19,20
 500 21 500 21 436.5 2.5 c 128,-1,21
 373 -16 373 -16 306 -16 c 0,22,23
 177 -16 177 -16 110 54 c 128,-1,24
 43 124 43 124 43 259 c 0,25,26
 43 370 43 370 82.5 472.5 c 128,-1,27
 122 575 122 575 205.5 641.5 c 128,-1,28
 289 708 289 708 415 708 c 0,29,0
 546 708 546 708 629 622 c 1,1,-1
EndSplineSet
Substitution2: "'c2sc' Capitals to Small Capitals lookup 27 subtable" g.sc
Substitution2: "'aalt' Access All Alternates lookup 0 subtable" g.sc
Position2: "'cpsp' Capital Spacing lookup 0 subtable" dx=5 dy=0 dh=10 dv=0
EndChar

StartChar: uni0194
Encoding: 404 404 101
Width: 559
GlyphClass: 2
Flags: W
AnchorPoint: "Anchor-18" 0 0 basechar 0
AnchorPoint: "Anchor-17" 0 0 basechar 0
AnchorPoint: "Anchor-16" 339 692 basechar 0
AnchorPoint: "Anchor-15" 0 0 basechar 0
AnchorPoint: "Anchor-14" 0 0 basechar 0
LayerCount: 2
Fore
SplineSet
330 82 m 1,0,1
 352 32 352 32 362.5 -3.5 c 128,-1,2
 373 -39 373 -39 373 -76 c 0,3,4
 373 -145 373 -145 331 -182.5 c 128,-1,5
 289 -220 289 -220 215 -220 c 0,6,7
 152 -220 152 -220 119.5 -190 c 128,-1,8
 87 -160 87 -160 87 -109 c 0,9,10
 87 -66 87 -66 109.5 -21 c 128,-1,11
 132 24 132 24 179 87 c 1,12,-1
 51 692 l 1,13,-1
 202 692 l 1,14,-1
 267 184 l 1,15,-1
 477 692 l 1,16,-1
 628 692 l 1,17,-1
 330 82 l 1,0,1
245 8 m 1,19,20
 199 -61 199 -61 199 -98 c 0,21,22
 199 -124 199 -124 224 -124 c 0,23,24
 242 -124 242 -124 251.5 -111.5 c 128,-1,25
 261 -99 261 -99 261 -79 c 0,26,18
 261 -43 261 -43 245 8 c 1,19,20
EndSplineSet
Substitution2: "'c2sc' Capitals to Small Capitals lookup 27 subtable" uni0194.sc
Substitution2: "'aalt' Access All Alternates lookup 0 subtable" uni0194.sc
Position2: "'cpsp' Capital Spacing lookup 0 subtable" dx=5 dy=0 dh=10 dv=0
EndChar

StartChar: uni0193
Encoding: 403 403 107
Width: 606
GlyphClass: 2
Flags: W
AnchorPoint: "Anchor-18" 0 0 basechar 0
AnchorPoint: "Anchor-17" 0 0 basechar 0
AnchorPoint: "Anchor-16" 363 715 basechar 0
AnchorPoint: "Anchor-15" 0 0 basechar 0
AnchorPoint: "Anchor-14" 266 0 basechar 0
LayerCount: 2
Fore
SplineSet
818 808 m 1,1,-1
 765 721 l 1,2,3
 749 731 749 731 734.5 735.5 c 128,-1,4
 720 740 720 740 701 740 c 0,5,6
 644 740 644 740 635 674 c 2,7,-1
 629 622 l 1,8,-1
 555 556 l 1,9,10
 487 599 487 599 413 599 c 0,11,12
 334 599 334 599 285 545.5 c 128,-1,13
 236 492 236 492 214.5 411.5 c 128,-1,14
 193 331 193 331 193 245 c 0,15,16
 193 165 193 165 223.5 130 c 128,-1,17
 254 95 254 95 316 95 c 0,18,19
 371 95 371 95 421 120 c 1,20,-1
 445 288 l 1,21,-1
 349 288 l 1,22,-1
 350 395 l 1,23,-1
 601 395 l 1,24,-1
 555 56 l 1,25,26
 500 21 500 21 436 2.5 c 128,-1,27
 372 -16 372 -16 305 -16 c 0,28,29
 177 -16 177 -16 109.5 54 c 128,-1,30
 42 124 42 124 42 259 c 0,31,32
 42 367 42 367 83 470.5 c 128,-1,33
 124 574 124 574 206 641 c 128,-1,34
 288 708 288 708 404 708 c 0,35,36
 466 708 466 708 511 687 c 1,37,38
 522 764 522 764 568.5 805.5 c 128,-1,39
 615 847 615 847 693 847 c 0,40,0
 763 847 763 847 818 808 c 1,1,-1
EndSplineSet
Substitution2: "'c2sc' Capitals to Small Capitals lookup 27 subtable" uni0260.sc
Substitution2: "'aalt' Access All Alternates lookup 0 subtable" uni0260.sc
Position2: "'cpsp' Capital Spacing lookup 0 subtable" dx=5 dy=0 dh=10 dv=0
EndChar

StartChar: uni0241
Encoding: 577 577 108
Width: 499
GlyphClass: 2
Flags: W
AnchorPoint: "Anchor-18" 0 0 basechar 0
AnchorPoint: "Anchor-17" 0 0 basechar 0
AnchorPoint: "Anchor-16" 309 692 basechar 0
AnchorPoint: "Anchor-15" 0 0 basechar 0
AnchorPoint: "Anchor-14" 186 0 basechar 0
LayerCount: 2
Fore
SplineSet
159 328 m 1,0,-1
 219 344 l 2,1,2
 289 364 289 364 324.5 403.5 c 128,-1,3
 360 443 360 443 360 507 c 0,4,5
 360 551 360 551 337.5 575 c 128,-1,6
 315 599 315 599 271 599 c 0,7,8
 232 599 232 599 196.5 584 c 128,-1,9
 161 569 161 569 123 539 c 1,10,-1
 59 619 l 1,11,12
 110 663 110 663 167 685.5 c 128,-1,13
 224 708 224 708 294 708 c 0,14,15
 395 708 395 708 453.5 656.5 c 128,-1,16
 512 605 512 605 512 517 c 0,17,18
 512 338 512 338 325 285 c 2,19,-1
 298 277 l 1,20,-1
 259 0 l 1,21,-1
 114 0 l 1,22,-1
 159 328 l 1,0,-1
EndSplineSet
Substitution2: "'c2sc' Capitals to Small Capitals lookup 27 subtable" uni0294.sc
Substitution2: "'aalt' Access All Alternates lookup 0 subtable" uni0294.sc
Position2: "'cpsp' Capital Spacing lookup 0 subtable" dx=5 dy=0 dh=10 dv=0
EndChar

StartChar: uni01E4
Encoding: 484 484 109
Width: 660
GlyphClass: 2
Flags: W
AnchorPoint: "Anchor-18" 0 0 basechar 0
AnchorPoint: "Anchor-17" 0 0 basechar 0
AnchorPoint: "Anchor-16" 390 692 basechar 0
AnchorPoint: "Anchor-15" 0 0 basechar 0
AnchorPoint: "Anchor-14" 293 0 basechar 0
LayerCount: 2
Fore
SplineSet
640 175 m 1,0,-1
 572 175 l 1,1,-1
 555 56 l 1,2,3
 500 21 500 21 436.5 2.5 c 128,-1,4
 373 -16 373 -16 306 -16 c 0,5,6
 177 -16 177 -16 110 54 c 128,-1,7
 43 124 43 124 43 259 c 0,8,9
 43 370 43 370 82.5 472.5 c 128,-1,10
 122 575 122 575 205.5 641.5 c 128,-1,11
 289 708 289 708 415 708 c 0,12,13
 546 708 546 708 629 622 c 1,14,-1
 544 546 l 1,15,16
 513 574 513 574 483 586.5 c 128,-1,17
 453 599 453 599 413 599 c 0,18,19
 335 599 335 599 285.5 545.5 c 128,-1,20
 236 492 236 492 214.5 411 c 128,-1,21
 193 330 193 330 193 245 c 0,22,23
 193 165 193 165 223.5 130 c 128,-1,24
 254 95 254 95 317 95 c 0,25,26
 377 95 377 95 426 120 c 1,27,-1
 434 175 l 1,28,-1
 333 175 l 1,29,-1
 346 266 l 1,30,-1
 447 266 l 1,31,-1
 453 312 l 1,32,-1
 352 312 l 1,33,-1
 352 406 l 1,34,-1
 604 406 l 1,35,-1
 584 266 l 1,36,-1
 652 266 l 1,37,-1
 640 175 l 1,0,-1
EndSplineSet
Substitution2: "'c2sc' Capitals to Small Capitals lookup 27 subtable" uni01E5.sc
Substitution2: "'aalt' Access All Alternates lookup 0 subtable" uni01E5.sc
Position2: "'cpsp' Capital Spacing lookup 0 subtable" dx=5 dy=0 dh=10 dv=0
EndChar

StartChar: uni021C
Encoding: 540 540 110
Width: 509
GlyphClass: 2
Flags: W
AnchorPoint: "Anchor-18" 0 0 basechar 0
AnchorPoint: "Anchor-17" 0 0 basechar 0
AnchorPoint: "Anchor-16" 314 692 basechar 0
AnchorPoint: "Anchor-15" 0 0 basechar 0
AnchorPoint: "Anchor-14" 0 0 basechar 0
LayerCount: 2
Fore
SplineSet
440.5 661 m 128,-1,1
 495 614 495 614 495 538 c 0,2,3
 495 468 495 468 451 422.5 c 128,-1,4
 407 377 407 377 324 358 c 1,5,6
 392 354 392 354 432 318 c 128,-1,7
 472 282 472 282 472 218 c 0,8,9
 472 90 472 90 344.5 7.5 c 128,-1,10
 217 -75 217 -75 18 -111 c 1,11,-1
 18 -2 l 1,12,13
 164 35 164 35 241.5 85.5 c 128,-1,14
 319 136 319 136 319 220 c 0,15,16
 319 262 319 262 291.5 281.5 c 128,-1,17
 264 301 264 301 205 301 c 2,18,-1
 134 301 l 1,19,-1
 165 409 l 1,20,-1
 220 409 l 2,21,22
 277 409 277 409 311 440.5 c 128,-1,23
 345 472 345 472 345 526 c 0,24,25
 345 599 345 599 264 599 c 0,26,27
 192 599 192 599 113 541 c 1,28,-1
 50 619 l 1,29,30
 157 708 157 708 289 708 c 0,31,0
 386 708 386 708 440.5 661 c 128,-1,1
EndSplineSet
Substitution2: "'c2sc' Capitals to Small Capitals lookup 27 subtable" uni021D.sc
Substitution2: "'aalt' Access All Alternates lookup 0 subtable" uni021D.sc
Position2: "'cpsp' Capital Spacing lookup 0 subtable" dx=5 dy=0 dh=10 dv=0
EndChar

StartChar: H
Encoding: 72 72 111
Width: 660
GlyphClass: 2
Flags: W
AnchorPoint: "Anchor-18" 341 346 basechar 0
AnchorPoint: "Anchor-17" 0 0 basechar 0
AnchorPoint: "Anchor-16" 390 692 basechar 0
AnchorPoint: "Anchor-15" 0 0 basechar 0
AnchorPoint: "Anchor-14" 297 0 basechar 0
LayerCount: 2
Fore
SplineSet
180 0 m 1,0,-1
 35 0 l 1,1,-1
 132 692 l 1,2,-1
 278 692 l 1,3,-1
 239 419 l 1,4,-1
 463 419 l 1,5,-1
 502 692 l 1,6,-1
 647 692 l 1,7,-1
 550 0 l 1,8,-1
 405 0 l 1,9,-1
 447 303 l 1,10,-1
 223 303 l 1,11,-1
 180 0 l 1,0,-1
EndSplineSet
Substitution2: "'c2sc' Capitals to Small Capitals lookup 27 subtable" h.sc
Substitution2: "'aalt' Access All Alternates lookup 0 subtable" h.sc
Position2: "'cpsp' Capital Spacing lookup 0 subtable" dx=5 dy=0 dh=10 dv=0
EndChar

StartChar: Hbar
Encoding: 294 294 112
Width: 676
GlyphClass: 2
Flags: W
AnchorPoint: "Anchor-18" 347 346 basechar 0
AnchorPoint: "Anchor-17" 0 0 basechar 0
AnchorPoint: "Anchor-16" 396 692 basechar 0
AnchorPoint: "Anchor-15" 0 0 basechar 0
AnchorPoint: "Anchor-14" 303 0 basechar 0
LayerCount: 2
Fore
SplineSet
699 588 m 1,0,-1
 687 502 l 1,1,-1
 626 502 l 1,2,-1
 556 0 l 1,3,-1
 411 0 l 1,4,-1
 453 303 l 1,5,-1
 229 303 l 1,6,-1
 186 0 l 1,7,-1
 41 0 l 1,8,-1
 111 502 l 1,9,-1
 53 502 l 1,10,-1
 66 588 l 1,11,-1
 123 588 l 1,12,-1
 138 692 l 1,13,-1
 284 692 l 1,14,-1
 269 588 l 1,15,-1
 493 588 l 1,16,-1
 508 692 l 1,17,-1
 653 692 l 1,18,-1
 638 588 l 1,19,-1
 699 588 l 1,0,-1
469 419 m 1,20,-1
 481 502 l 1,21,-1
 257 502 l 1,22,-1
 245 419 l 1,23,-1
 469 419 l 1,20,-1
EndSplineSet
Substitution2: "'c2sc' Capitals to Small Capitals lookup 27 subtable" hbar.sc
Substitution2: "'aalt' Access All Alternates lookup 0 subtable" hbar.sc
Position2: "'cpsp' Capital Spacing lookup 0 subtable" dx=5 dy=0 dh=10 dv=0
EndChar

StartChar: uniA7AA
Encoding: 42922 42922 116
Width: 786
GlyphClass: 2
Flags: W
AnchorPoint: "Anchor-18" 467 346 basechar 0
AnchorPoint: "Anchor-17" 0 0 basechar 0
AnchorPoint: "Anchor-16" 516 692 basechar 0
AnchorPoint: "Anchor-15" 0 0 basechar 0
AnchorPoint: "Anchor-14" 423 0 basechar 0
LayerCount: 2
Fore
SplineSet
773 692 m 1,0,-1
 676 0 l 1,1,-1
 531 0 l 1,2,-1
 573 303 l 1,3,-1
 349 303 l 1,4,-1
 306 0 l 1,5,-1
 161 0 l 1,6,-1
 243 585 l 1,7,-1
 217 585 l 2,8,9
 161 585 161 585 161 524 c 0,10,11
 161 504 161 504 169 474 c 1,12,-1
 70 434 l 1,13,14
 58 459 58 459 51 481.5 c 128,-1,15
 44 504 44 504 44 530 c 0,16,17
 44 604 44 604 94 648 c 128,-1,18
 144 692 144 692 230 692 c 2,19,-1
 404 692 l 1,20,-1
 365 419 l 1,21,-1
 589 419 l 1,22,-1
 628 692 l 1,23,-1
 773 692 l 1,0,-1
EndSplineSet
Substitution2: "'c2sc' Capitals to Small Capitals lookup 27 subtable" uniA7AA.sc
Substitution2: "'aalt' Access All Alternates lookup 0 subtable" uniA7AA.sc
Position2: "'cpsp' Capital Spacing lookup 0 subtable" dx=5 dy=0 dh=10 dv=0
EndChar

StartChar: uni01F6
Encoding: 502 502 118
Width: 940
GlyphClass: 2
Flags: W
AnchorPoint: "Anchor-18" 0 0 basechar 0
AnchorPoint: "Anchor-17" 0 0 basechar 0
AnchorPoint: "Anchor-16" 530 692 basechar 0
AnchorPoint: "Anchor-15" 0 0 basechar 0
AnchorPoint: "Anchor-14" 433 0 basechar 0
LayerCount: 2
Fore
SplineSet
475 30.5 m 128,-1,1
 428 77 428 77 428 147 c 0,2,3
 428 157 428 157 430 175 c 2,4,-1
 447 303 l 1,5,-1
 223 303 l 1,6,-1
 181 0 l 1,7,-1
 35 0 l 1,8,-1
 132 692 l 1,9,-1
 278 692 l 1,10,-1
 239 419 l 1,11,-1
 464 419 l 1,12,-1
 502 692 l 1,13,-1
 648 692 l 1,14,-1
 576 178 l 2,15,16
 574 160 574 160 574 152 c 0,17,18
 574 91 574 91 627 91 c 0,19,20
 707 91 707 91 737 195 c 128,-1,21
 767 299 767 299 767 433 c 0,22,23
 767 490 767 490 762 530 c 1,24,-1
 895 530 l 1,25,26
 903 471 903 471 903 411 c 0,27,28
 903 213 903 213 839.5 98.5 c 128,-1,29
 776 -16 776 -16 615 -16 c 0,30,0
 522 -16 522 -16 475 30.5 c 128,-1,1
EndSplineSet
Substitution2: "'c2sc' Capitals to Small Capitals lookup 27 subtable" uni01F6.sc
Substitution2: "'aalt' Access All Alternates lookup 0 subtable" uni01F6.sc
Position2: "'cpsp' Capital Spacing lookup 0 subtable" dx=5 dy=0 dh=10 dv=0
EndChar

StartChar: I
Encoding: 73 73 119
Width: 291
GlyphClass: 2
Flags: W
AnchorPoint: "Anchor-18" 0 0 basechar 0
AnchorPoint: "Anchor-17" 0 0 basechar 0
AnchorPoint: "Anchor-16" 205 692 basechar 0
AnchorPoint: "Anchor-15" 158 0 basechar 0
AnchorPoint: "Anchor-14" 108 0 basechar 0
LayerCount: 2
Fore
SplineSet
278 692 m 1,0,-1
 181 0 l 1,1,-1
 35 0 l 1,2,-1
 132 692 l 1,3,-1
 278 692 l 1,0,-1
EndSplineSet
Substitution2: "'c2sc' Capitals to Small Capitals lookup 27 subtable" i.sc
Substitution2: "'aalt' Access All Alternates lookup 0 subtable" i.sc
Position2: "'cpsp' Capital Spacing lookup 0 subtable" dx=5 dy=0 dh=10 dv=0
EndChar

StartChar: Iogonek
Encoding: 302 302 134
Width: 291
GlyphClass: 2
Flags: W
AnchorPoint: "Anchor-18" 0 0 basechar 0
AnchorPoint: "Anchor-17" 0 0 basechar 0
AnchorPoint: "Anchor-16" 205 692 basechar 0
AnchorPoint: "Anchor-15" 158 0 basechar 0
AnchorPoint: "Anchor-14" 108 0 basechar 0
LayerCount: 2
Fore
SplineSet
278 692 m 1,0,-1
 181 0 l 1,1,-1
 150 0 l 1,2,3
 15 -50 15 -50 15 -116 c 0,4,5
 15 -151 15 -151 60 -151 c 0,6,7
 85 -151 85 -151 122 -143 c 1,8,-1
 102 -235 l 1,9,10
 65 -242 65 -242 35 -242 c 0,11,12
 -22 -242 -22 -242 -57 -214 c 128,-1,13
 -92 -186 -92 -186 -92 -140 c 0,14,15
 -92 -43 -92 -43 37 15 c 1,16,-1
 132 692 l 1,17,-1
 278 692 l 1,0,-1
EndSplineSet
Substitution2: "'c2sc' Capitals to Small Capitals lookup 27 subtable" iogonek.sc
Substitution2: "'aalt' Access All Alternates lookup 0 subtable" iogonek.sc
Position2: "'cpsp' Capital Spacing lookup 0 subtable" dx=5 dy=0 dh=10 dv=0
EndChar

StartChar: uni0196
Encoding: 406 406 135
Width: 374
GlyphClass: 2
Flags: W
AnchorPoint: "Anchor-18" 0 0 basechar 0
AnchorPoint: "Anchor-17" 0 0 basechar 0
AnchorPoint: "Anchor-16" 196 692 basechar 0
AnchorPoint: "Anchor-15" 0 0 basechar 0
AnchorPoint: "Anchor-14" 148 0 basechar 0
LayerCount: 2
Fore
SplineSet
348 24 m 1,0,1
 288 -16 288 -16 212 -16 c 0,2,3
 134 -16 134 -16 89.5 22 c 128,-1,4
 45 60 45 60 45 132 c 0,5,6
 45 149 45 149 48 168 c 2,7,-1
 53 204 l 1,8,-1
 54 204 l 1,9,-1
 123 692 l 1,10,-1
 269 692 l 1,11,-1
 199 204 l 1,12,-1
 192 155 l 2,13,14
 191 149 191 149 191 138 c 0,15,16
 191 93 191 93 235 93 c 0,17,18
 257 93 257 93 272 98 c 128,-1,19
 287 103 287 103 309 114 c 1,20,-1
 348 24 l 1,0,1
EndSplineSet
Substitution2: "'c2sc' Capitals to Small Capitals lookup 27 subtable" uni0196.sc
Substitution2: "'aalt' Access All Alternates lookup 0 subtable" uni0196.sc
Position2: "'cpsp' Capital Spacing lookup 0 subtable" dx=5 dy=0 dh=10 dv=0
EndChar

StartChar: uni0197
Encoding: 407 407 136
Width: 326
GlyphClass: 2
Flags: W
AnchorPoint: "Anchor-18" 0 0 basechar 0
AnchorPoint: "Anchor-17" 0 0 basechar 0
AnchorPoint: "Anchor-16" 224 692 basechar 0
AnchorPoint: "Anchor-15" 177 0 basechar 0
AnchorPoint: "Anchor-14" 127 0 basechar 0
LayerCount: 2
Fore
SplineSet
337 414 m 1,0,-1
 322 305 l 1,1,-1
 243 305 l 1,2,-1
 200 0 l 1,3,-1
 54 0 l 1,4,-1
 97 305 l 1,5,-1
 16 305 l 1,6,-1
 31 414 l 1,7,-1
 112 414 l 1,8,-1
 151 692 l 1,9,-1
 297 692 l 1,10,-1
 258 414 l 1,11,-1
 337 414 l 1,0,-1
EndSplineSet
Substitution2: "'c2sc' Capitals to Small Capitals lookup 27 subtable" uni0268.sc
Substitution2: "'aalt' Access All Alternates lookup 0 subtable" uni0268.sc
Position2: "'cpsp' Capital Spacing lookup 0 subtable" dx=5 dy=0 dh=10 dv=0
EndChar

StartChar: J
Encoding: 74 74 138
Width: 308
GlyphClass: 2
Flags: W
AnchorPoint: "Anchor-18" 0 0 basechar 0
AnchorPoint: "Anchor-17" 0 0 basechar 0
AnchorPoint: "Anchor-16" 226 692 basechar 0
AnchorPoint: "Anchor-15" 0 0 basechar 0
AnchorPoint: "Anchor-14" 0 0 basechar 0
LayerCount: 2
Fore
SplineSet
216 101 m 2,0,1
 205 21 205 21 170.5 -30.5 c 128,-1,2
 136 -82 136 -82 87 -111.5 c 128,-1,3
 38 -141 38 -141 -29 -162 c 1,4,-1
 -56 -56 l 1,5,6
 -10 -39 -10 -39 15.5 -16.5 c 128,-1,7
 41 6 41 6 53 35.5 c 128,-1,8
 65 65 65 65 71 111 c 2,9,-1
 153 692 l 1,10,-1
 299 692 l 1,11,-1
 216 101 l 2,0,1
EndSplineSet
Substitution2: "'c2sc' Capitals to Small Capitals lookup 27 subtable" j.sc
Substitution2: "'aalt' Access All Alternates lookup 0 subtable" j.sc
Position2: "'cpsp' Capital Spacing lookup 0 subtable" dx=5 dy=0 dh=10 dv=0
EndChar

StartChar: uniA7B2
Encoding: 42930 42930 140
Width: 349
GlyphClass: 2
Flags: W
AnchorPoint: "Anchor-18" 0 0 basechar 0
AnchorPoint: "Anchor-17" 0 0 basechar 0
AnchorPoint: "Anchor-16" 264 692 basechar 0
AnchorPoint: "Anchor-15" 0 0 basechar 0
AnchorPoint: "Anchor-14" 0 0 basechar 0
LayerCount: 2
Fore
SplineSet
238 -8 m 1,0,1
 292 -23 292 -23 337 -48 c 1,2,-1
 304 -108 l 1,3,4
 266 -91 266 -91 221 -79 c 1,5,6
 198 -151 198 -151 146.5 -185.5 c 128,-1,7
 95 -220 95 -220 9 -220 c 0,8,9
 -58 -220 -58 -220 -95 -190.5 c 128,-1,10
 -132 -161 -132 -161 -132 -108 c 0,11,12
 -132 -48 -132 -48 -85 -14 c 128,-1,13
 -38 20 -38 20 34 20 c 0,14,15
 71 20 71 20 97 18 c 1,16,-1
 191 692 l 1,17,-1
 337 692 l 1,18,-1
 240 4 l 1,19,-1
 238 -8 l 1,0,1
60 -122 m 128,-1,21
 78 -102 78 -102 87 -54 c 1,22,23
 59 -52 59 -52 32 -52 c 0,24,25
 -2 -52 -2 -52 -20 -66.5 c 128,-1,26
 -38 -81 -38 -81 -38 -104 c 0,27,28
 -38 -122 -38 -122 -27 -132 c 128,-1,29
 -16 -142 -16 -142 6 -142 c 0,30,20
 42 -142 42 -142 60 -122 c 128,-1,21
EndSplineSet
Substitution2: "'c2sc' Capitals to Small Capitals lookup 27 subtable" uniA7B2.sc
Substitution2: "'aalt' Access All Alternates lookup 0 subtable" uniA7B2.sc
Position2: "'cpsp' Capital Spacing lookup 0 subtable" dx=5 dy=0 dh=10 dv=0
EndChar

StartChar: uni0248
Encoding: 584 584 141
Width: 325
GlyphClass: 2
Flags: W
AnchorPoint: "Anchor-18" 0 0 basechar 0
AnchorPoint: "Anchor-17" 0 0 basechar 0
AnchorPoint: "Anchor-16" 228 692 basechar 0
AnchorPoint: "Anchor-15" 0 0 basechar 0
AnchorPoint: "Anchor-14" 0 0 basechar 0
LayerCount: 2
Fore
SplineSet
324 287 m 1,0,-1
 244 287 l 1,1,-1
 218 101 l 2,2,3
 207 21 207 21 172.5 -30.5 c 128,-1,4
 138 -82 138 -82 89 -111.5 c 128,-1,5
 40 -141 40 -141 -27 -162 c 1,6,-1
 -54 -56 l 1,7,8
 -8 -39 -8 -39 17.5 -16.5 c 128,-1,9
 43 6 43 6 55 35.5 c 128,-1,10
 67 65 67 65 73 111 c 2,11,-1
 98 287 l 1,12,-1
 18 287 l 1,13,-1
 33 399 l 1,14,-1
 114 399 l 1,15,-1
 155 692 l 1,16,-1
 301 692 l 1,17,-1
 260 399 l 1,18,-1
 339 399 l 1,19,-1
 324 287 l 1,0,-1
EndSplineSet
Substitution2: "'c2sc' Capitals to Small Capitals lookup 27 subtable" uni0249.sc
Substitution2: "'aalt' Access All Alternates lookup 0 subtable" uni0249.sc
Position2: "'cpsp' Capital Spacing lookup 0 subtable" dx=5 dy=0 dh=10 dv=0
EndChar

StartChar: K
Encoding: 75 75 142
Width: 613
GlyphClass: 2
Flags: W
AnchorPoint: "Anchor-18" 0 0 basechar 0
AnchorPoint: "Anchor-17" 0 0 basechar 0
AnchorPoint: "Anchor-16" 385 692 basechar 0
AnchorPoint: "Anchor-15" 0 0 basechar 0
AnchorPoint: "Anchor-14" 281 0 basechar 0
LayerCount: 2
Fore
SplineSet
35 0 m 1,0,-1
 132 692 l 1,1,-1
 278 692 l 1,2,-1
 181 0 l 1,3,-1
 35 0 l 1,0,-1
419 0 m 1,4,-1
 238 369 l 1,5,-1
 507 692 l 1,6,-1
 665 692 l 1,7,-1
 391 371 l 1,8,-1
 586 0 l 1,9,-1
 419 0 l 1,4,-1
EndSplineSet
Substitution2: "'c2sc' Capitals to Small Capitals lookup 27 subtable" k.sc
Substitution2: "'aalt' Access All Alternates lookup 0 subtable" k.sc
Position2: "'cpsp' Capital Spacing lookup 0 subtable" dx=5 dy=0 dh=10 dv=0
EndChar

StartChar: uni0198
Encoding: 408 408 145
Width: 641
GlyphClass: 2
Flags: W
AnchorPoint: "Anchor-18" 0 0 basechar 0
AnchorPoint: "Anchor-17" 0 0 basechar 0
AnchorPoint: "Anchor-16" 380 692 basechar 0
AnchorPoint: "Anchor-15" 0 0 basechar 0
AnchorPoint: "Anchor-14" 283 0 basechar 0
LayerCount: 2
Fore
SplineSet
238 369 m 1,0,-1
 421 602 l 2,1,2
 466 661 466 661 504 684.5 c 128,-1,3
 542 708 542 708 597 708 c 0,4,5
 634 708 634 708 659 697.5 c 128,-1,6
 684 687 684 687 707 667 c 1,7,-1
 652 586 l 1,8,9
 640 594 640 594 631 597 c 128,-1,10
 622 600 622 600 609 600 c 0,11,12
 589 600 589 600 573.5 589 c 128,-1,13
 558 578 558 578 531 545 c 2,14,-1
 392 372 l 1,15,-1
 586 0 l 1,16,-1
 418 0 l 1,17,-1
 238 369 l 1,0,-1
35 0 m 1,18,-1
 132 692 l 1,19,-1
 278 692 l 1,20,-1
 181 0 l 1,21,-1
 35 0 l 1,18,-1
EndSplineSet
Substitution2: "'c2sc' Capitals to Small Capitals lookup 27 subtable" uni0199.sc
Substitution2: "'aalt' Access All Alternates lookup 0 subtable" uni0199.sc
Position2: "'cpsp' Capital Spacing lookup 0 subtable" dx=5 dy=0 dh=10 dv=0
EndChar

StartChar: L
Encoding: 76 76 146
Width: 502
GlyphClass: 2
Flags: W
AnchorPoint: "Anchor-18" 409 397 basechar 0
AnchorPoint: "Anchor-17" 300 692 basechar 0
AnchorPoint: "Anchor-16" 205 692 basechar 0
AnchorPoint: "Anchor-15" 0 0 basechar 0
AnchorPoint: "Anchor-14" 235 0 basechar 0
LayerCount: 2
Fore
SplineSet
278 692 m 1,0,-1
 197 119 l 1,1,-1
 467 119 l 1,2,-1
 435 0 l 1,3,-1
 35 0 l 1,4,-1
 132 692 l 1,5,-1
 278 692 l 1,0,-1
EndSplineSet
Substitution2: "'c2sc' Capitals to Small Capitals lookup 27 subtable" l.sc
Substitution2: "'aalt' Access All Alternates lookup 0 subtable" l.sc
Position2: "'cpsp' Capital Spacing lookup 0 subtable" dx=5 dy=0 dh=10 dv=0
EndChar

StartChar: uni023D
Encoding: 573 573 149
Width: 517
GlyphClass: 2
Flags: W
AnchorPoint: "Anchor-18" 424 397 basechar 0
AnchorPoint: "Anchor-17" 315 692 basechar 0
AnchorPoint: "Anchor-16" 220 692 basechar 0
AnchorPoint: "Anchor-15" 0 0 basechar 0
AnchorPoint: "Anchor-14" 250 0 basechar 0
LayerCount: 2
Fore
SplineSet
212 119 m 1,0,-1
 482 119 l 1,1,-1
 450 0 l 1,2,-1
 50 0 l 1,3,-1
 93 307 l 1,4,-1
 16 307 l 1,5,-1
 31 419 l 1,6,-1
 109 419 l 1,7,-1
 147 692 l 1,8,-1
 293 692 l 1,9,-1
 254 419 l 1,10,-1
 337 419 l 1,11,-1
 322 307 l 1,12,-1
 239 307 l 1,13,-1
 212 119 l 1,0,-1
EndSplineSet
Substitution2: "'c2sc' Capitals to Small Capitals lookup 27 subtable" uni019A.sc
Substitution2: "'aalt' Access All Alternates lookup 0 subtable" uni019A.sc
Position2: "'cpsp' Capital Spacing lookup 0 subtable" dx=5 dy=0 dh=10 dv=0
EndChar

StartChar: uniA7AD
Encoding: 42925 42925 150
Width: 595
GlyphClass: 2
Flags: W
AnchorPoint: "Anchor-18" 501 397 basechar 0
AnchorPoint: "Anchor-17" 392 692 basechar 0
AnchorPoint: "Anchor-16" 297 692 basechar 0
AnchorPoint: "Anchor-15" 0 0 basechar 0
AnchorPoint: "Anchor-14" 327 0 basechar 0
LayerCount: 2
Fore
SplineSet
559 119 m 1,0,-1
 527 0 l 1,1,-1
 127 0 l 1,2,-1
 163 254 l 1,3,4
 92 256 92 256 55.5 287 c 128,-1,5
 19 318 19 318 19 371 c 0,6,7
 19 427 19 427 58 461 c 128,-1,8
 97 495 97 495 158 495 c 0,9,10
 179 495 179 495 196 490 c 1,11,-1
 224 692 l 1,12,-1
 370 692 l 1,13,-1
 320 341 l 1,14,15
 359 342 359 342 391.5 346 c 128,-1,16
 424 350 424 350 431 351 c 1,17,-1
 433 271 l 1,18,19
 365 259 365 259 309 257 c 1,20,-1
 289 119 l 1,21,-1
 559 119 l 1,0,-1
175 339 m 1,23,-1
 185 414 l 1,24,25
 174 417 174 417 161 417 c 0,26,27
 142 417 142 417 130.5 406 c 128,-1,28
 119 395 119 395 119 376 c 0,29,22
 119 339 119 339 175 339 c 1,23,-1
EndSplineSet
Substitution2: "'c2sc' Capitals to Small Capitals lookup 27 subtable" uniA7AD.sc
Substitution2: "'aalt' Access All Alternates lookup 0 subtable" uniA7AD.sc
Position2: "'cpsp' Capital Spacing lookup 0 subtable" dx=5 dy=0 dh=10 dv=0
EndChar

StartChar: Lslash
Encoding: 321 321 157
Width: 531
GlyphClass: 2
Flags: W
AnchorPoint: "Anchor-18" 437 397 basechar 0
AnchorPoint: "Anchor-17" 328 692 basechar 0
AnchorPoint: "Anchor-16" 233 692 basechar 0
AnchorPoint: "Anchor-15" 0 0 basechar 0
AnchorPoint: "Anchor-14" 263 0 basechar 0
LayerCount: 2
Fore
SplineSet
225 119 m 1,0,-1
 495 119 l 1,1,-1
 463 0 l 1,2,-1
 63 0 l 1,3,-1
 95 231 l 1,4,-1
 50 204 l 1,5,-1
 12 284 l 1,6,-1
 111 341 l 1,7,-1
 160 692 l 1,8,-1
 306 692 l 1,9,-1
 269 433 l 1,10,-1
 416 518 l 1,11,-1
 455 438 l 1,12,-1
 254 322 l 1,13,-1
 225 119 l 1,0,-1
EndSplineSet
Substitution2: "'c2sc' Capitals to Small Capitals lookup 27 subtable" lslash.sc
Substitution2: "'aalt' Access All Alternates lookup 0 subtable" lslash.sc
Position2: "'cpsp' Capital Spacing lookup 0 subtable" dx=5 dy=0 dh=10 dv=0
EndChar

StartChar: M
Encoding: 77 77 158
Width: 774
GlyphClass: 2
Flags: W
AnchorPoint: "Anchor-18" 0 0 basechar 0
AnchorPoint: "Anchor-17" 0 0 basechar 0
AnchorPoint: "Anchor-16" 440 692 basechar 0
AnchorPoint: "Anchor-15" 0 0 basechar 0
AnchorPoint: "Anchor-14" 354 0 basechar 0
LayerCount: 2
Fore
SplineSet
697 0 m 1,0,-1
 555 0 l 1,1,-1
 579 283 l 2,2,3
 592 443 592 443 613 572 c 1,4,-1
 429 74 l 1,5,-1
 290 74 l 1,6,-1
 235 571 l 1,7,8
 229 445 229 445 196 275 c 2,9,-1
 144 0 l 1,10,-1
 2 0 l 1,11,-1
 152 692 l 1,12,-1
 331 692 l 1,13,-1
 378 207 l 1,14,-1
 550 692 l 1,15,-1
 741 692 l 1,16,-1
 697 0 l 1,0,-1
EndSplineSet
Substitution2: "'c2sc' Capitals to Small Capitals lookup 27 subtable" m.sc
Substitution2: "'aalt' Access All Alternates lookup 0 subtable" m.sc
Position2: "'cpsp' Capital Spacing lookup 0 subtable" dx=5 dy=0 dh=10 dv=0
EndChar

StartChar: uni019C
Encoding: 412 412 161
Width: 907
GlyphClass: 2
Flags: W
AnchorPoint: "Anchor-18" 0 0 basechar 0
AnchorPoint: "Anchor-17" 0 0 basechar 0
AnchorPoint: "Anchor-16" 513 692 basechar 0
AnchorPoint: "Anchor-15" 0 0 basechar 0
AnchorPoint: "Anchor-14" 416 0 basechar 0
LayerCount: 2
Fore
SplineSet
894 692 m 1,0,-1
 797 0 l 1,1,-1
 670 0 l 1,2,-1
 669 69 l 1,3,4
 629 24 629 24 589.5 4 c 128,-1,5
 550 -16 550 -16 504 -16 c 0,6,7
 453 -16 453 -16 419 8.5 c 128,-1,8
 385 33 385 33 371 77 c 1,9,10
 329 28 329 28 285 6 c 128,-1,11
 241 -16 241 -16 191 -16 c 0,12,13
 122 -16 122 -16 85 26.5 c 128,-1,14
 48 69 48 69 48 141 c 0,15,16
 48 161 48 161 51 182 c 2,17,-1
 122 692 l 1,18,-1
 268 692 l 1,19,-1
 196 184 l 2,20,21
 194 168 194 168 194 161 c 0,22,23
 194 129 194 129 207.5 112.5 c 128,-1,24
 221 96 221 96 246 96 c 0,25,26
 277 96 277 96 304 113.5 c 128,-1,27
 331 131 331 131 363 170 c 1,28,29
 363 178 363 178 364 182 c 2,30,-1
 435 692 l 1,31,-1
 581 692 l 1,32,-1
 510 184 l 2,33,34
 508 166 508 166 508 159 c 0,35,36
 508 129 508 129 521 112.5 c 128,-1,37
 534 96 534 96 559 96 c 0,38,39
 590 96 590 96 617 113.5 c 128,-1,40
 644 131 644 131 676 170 c 1,41,-1
 749 692 l 1,42,-1
 894 692 l 1,0,-1
EndSplineSet
Substitution2: "'c2sc' Capitals to Small Capitals lookup 27 subtable" uni026F.sc
Substitution2: "'aalt' Access All Alternates lookup 0 subtable" uni026F.sc
Position2: "'cpsp' Capital Spacing lookup 0 subtable" dx=5 dy=0 dh=10 dv=0
EndChar

StartChar: N
Encoding: 78 78 162
Width: 659
GlyphClass: 2
Flags: W
AnchorPoint: "Anchor-18" 0 0 basechar 0
AnchorPoint: "Anchor-17" 0 0 basechar 0
AnchorPoint: "Anchor-16" 396 692 basechar 0
AnchorPoint: "Anchor-15" 0 0 basechar 0
AnchorPoint: "Anchor-14" 293 0 basechar 0
LayerCount: 2
Fore
SplineSet
550 0 m 1,0,-1
 364 0 l 1,1,-1
 221 569 l 1,2,-1
 221 528 l 2,3,4
 221 396 221 396 203 262 c 2,5,-1
 166 0 l 1,6,-1
 35 0 l 1,7,-1
 132 692 l 1,8,-1
 316 692 l 1,9,-1
 462 123 l 1,10,11
 460 181 460 181 460 206 c 0,12,13
 460 291 460 291 474 396 c 2,14,-1
 516 692 l 1,15,-1
 647 692 l 1,16,-1
 550 0 l 1,0,-1
EndSplineSet
Substitution2: "'c2sc' Capitals to Small Capitals lookup 27 subtable" n.sc
Substitution2: "'aalt' Access All Alternates lookup 0 subtable" n.sc
Position2: "'cpsp' Capital Spacing lookup 0 subtable" dx=5 dy=0 dh=10 dv=0
EndChar

StartChar: Eng
Encoding: 330 330 171
Width: 659
GlyphClass: 2
Flags: W
AnchorPoint: "Anchor-18" 0 0 basechar 0
AnchorPoint: "Anchor-17" 0 0 basechar 0
AnchorPoint: "Anchor-16" 396 692 basechar 0
AnchorPoint: "Anchor-15" 0 0 basechar 0
AnchorPoint: "Anchor-14" 293 0 basechar 0
LayerCount: 2
Fore
SplineSet
647 692 m 1,0,-1
 550 0 l 1,1,-1
 544 -40 l 2,2,3
 530 -129 530 -129 475.5 -174.5 c 128,-1,4
 421 -220 421 -220 336 -220 c 0,5,6
 259 -220 259 -220 206 -177 c 1,7,-1
 265 -90 l 1,8,9
 283 -101 283 -101 297 -106 c 128,-1,10
 311 -111 311 -111 330 -111 c 0,11,12
 388 -111 388 -111 398 -45 c 2,13,-1
 404 0 l 1,14,-1
 364 0 l 1,15,-1
 221 569 l 1,16,-1
 221 528 l 2,17,18
 221 396 221 396 203 262 c 2,19,-1
 166 0 l 1,20,-1
 35 0 l 1,21,-1
 132 692 l 1,22,-1
 316 692 l 1,23,-1
 462 123 l 1,24,25
 460 181 460 181 460 206 c 0,26,27
 460 291 460 291 474 396 c 2,28,-1
 516 692 l 1,29,-1
 647 692 l 1,0,-1
EndSplineSet
Substitution2: "'ss01' Style Set 1 lookup 34 subtable" Eng.ss01
Substitution2: "'salt' Stylistic Alternatives lookup 33 subtable" Eng.ss01
Substitution2: "'c2sc' Capitals to Small Capitals lookup 27 subtable" eng.sc
AlternateSubs2: "'aalt' Access All Alternates lookup 1 subtable" eng.sc Eng.ss01
Position2: "'cpsp' Capital Spacing lookup 0 subtable" dx=5 dy=0 dh=10 dv=0
EndChar

StartChar: uni019D
Encoding: 413 413 172
Width: 659
GlyphClass: 2
Flags: W
AnchorPoint: "Anchor-18" 0 0 basechar 0
AnchorPoint: "Anchor-17" 0 0 basechar 0
AnchorPoint: "Anchor-16" 396 692 basechar 0
AnchorPoint: "Anchor-15" 0 0 basechar 0
AnchorPoint: "Anchor-14" 293 0 basechar 0
LayerCount: 2
Fore
SplineSet
647 692 m 1,0,-1
 550 0 l 1,1,-1
 364 0 l 1,2,-1
 221 569 l 1,3,-1
 221 528 l 2,4,5
 221 396 221 396 203 262 c 2,6,-1
 166 0 l 1,7,-1
 160 -40 l 2,8,9
 147 -130 147 -130 97 -175 c 128,-1,10
 47 -220 47 -220 -33 -220 c 0,11,12
 -110 -220 -110 -220 -163 -177 c 1,13,-1
 -104 -95 l 1,14,15
 -87 -106 -87 -106 -73 -110.5 c 128,-1,16
 -59 -115 -59 -115 -39 -115 c 0,17,18
 20 -115 20 -115 29 -45 c 2,19,-1
 35 0 l 1,20,-1
 132 692 l 1,21,-1
 316 692 l 1,22,-1
 462 123 l 1,23,24
 460 181 460 181 460 206 c 0,25,26
 460 291 460 291 474 396 c 2,27,-1
 516 692 l 1,28,-1
 647 692 l 1,0,-1
EndSplineSet
Substitution2: "'ss01' Style Set 1 lookup 34 subtable" uni019D.ss01
Substitution2: "'salt' Stylistic Alternatives lookup 33 subtable" uni019D.ss01
Substitution2: "'c2sc' Capitals to Small Capitals lookup 27 subtable" uni0272.sc
AlternateSubs2: "'aalt' Access All Alternates lookup 1 subtable" uni0272.sc uni019D.ss01
Position2: "'cpsp' Capital Spacing lookup 0 subtable" dx=5 dy=0 dh=10 dv=0
EndChar

StartChar: uni0220
Encoding: 544 544 174
Width: 647
GlyphClass: 2
Flags: W
AnchorPoint: "Anchor-18" 0 0 basechar 0
AnchorPoint: "Anchor-17" 0 0 basechar 0
AnchorPoint: "Anchor-16" 389 692 basechar 0
AnchorPoint: "Anchor-15" 0 0 basechar 0
AnchorPoint: "Anchor-14" 0 0 basechar 0
LayerCount: 2
Fore
SplineSet
577.5 665 m 128,-1,1
 619 622 619 622 619 550 c 0,2,3
 619 532 619 532 616 514 c 2,4,-1
 516 -208 l 1,5,-1
 371 -208 l 1,6,-1
 469 498 l 2,7,8
 471 520 471 520 471 528 c 0,9,10
 471 563 471 563 455 579.5 c 128,-1,11
 439 596 439 596 405 596 c 0,12,13
 365 596 365 596 331.5 578 c 128,-1,14
 298 560 298 560 254 522 c 1,15,-1
 180 0 l 1,16,-1
 35 0 l 1,17,-1
 132 692 l 1,18,-1
 259 692 l 1,19,-1
 261 626 l 1,20,21
 308 668 308 668 354 688 c 128,-1,22
 400 708 400 708 457 708 c 0,23,0
 536 708 536 708 577.5 665 c 128,-1,1
EndSplineSet
Substitution2: "'c2sc' Capitals to Small Capitals lookup 27 subtable" uni0220.sc
Substitution2: "'aalt' Access All Alternates lookup 0 subtable" uni0220.sc
Position2: "'cpsp' Capital Spacing lookup 0 subtable" dx=5 dy=0 dh=10 dv=0
EndChar

StartChar: O
Encoding: 79 79 176
Width: 682
GlyphClass: 2
Flags: W
AnchorPoint: "Anchor-18" 0 0 basechar 0
AnchorPoint: "Anchor-17" 623 692 basechar 0
AnchorPoint: "Anchor-16" 403 692 basechar 0
AnchorPoint: "Anchor-15" 420 0 basechar 0
AnchorPoint: "Anchor-14" 303 0 basechar 0
LayerCount: 2
Fore
SplineSet
592.5 634 m 128,-1,1
 661 560 661 560 661 425 c 0,2,3
 661 321 661 321 626 220.5 c 128,-1,4
 591 120 591 120 511 52 c 128,-1,5
 431 -16 431 -16 305 -16 c 0,6,7
 181 -16 181 -16 112.5 58 c 128,-1,8
 44 132 44 132 44 266 c 0,9,10
 44 369 44 369 79 470 c 128,-1,11
 114 571 114 571 194.5 639.5 c 128,-1,12
 275 708 275 708 401 708 c 0,13,0
 524 708 524 708 592.5 634 c 128,-1,1
274 542 m 128,-1,15
 230 486 230 486 212 408 c 128,-1,16
 194 330 194 330 194 257 c 0,17,18
 194 172 194 172 224.5 133.5 c 128,-1,19
 255 95 255 95 314 95 c 0,20,21
 388 95 388 95 432 151 c 128,-1,22
 476 207 476 207 493.5 285 c 128,-1,23
 511 363 511 363 511 437 c 0,24,25
 511 521 511 521 481 559.5 c 128,-1,26
 451 598 451 598 391 598 c 0,27,14
 318 598 318 598 274 542 c 128,-1,15
EndSplineSet
Substitution2: "Single Substitution lookup 44 subtable" ordmasculine
Substitution2: "'c2sc' Capitals to Small Capitals lookup 27 subtable" o.sc
AlternateSubs2: "'aalt' Access All Alternates lookup 1 subtable" ordmasculine o.sc
Position2: "'cpsp' Capital Spacing lookup 0 subtable" dx=5 dy=0 dh=10 dv=0
EndChar

StartChar: uni0222
Encoding: 546 546 177
Width: 641
GlyphClass: 2
Flags: W
AnchorPoint: "Anchor-18" 0 0 basechar 0
AnchorPoint: "Anchor-17" 0 0 basechar 0
AnchorPoint: "Anchor-16" 381 692 basechar 0
AnchorPoint: "Anchor-15" 0 0 basechar 0
AnchorPoint: "Anchor-14" 283 0 basechar 0
LayerCount: 2
Fore
SplineSet
487 392 m 1,1,2
 541 371 541 371 569.5 332.5 c 128,-1,3
 598 294 598 294 598 239 c 0,4,5
 598 167 598 167 559 109 c 128,-1,6
 520 51 520 51 449 17.5 c 128,-1,7
 378 -16 378 -16 286 -16 c 0,8,9
 205 -16 205 -16 147 11 c 128,-1,10
 89 38 89 38 59 84 c 128,-1,11
 29 130 29 130 29 188 c 0,12,13
 29 262 29 262 72 314.5 c 128,-1,14
 115 367 115 367 191 393 c 1,15,16
 117 432 117 432 117 519 c 0,17,18
 117 528 117 528 119 550 c 2,19,-1
 139 692 l 1,20,-1
 284 692 l 1,21,-1
 263 542 l 2,22,23
 260 526 260 526 260 512 c 0,24,25
 260 476 260 476 280 458.5 c 128,-1,26
 300 441 300 441 343 441 c 0,27,28
 444 441 444 441 458 546 c 2,29,-1
 479 692 l 1,30,-1
 625 692 l 1,31,-1
 604 546 l 2,32,0
 588 437 588 437 487 392 c 1,1,2
406 133.5 m 128,-1,34
 447 172 447 172 447 237 c 0,35,36
 447 283 447 283 418.5 308.5 c 128,-1,37
 390 334 390 334 333 334 c 0,38,39
 264 334 264 334 222.5 295 c 128,-1,40
 181 256 181 256 181 192 c 0,41,42
 181 145 181 145 209.5 120 c 128,-1,43
 238 95 238 95 294 95 c 0,44,33
 365 95 365 95 406 133.5 c 128,-1,34
EndSplineSet
Substitution2: "'c2sc' Capitals to Small Capitals lookup 27 subtable" uni0223.sc
Substitution2: "'aalt' Access All Alternates lookup 0 subtable" uni0223.sc
Position2: "'cpsp' Capital Spacing lookup 0 subtable" dx=5 dy=0 dh=10 dv=0
EndChar

StartChar: uni1ED0
Encoding: 7888 7888 183
Width: 682
GlyphClass: 2
Flags: W
AnchorPoint: "Anchor-18" 0 0 basechar 0
AnchorPoint: "Anchor-17" 515 783 basechar 0
AnchorPoint: "Anchor-16" 427 905 basechar 0
AnchorPoint: "Anchor-15" 420 0 basechar 0
AnchorPoint: "Anchor-14" 0 0 basechar 0
LayerCount: 2
Fore
SplineSet
665 1076 m 1,0,-1
 735 999 l 1,1,-1
 567 862 l 1,2,-1
 517 911 l 1,3,-1
 665 1076 l 1,0,-1
277 720 m 1,4,-1
 229 780 l 1,5,-1
 385 905 l 1,6,-1
 471 905 l 1,7,-1
 592 780 l 1,8,-1
 535 720 l 1,9,-1
 417 804 l 1,10,-1
 277 720 l 1,4,-1
592.5 634 m 128,-1,12
 661 560 661 560 661 425 c 0,13,14
 661 321 661 321 626 220.5 c 128,-1,15
 591 120 591 120 511 52 c 128,-1,16
 431 -16 431 -16 305 -16 c 0,17,18
 181 -16 181 -16 112.5 58 c 128,-1,19
 44 132 44 132 44 266 c 0,20,21
 44 369 44 369 79 470 c 128,-1,22
 114 571 114 571 194.5 639.5 c 128,-1,23
 275 708 275 708 401 708 c 0,24,11
 524 708 524 708 592.5 634 c 128,-1,12
274 542 m 128,-1,26
 230 486 230 486 212 408 c 128,-1,27
 194 330 194 330 194 257 c 0,28,29
 194 172 194 172 224.5 133.5 c 128,-1,30
 255 95 255 95 314 95 c 0,31,32
 388 95 388 95 432 151 c 128,-1,33
 476 207 476 207 493.5 285 c 128,-1,34
 511 363 511 363 511 437 c 0,35,36
 511 521 511 521 481 559.5 c 128,-1,37
 451 598 451 598 391 598 c 0,38,25
 318 598 318 598 274 542 c 128,-1,26
EndSplineSet
Substitution2: "'c2sc' Capitals to Small Capitals lookup 27 subtable" uni1ED1.sc
Substitution2: "'aalt' Access All Alternates lookup 0 subtable" uni1ED1.sc
Position2: "'cpsp' Capital Spacing lookup 0 subtable" dx=5 dy=0 dh=10 dv=0
EndChar

StartChar: uni1ED2
Encoding: 7890 7890 185
Width: 682
GlyphClass: 2
Flags: W
AnchorPoint: "Anchor-18" 0 0 basechar 0
AnchorPoint: "Anchor-17" 513 783 basechar 0
AnchorPoint: "Anchor-16" 425 905 basechar 0
AnchorPoint: "Anchor-15" 420 0 basechar 0
AnchorPoint: "Anchor-14" 0 0 basechar 0
LayerCount: 2
Fore
SplineSet
225 1073 m 1,0,-1
 329 907 l 1,1,-1
 272 862 l 1,2,-1
 140 1003 l 1,3,-1
 225 1073 l 1,0,-1
275 720 m 1,4,-1
 227 780 l 1,5,-1
 383 905 l 1,6,-1
 469 905 l 1,7,-1
 590 780 l 1,8,-1
 533 720 l 1,9,-1
 415 804 l 1,10,-1
 275 720 l 1,4,-1
592.5 634 m 128,-1,12
 661 560 661 560 661 425 c 0,13,14
 661 321 661 321 626 220.5 c 128,-1,15
 591 120 591 120 511 52 c 128,-1,16
 431 -16 431 -16 305 -16 c 0,17,18
 181 -16 181 -16 112.5 58 c 128,-1,19
 44 132 44 132 44 266 c 0,20,21
 44 369 44 369 79 470 c 128,-1,22
 114 571 114 571 194.5 639.5 c 128,-1,23
 275 708 275 708 401 708 c 0,24,11
 524 708 524 708 592.5 634 c 128,-1,12
274 542 m 128,-1,26
 230 486 230 486 212 408 c 128,-1,27
 194 330 194 330 194 257 c 0,28,29
 194 172 194 172 224.5 133.5 c 128,-1,30
 255 95 255 95 314 95 c 0,31,32
 388 95 388 95 432 151 c 128,-1,33
 476 207 476 207 493.5 285 c 128,-1,34
 511 363 511 363 511 437 c 0,35,36
 511 521 511 521 481 559.5 c 128,-1,37
 451 598 451 598 391 598 c 0,38,25
 318 598 318 598 274 542 c 128,-1,26
EndSplineSet
Substitution2: "'c2sc' Capitals to Small Capitals lookup 27 subtable" uni1ED3.sc
Substitution2: "'aalt' Access All Alternates lookup 0 subtable" uni1ED3.sc
Position2: "'cpsp' Capital Spacing lookup 0 subtable" dx=5 dy=0 dh=10 dv=0
EndChar

StartChar: uni1ED6
Encoding: 7894 7894 187
Width: 682
GlyphClass: 2
Flags: W
AnchorPoint: "Anchor-18" 0 0 basechar 0
AnchorPoint: "Anchor-17" 511 783 basechar 0
AnchorPoint: "Anchor-16" 443 1073 basechar 0
AnchorPoint: "Anchor-15" 420 0 basechar 0
AnchorPoint: "Anchor-14" 0 0 basechar 0
LayerCount: 2
Fore
SplineSet
459.5 938 m 128,-1,1
 446 944 446 944 423 957 c 0,2,3
 411 966 411 966 402.5 970 c 128,-1,4
 394 974 394 974 385 974 c 0,5,6
 367 974 367 974 354 963.5 c 128,-1,7
 341 953 341 953 325 931 c 1,8,-1
 257 968 l 1,9,10
 283 1015 283 1015 317.5 1044 c 128,-1,11
 352 1073 352 1073 391 1073 c 0,12,13
 412 1073 412 1073 427.5 1066 c 128,-1,14
 443 1059 443 1059 461 1046 c 0,15,16
 474 1037 474 1037 481.5 1033 c 128,-1,17
 489 1029 489 1029 498 1029 c 0,18,19
 514 1029 514 1029 527 1039 c 128,-1,20
 540 1049 540 1049 557 1072 c 1,21,-1
 625 1034 l 1,22,23
 599 987 599 987 564.5 959.5 c 128,-1,24
 530 932 530 932 493 932 c 0,25,0
 473 932 473 932 459.5 938 c 128,-1,1
273 720 m 1,26,-1
 225 780 l 1,27,-1
 381 905 l 1,28,-1
 467 905 l 1,29,-1
 588 780 l 1,30,-1
 531 720 l 1,31,-1
 413 804 l 1,32,-1
 273 720 l 1,26,-1
592.5 634 m 128,-1,34
 661 560 661 560 661 425 c 0,35,36
 661 321 661 321 626 220.5 c 128,-1,37
 591 120 591 120 511 52 c 128,-1,38
 431 -16 431 -16 305 -16 c 0,39,40
 181 -16 181 -16 112.5 58 c 128,-1,41
 44 132 44 132 44 266 c 0,42,43
 44 369 44 369 79 470 c 128,-1,44
 114 571 114 571 194.5 639.5 c 128,-1,45
 275 708 275 708 401 708 c 0,46,33
 524 708 524 708 592.5 634 c 128,-1,34
274 542 m 128,-1,48
 230 486 230 486 212 408 c 128,-1,49
 194 330 194 330 194 257 c 0,50,51
 194 172 194 172 224.5 133.5 c 128,-1,52
 255 95 255 95 314 95 c 0,53,54
 388 95 388 95 432 151 c 128,-1,55
 476 207 476 207 493.5 285 c 128,-1,56
 511 363 511 363 511 437 c 0,57,58
 511 521 511 521 481 559.5 c 128,-1,59
 451 598 451 598 391 598 c 0,60,47
 318 598 318 598 274 542 c 128,-1,48
EndSplineSet
Substitution2: "'c2sc' Capitals to Small Capitals lookup 27 subtable" uni1ED7.sc
Substitution2: "'aalt' Access All Alternates lookup 0 subtable" uni1ED7.sc
Position2: "'cpsp' Capital Spacing lookup 0 subtable" dx=5 dy=0 dh=10 dv=0
EndChar

StartChar: Ohorn
Encoding: 416 416 196
Width: 702
GlyphClass: 2
Flags: W
AnchorPoint: "Anchor-18" 0 0 basechar 0
AnchorPoint: "Anchor-17" 675 692 basechar 0
AnchorPoint: "Anchor-16" 403 692 basechar 0
AnchorPoint: "Anchor-15" 420 0 basechar 0
AnchorPoint: "Anchor-14" 303 0 basechar 0
LayerCount: 2
Fore
SplineSet
722 616 m 128,-1,1
 692 579 692 579 635 568 c 1,2,3
 661 507 661 507 661 425 c 0,4,5
 661 321 661 321 626 220.5 c 128,-1,6
 591 120 591 120 511 52 c 128,-1,7
 431 -16 431 -16 305 -16 c 0,8,9
 181 -16 181 -16 112.5 58 c 128,-1,10
 44 132 44 132 44 266 c 0,11,12
 44 369 44 369 79 470 c 128,-1,13
 114 571 114 571 194.5 639.5 c 128,-1,14
 275 708 275 708 401 708 c 0,15,16
 522 708 522 708 591 636 c 1,17,18
 623 639 623 639 638 658 c 128,-1,19
 653 677 653 677 653 713 c 0,20,21
 653 737 653 737 648 760 c 1,22,-1
 743 771 l 1,23,24
 752 746 752 746 752 714 c 0,25,0
 752 653 752 653 722 616 c 128,-1,1
432 151 m 128,-1,27
 476 207 476 207 493.5 285 c 128,-1,28
 511 363 511 363 511 437 c 0,29,30
 511 521 511 521 481 559.5 c 128,-1,31
 451 598 451 598 391 598 c 0,32,33
 318 598 318 598 274 542 c 128,-1,34
 230 486 230 486 212 408 c 128,-1,35
 194 330 194 330 194 257 c 0,36,37
 194 172 194 172 224.5 133.5 c 128,-1,38
 255 95 255 95 314 95 c 0,39,26
 388 95 388 95 432 151 c 128,-1,27
EndSplineSet
Substitution2: "'c2sc' Capitals to Small Capitals lookup 27 subtable" ohorn.sc
Substitution2: "'aalt' Access All Alternates lookup 0 subtable" ohorn.sc
Position2: "'cpsp' Capital Spacing lookup 0 subtable" dx=5 dy=0 dh=10 dv=0
EndChar

StartChar: uni1EDA
Encoding: 7898 7898 197
Width: 702
GlyphClass: 2
Flags: W
AnchorPoint: "Anchor-18" 0 0 basechar 0
AnchorPoint: "Anchor-17" 675 692 basechar 0
AnchorPoint: "Anchor-16" 426 946 basechar 0
AnchorPoint: "Anchor-15" 420 0 basechar 0
AnchorPoint: "Anchor-14" 303 0 basechar 0
LayerCount: 2
Fore
SplineSet
563 831 m 1,0,-1
 324 749 l 1,1,-1
 294 820 l 1,2,-1
 519 940 l 1,3,-1
 563 831 l 1,0,-1
722 616 m 128,-1,5
 692 579 692 579 635 568 c 1,6,7
 661 507 661 507 661 425 c 0,8,9
 661 321 661 321 626 220.5 c 128,-1,10
 591 120 591 120 511 52 c 128,-1,11
 431 -16 431 -16 305 -16 c 0,12,13
 181 -16 181 -16 112.5 58 c 128,-1,14
 44 132 44 132 44 266 c 0,15,16
 44 369 44 369 79 470 c 128,-1,17
 114 571 114 571 194.5 639.5 c 128,-1,18
 275 708 275 708 401 708 c 0,19,20
 522 708 522 708 591 636 c 1,21,22
 623 639 623 639 638 658 c 128,-1,23
 653 677 653 677 653 713 c 0,24,25
 653 737 653 737 648 760 c 1,26,-1
 743 771 l 1,27,28
 752 746 752 746 752 714 c 0,29,4
 752 653 752 653 722 616 c 128,-1,5
432 151 m 128,-1,31
 476 207 476 207 493.5 285 c 128,-1,32
 511 363 511 363 511 437 c 0,33,34
 511 521 511 521 481 559.5 c 128,-1,35
 451 598 451 598 391 598 c 0,36,37
 318 598 318 598 274 542 c 128,-1,38
 230 486 230 486 212 408 c 128,-1,39
 194 330 194 330 194 257 c 0,40,41
 194 172 194 172 224.5 133.5 c 128,-1,42
 255 95 255 95 314 95 c 0,43,30
 388 95 388 95 432 151 c 128,-1,31
EndSplineSet
Substitution2: "'c2sc' Capitals to Small Capitals lookup 27 subtable" uni1EDB.sc
Substitution2: "'aalt' Access All Alternates lookup 0 subtable" uni1EDB.sc
Position2: "'cpsp' Capital Spacing lookup 0 subtable" dx=5 dy=0 dh=10 dv=0
EndChar

StartChar: uni1EE2
Encoding: 7906 7906 198
Width: 702
GlyphClass: 2
Flags: W
AnchorPoint: "Anchor-18" 0 0 basechar 0
AnchorPoint: "Anchor-17" 675 692 basechar 0
AnchorPoint: "Anchor-16" 403 692 basechar 0
AnchorPoint: "Anchor-15" 420 0 basechar 0
AnchorPoint: "Anchor-14" 277 -230 basechar 0
LayerCount: 2
Fore
SplineSet
722 616 m 128,-1,1
 692 579 692 579 635 568 c 1,2,3
 661 507 661 507 661 425 c 0,4,5
 661 321 661 321 626 220.5 c 128,-1,6
 591 120 591 120 511 52 c 128,-1,7
 431 -16 431 -16 305 -16 c 0,8,9
 181 -16 181 -16 112.5 58 c 128,-1,10
 44 132 44 132 44 266 c 0,11,12
 44 369 44 369 79 470 c 128,-1,13
 114 571 114 571 194.5 639.5 c 128,-1,14
 275 708 275 708 401 708 c 0,15,16
 522 708 522 708 591 636 c 1,17,18
 623 639 623 639 638 658 c 128,-1,19
 653 677 653 677 653 713 c 0,20,21
 653 737 653 737 648 760 c 1,22,-1
 743 771 l 1,23,24
 752 746 752 746 752 714 c 0,25,0
 752 653 752 653 722 616 c 128,-1,1
432 151 m 128,-1,27
 476 207 476 207 493.5 285 c 128,-1,28
 511 363 511 363 511 437 c 0,29,30
 511 521 511 521 481 559.5 c 128,-1,31
 451 598 451 598 391 598 c 0,32,33
 318 598 318 598 274 542 c 128,-1,34
 230 486 230 486 212 408 c 128,-1,35
 194 330 194 330 194 257 c 0,36,37
 194 172 194 172 224.5 133.5 c 128,-1,38
 255 95 255 95 314 95 c 0,39,26
 388 95 388 95 432 151 c 128,-1,27
346 -85 m 128,-1,41
 367 -106 367 -106 367 -138 c 0,42,43
 367 -178 367 -178 340 -204 c 128,-1,44
 313 -230 313 -230 273 -230 c 0,45,46
 238 -230 238 -230 217 -209.5 c 128,-1,47
 196 -189 196 -189 196 -156 c 0,48,49
 196 -116 196 -116 223 -90 c 128,-1,50
 250 -64 250 -64 290 -64 c 0,51,40
 325 -64 325 -64 346 -85 c 128,-1,41
EndSplineSet
Substitution2: "'c2sc' Capitals to Small Capitals lookup 27 subtable" uni1EE3.sc
Substitution2: "'aalt' Access All Alternates lookup 0 subtable" uni1EE3.sc
Position2: "'cpsp' Capital Spacing lookup 0 subtable" dx=5 dy=0 dh=10 dv=0
EndChar

StartChar: uni1EDC
Encoding: 7900 7900 199
Width: 702
GlyphClass: 2
Flags: W
AnchorPoint: "Anchor-18" 0 0 basechar 0
AnchorPoint: "Anchor-17" 675 692 basechar 0
AnchorPoint: "Anchor-16" 427 947 basechar 0
AnchorPoint: "Anchor-15" 420 0 basechar 0
AnchorPoint: "Anchor-14" 303 0 basechar 0
LayerCount: 2
Fore
SplineSet
556 820 m 1,0,-1
 518 749 l 1,1,-1
 300 830 l 1,2,-1
 360 939 l 1,3,-1
 556 820 l 1,0,-1
722 616 m 128,-1,5
 692 579 692 579 635 568 c 1,6,7
 661 507 661 507 661 425 c 0,8,9
 661 321 661 321 626 220.5 c 128,-1,10
 591 120 591 120 511 52 c 128,-1,11
 431 -16 431 -16 305 -16 c 0,12,13
 181 -16 181 -16 112.5 58 c 128,-1,14
 44 132 44 132 44 266 c 0,15,16
 44 369 44 369 79 470 c 128,-1,17
 114 571 114 571 194.5 639.5 c 128,-1,18
 275 708 275 708 401 708 c 0,19,20
 522 708 522 708 591 636 c 1,21,22
 623 639 623 639 638 658 c 128,-1,23
 653 677 653 677 653 713 c 0,24,25
 653 737 653 737 648 760 c 1,26,-1
 743 771 l 1,27,28
 752 746 752 746 752 714 c 0,29,4
 752 653 752 653 722 616 c 128,-1,5
432 151 m 128,-1,31
 476 207 476 207 493.5 285 c 128,-1,32
 511 363 511 363 511 437 c 0,33,34
 511 521 511 521 481 559.5 c 128,-1,35
 451 598 451 598 391 598 c 0,36,37
 318 598 318 598 274 542 c 128,-1,38
 230 486 230 486 212 408 c 128,-1,39
 194 330 194 330 194 257 c 0,40,41
 194 172 194 172 224.5 133.5 c 128,-1,42
 255 95 255 95 314 95 c 0,43,30
 388 95 388 95 432 151 c 128,-1,31
EndSplineSet
Substitution2: "'c2sc' Capitals to Small Capitals lookup 27 subtable" uni1EDD.sc
Substitution2: "'aalt' Access All Alternates lookup 0 subtable" uni1EDD.sc
Position2: "'cpsp' Capital Spacing lookup 0 subtable" dx=5 dy=0 dh=10 dv=0
EndChar

StartChar: uni1EDE
Encoding: 7902 7902 200
Width: 702
GlyphClass: 2
Flags: W
AnchorPoint: "Anchor-18" 0 0 basechar 0
AnchorPoint: "Anchor-17" 675 692 basechar 0
AnchorPoint: "Anchor-16" 450 998 basechar 0
AnchorPoint: "Anchor-15" 420 0 basechar 0
AnchorPoint: "Anchor-14" 303 0 basechar 0
LayerCount: 2
Fore
SplineSet
363 909 m 1,1,-1
 344 973 l 1,2,3
 391 998 391 998 447 998 c 0,4,5
 501 998 501 998 530 971.5 c 128,-1,6
 559 945 559 945 559 904 c 0,7,8
 559 825 559 825 463 807 c 1,9,-1
 457 763 l 1,10,-1
 371 763 l 1,11,-1
 380 852 l 1,12,13
 418 854 418 854 438 864.5 c 128,-1,14
 458 875 458 875 458 897 c 0,15,16
 458 923 458 923 423 923 c 0,17,0
 394 923 394 923 363 909 c 1,1,-1
722 616 m 128,-1,19
 692 579 692 579 635 568 c 1,20,21
 661 507 661 507 661 425 c 0,22,23
 661 321 661 321 626 220.5 c 128,-1,24
 591 120 591 120 511 52 c 128,-1,25
 431 -16 431 -16 305 -16 c 0,26,27
 181 -16 181 -16 112.5 58 c 128,-1,28
 44 132 44 132 44 266 c 0,29,30
 44 369 44 369 79 470 c 128,-1,31
 114 571 114 571 194.5 639.5 c 128,-1,32
 275 708 275 708 401 708 c 0,33,34
 522 708 522 708 591 636 c 1,35,36
 623 639 623 639 638 658 c 128,-1,37
 653 677 653 677 653 713 c 0,38,39
 653 737 653 737 648 760 c 1,40,-1
 743 771 l 1,41,42
 752 746 752 746 752 714 c 0,43,18
 752 653 752 653 722 616 c 128,-1,19
432 151 m 128,-1,45
 476 207 476 207 493.5 285 c 128,-1,46
 511 363 511 363 511 437 c 0,47,48
 511 521 511 521 481 559.5 c 128,-1,49
 451 598 451 598 391 598 c 0,50,51
 318 598 318 598 274 542 c 128,-1,52
 230 486 230 486 212 408 c 128,-1,53
 194 330 194 330 194 257 c 0,54,55
 194 172 194 172 224.5 133.5 c 128,-1,56
 255 95 255 95 314 95 c 0,57,44
 388 95 388 95 432 151 c 128,-1,45
EndSplineSet
Substitution2: "'c2sc' Capitals to Small Capitals lookup 27 subtable" uni1EDF.sc
Substitution2: "'aalt' Access All Alternates lookup 0 subtable" uni1EDF.sc
Position2: "'cpsp' Capital Spacing lookup 0 subtable" dx=5 dy=0 dh=10 dv=0
EndChar

StartChar: uni1EE0
Encoding: 7904 7904 201
Width: 702
GlyphClass: 2
Flags: W
AnchorPoint: "Anchor-18" 0 0 basechar 0
AnchorPoint: "Anchor-17" 675 692 basechar 0
AnchorPoint: "Anchor-16" 427 914 basechar 0
AnchorPoint: "Anchor-15" 420 0 basechar 0
AnchorPoint: "Anchor-14" 303 0 basechar 0
LayerCount: 2
Fore
SplineSet
336 800 m 128,-1,1
 323 789 323 789 306 765 c 1,2,-1
 238 804 l 1,3,4
 264 853 264 853 299 883.5 c 128,-1,5
 334 914 334 914 373 914 c 0,6,7
 395 914 395 914 410 907 c 128,-1,8
 425 900 425 900 444 886 c 0,9,10
 456 877 456 877 464 872.5 c 128,-1,11
 472 868 472 868 481 868 c 0,12,13
 497 868 497 868 510.5 878.5 c 128,-1,14
 524 889 524 889 541 913 c 1,15,-1
 609 874 l 1,16,17
 583 824 583 824 548 795 c 128,-1,18
 513 766 513 766 476 766 c 0,19,20
 456 766 456 766 440.5 773 c 128,-1,21
 425 780 425 780 406 793 c 0,22,23
 393 802 393 802 384.5 806.5 c 128,-1,24
 376 811 376 811 367 811 c 0,25,0
 349 811 349 811 336 800 c 128,-1,1
722 616 m 128,-1,27
 692 579 692 579 635 568 c 1,28,29
 661 507 661 507 661 425 c 0,30,31
 661 321 661 321 626 220.5 c 128,-1,32
 591 120 591 120 511 52 c 128,-1,33
 431 -16 431 -16 305 -16 c 0,34,35
 181 -16 181 -16 112.5 58 c 128,-1,36
 44 132 44 132 44 266 c 0,37,38
 44 369 44 369 79 470 c 128,-1,39
 114 571 114 571 194.5 639.5 c 128,-1,40
 275 708 275 708 401 708 c 0,41,42
 522 708 522 708 591 636 c 1,43,44
 623 639 623 639 638 658 c 128,-1,45
 653 677 653 677 653 713 c 0,46,47
 653 737 653 737 648 760 c 1,48,-1
 743 771 l 1,49,50
 752 746 752 746 752 714 c 0,51,26
 752 653 752 653 722 616 c 128,-1,27
432 151 m 128,-1,53
 476 207 476 207 493.5 285 c 128,-1,54
 511 363 511 363 511 437 c 0,55,56
 511 521 511 521 481 559.5 c 128,-1,57
 451 598 451 598 391 598 c 0,58,59
 318 598 318 598 274 542 c 128,-1,60
 230 486 230 486 212 408 c 128,-1,61
 194 330 194 330 194 257 c 0,62,63
 194 172 194 172 224.5 133.5 c 128,-1,64
 255 95 255 95 314 95 c 0,65,52
 388 95 388 95 432 151 c 128,-1,53
EndSplineSet
Substitution2: "'c2sc' Capitals to Small Capitals lookup 27 subtable" uni1EE1.sc
Substitution2: "'aalt' Access All Alternates lookup 0 subtable" uni1EE1.sc
Position2: "'cpsp' Capital Spacing lookup 0 subtable" dx=5 dy=0 dh=10 dv=0
EndChar

StartChar: uni01A2
Encoding: 418 418 203
Width: 939
GlyphClass: 2
Flags: W
AnchorPoint: "Anchor-18" 0 0 basechar 0
AnchorPoint: "Anchor-17" 0 0 basechar 0
AnchorPoint: "Anchor-16" 529 692 basechar 0
AnchorPoint: "Anchor-15" 0 0 basechar 0
AnchorPoint: "Anchor-14" 0 0 basechar 0
LayerCount: 2
Fore
SplineSet
862 670.5 m 128,-1,1
 906 632 906 632 906 560 c 0,2,3
 906 543 906 543 903 523 c 2,4,-1
 800 -208 l 1,5,-1
 655 -208 l 1,6,-1
 759 529 l 2,7,8
 761 545 761 545 761 551 c 0,9,10
 761 577 761 577 749 590.5 c 128,-1,11
 737 604 737 604 709 604 c 0,12,13
 668 604 668 604 627 583 c 1,14,15
 661 517 661 517 661 425 c 0,16,17
 661 321 661 321 626 220.5 c 128,-1,18
 591 120 591 120 511 52 c 128,-1,19
 431 -16 431 -16 305 -16 c 0,20,21
 181 -16 181 -16 112.5 58 c 128,-1,22
 44 132 44 132 44 266 c 0,23,24
 44 369 44 369 79 470 c 128,-1,25
 114 571 114 571 194.5 639.5 c 128,-1,26
 275 708 275 708 401 708 c 0,27,28
 501 708 501 708 567 656 c 1,29,30
 643 709 643 709 735 709 c 0,31,0
 818 709 818 709 862 670.5 c 128,-1,1
432 151 m 128,-1,33
 476 207 476 207 493.5 285 c 128,-1,34
 511 363 511 363 511 437 c 0,35,36
 511 521 511 521 481 559.5 c 128,-1,37
 451 598 451 598 391 598 c 0,38,39
 318 598 318 598 274 542 c 128,-1,40
 230 486 230 486 212 408 c 128,-1,41
 194 330 194 330 194 257 c 0,42,43
 194 172 194 172 224.5 133.5 c 128,-1,44
 255 95 255 95 314 95 c 0,45,32
 388 95 388 95 432 151 c 128,-1,33
EndSplineSet
Substitution2: "'c2sc' Capitals to Small Capitals lookup 27 subtable" uni01A3.sc
Substitution2: "'aalt' Access All Alternates lookup 0 subtable" uni01A3.sc
Position2: "'cpsp' Capital Spacing lookup 0 subtable" dx=5 dy=0 dh=10 dv=0
EndChar

StartChar: uniA7B6
Encoding: 42934 42934 208
Width: 864
GlyphClass: 2
Flags: W
AnchorPoint: "Anchor-18" 0 0 basechar 0
AnchorPoint: "Anchor-17" 0 0 basechar 0
AnchorPoint: "Anchor-16" 492 692 basechar 0
AnchorPoint: "Anchor-15" 0 0 basechar 0
AnchorPoint: "Anchor-14" 394 0 basechar 0
LayerCount: 2
Fore
SplineSet
96 37 m 128,-1,1
 49 90 49 90 49 204 c 0,2,3
 49 324 49 324 86.5 452 c 128,-1,4
 124 580 124 580 188 692 c 1,5,-1
 324 692 l 1,6,7
 265 572 265 572 228.5 442.5 c 128,-1,8
 192 313 192 313 192 200 c 0,9,10
 192 143 192 143 208 119 c 128,-1,11
 224 95 224 95 260 95 c 0,12,13
 336 95 336 95 349 192 c 2,14,-1
 378 398 l 1,15,-1
 521 398 l 1,16,-1
 492 188 l 2,17,18
 489 172 489 172 489 157 c 0,19,20
 489 126 489 126 503 110 c 128,-1,21
 517 94 517 94 548 94 c 0,22,23
 623 94 623 94 654.5 206.5 c 128,-1,24
 686 319 686 319 686 458 c 0,25,26
 686 521 686 521 678.5 574 c 128,-1,27
 671 627 671 627 656 692 c 1,28,-1
 795 692 l 1,29,30
 811 638 811 638 820 582 c 128,-1,31
 829 526 829 526 829 455 c 0,32,33
 829 249 829 249 766 116.5 c 128,-1,34
 703 -16 703 -16 557 -16 c 0,35,36
 426 -16 426 -16 409 107 c 1,37,38
 358 -16 358 -16 235 -16 c 0,39,0
 143 -16 143 -16 96 37 c 128,-1,1
EndSplineSet
Substitution2: "'c2sc' Capitals to Small Capitals lookup 27 subtable" uniA7B6.sc
Substitution2: "'aalt' Access All Alternates lookup 0 subtable" uniA7B6.sc
Position2: "'cpsp' Capital Spacing lookup 0 subtable" dx=5 dy=0 dh=10 dv=0
EndChar

StartChar: uni01EA
Encoding: 490 490 209
Width: 682
GlyphClass: 2
Flags: W
AnchorPoint: "Anchor-18" 0 0 basechar 0
AnchorPoint: "Anchor-17" 623 692 basechar 0
AnchorPoint: "Anchor-16" 403 692 basechar 0
AnchorPoint: "Anchor-15" 420 0 basechar 0
AnchorPoint: "Anchor-14" 303 0 basechar 0
LayerCount: 2
Fore
SplineSet
277 -116 m 0,1,2
 277 -151 277 -151 322 -151 c 0,3,4
 347 -151 347 -151 384 -143 c 1,5,-1
 364 -235 l 1,6,7
 327 -242 327 -242 297 -242 c 0,8,9
 240 -242 240 -242 205 -214 c 128,-1,10
 170 -186 170 -186 170 -140 c 0,11,12
 170 -63 170 -63 250 -12 c 1,13,14
 151 4 151 4 97.5 76 c 128,-1,15
 44 148 44 148 44 266 c 0,16,17
 44 369 44 369 79 470 c 128,-1,18
 114 571 114 571 194.5 639.5 c 128,-1,19
 275 708 275 708 401 708 c 0,20,21
 524 708 524 708 592.5 634 c 128,-1,22
 661 560 661 560 661 425 c 0,23,24
 661 337 661 337 635.5 249 c 128,-1,25
 610 161 610 161 552.5 91.5 c 128,-1,26
 495 22 495 22 404 -3 c 1,27,0
 277 -52 277 -52 277 -116 c 0,1,2
224.5 133.5 m 128,-1,29
 255 95 255 95 314 95 c 0,30,31
 388 95 388 95 432 151 c 128,-1,32
 476 207 476 207 493.5 285 c 128,-1,33
 511 363 511 363 511 437 c 0,34,35
 511 521 511 521 481 559.5 c 128,-1,36
 451 598 451 598 391 598 c 0,37,38
 318 598 318 598 274 542 c 128,-1,39
 230 486 230 486 212 408 c 128,-1,40
 194 330 194 330 194 257 c 0,41,28
 194 172 194 172 224.5 133.5 c 128,-1,29
EndSplineSet
Substitution2: "'c2sc' Capitals to Small Capitals lookup 27 subtable" uni01EB.sc
Substitution2: "'aalt' Access All Alternates lookup 0 subtable" uni01EB.sc
Position2: "'cpsp' Capital Spacing lookup 0 subtable" dx=5 dy=0 dh=10 dv=0
EndChar

StartChar: uni01EC
Encoding: 492 492 210
Width: 682
GlyphClass: 2
Flags: W
AnchorPoint: "Anchor-18" 0 0 basechar 0
AnchorPoint: "Anchor-17" 623 692 basechar 0
AnchorPoint: "Anchor-16" 425 884 basechar 0
AnchorPoint: "Anchor-15" 420 0 basechar 0
AnchorPoint: "Anchor-14" 303 0 basechar 0
LayerCount: 2
Fore
SplineSet
578 884 m 1,0,-1
 564 784 l 1,1,-1
 271 784 l 1,2,-1
 284 884 l 1,3,-1
 578 884 l 1,0,-1
277 -116 m 0,5,6
 277 -151 277 -151 322 -151 c 0,7,8
 347 -151 347 -151 384 -143 c 1,9,-1
 364 -235 l 1,10,11
 327 -242 327 -242 297 -242 c 0,12,13
 240 -242 240 -242 205 -214 c 128,-1,14
 170 -186 170 -186 170 -140 c 0,15,16
 170 -63 170 -63 250 -12 c 1,17,18
 151 4 151 4 97.5 76 c 128,-1,19
 44 148 44 148 44 266 c 0,20,21
 44 369 44 369 79 470 c 128,-1,22
 114 571 114 571 194.5 639.5 c 128,-1,23
 275 708 275 708 401 708 c 0,24,25
 524 708 524 708 592.5 634 c 128,-1,26
 661 560 661 560 661 425 c 0,27,28
 661 337 661 337 635.5 249 c 128,-1,29
 610 161 610 161 552.5 91.5 c 128,-1,30
 495 22 495 22 404 -3 c 1,31,4
 277 -52 277 -52 277 -116 c 0,5,6
224.5 133.5 m 128,-1,33
 255 95 255 95 314 95 c 0,34,35
 388 95 388 95 432 151 c 128,-1,36
 476 207 476 207 493.5 285 c 128,-1,37
 511 363 511 363 511 437 c 0,38,39
 511 521 511 521 481 559.5 c 128,-1,40
 451 598 451 598 391 598 c 0,41,42
 318 598 318 598 274 542 c 128,-1,43
 230 486 230 486 212 408 c 128,-1,44
 194 330 194 330 194 257 c 0,45,32
 194 172 194 172 224.5 133.5 c 128,-1,33
EndSplineSet
Substitution2: "'c2sc' Capitals to Small Capitals lookup 27 subtable" uni01ED.sc
Substitution2: "'aalt' Access All Alternates lookup 0 subtable" uni01ED.sc
Position2: "'cpsp' Capital Spacing lookup 0 subtable" dx=5 dy=0 dh=10 dv=0
EndChar

StartChar: uni0186
Encoding: 390 390 211
Width: 562
GlyphClass: 2
Flags: W
AnchorPoint: "Anchor-18" 0 0 basechar 0
AnchorPoint: "Anchor-17" 0 0 basechar 0
AnchorPoint: "Anchor-16" 296 692 basechar 0
AnchorPoint: "Anchor-15" 0 0 basechar 0
AnchorPoint: "Anchor-14" 198 0 basechar 0
LayerCount: 2
Fore
SplineSet
472.5 633.5 m 128,-1,1
 540 559 540 559 540 423 c 0,2,3
 540 304 540 304 497.5 203.5 c 128,-1,4
 455 103 455 103 374 43.5 c 128,-1,5
 293 -16 293 -16 183 -16 c 0,6,7
 65 -16 65 -16 -19 72 c 1,8,-1
 57 155 l 1,9,10
 89 128 89 128 118 114 c 128,-1,11
 147 100 147 100 187 100 c 0,12,13
 255 100 255 100 300.5 147.5 c 128,-1,14
 346 195 346 195 367.5 270 c 128,-1,15
 389 345 389 345 389 426 c 0,16,17
 389 597 389 597 271 597 c 0,18,19
 234 597 234 597 200 584 c 128,-1,20
 166 571 166 571 129 546 c 1,21,-1
 66 635 l 1,22,23
 116 672 116 672 169 690 c 128,-1,24
 222 708 222 708 289 708 c 0,25,0
 405 708 405 708 472.5 633.5 c 128,-1,1
EndSplineSet
Substitution2: "'c2sc' Capitals to Small Capitals lookup 27 subtable" uni0254.sc
Substitution2: "'aalt' Access All Alternates lookup 0 subtable" uni0254.sc
Position2: "'cpsp' Capital Spacing lookup 0 subtable" dx=5 dy=0 dh=10 dv=0
EndChar

StartChar: Oslash
Encoding: 216 216 212
Width: 682
GlyphClass: 2
Flags: W
AnchorPoint: "Anchor-18" 0 0 basechar 0
AnchorPoint: "Anchor-17" 0 0 basechar 0
AnchorPoint: "Anchor-16" 403 722 basechar 0
AnchorPoint: "Anchor-15" 0 0 basechar 0
AnchorPoint: "Anchor-14" 304 0 basechar 0
LayerCount: 2
Fore
SplineSet
634.5 569 m 128,-1,1
 661 508 661 508 661 425 c 0,2,3
 661 321 661 321 626 220.5 c 128,-1,4
 591 120 591 120 511 52 c 128,-1,5
 431 -16 431 -16 305 -16 c 0,6,7
 274 -16 274 -16 250 -12 c 1,8,-1
 198 -133 l 1,9,-1
 89 -103 l 1,10,-1
 148 27 l 1,11,12
 97 63 97 63 70.5 123 c 128,-1,13
 44 183 44 183 44 266 c 0,14,15
 44 369 44 369 79 470 c 128,-1,16
 114 571 114 571 194.5 639.5 c 128,-1,17
 275 708 275 708 401 708 c 0,18,19
 432 708 432 708 453 704 c 1,20,-1
 508 826 l 1,21,-1
 616 796 l 1,22,-1
 557 665 l 1,23,0
 608 630 608 630 634.5 569 c 128,-1,1
273 541.5 m 128,-1,25
 228 485 228 485 210 405.5 c 128,-1,26
 192 326 192 326 192 251 c 0,27,28
 192 169 192 169 218 132 c 1,29,-1
 421 596 l 1,30,31
 403 598 403 598 391 598 c 0,32,24
 318 598 318 598 273 541.5 c 128,-1,25
432.5 151.5 m 128,-1,34
 477 208 477 208 495 288 c 128,-1,35
 513 368 513 368 513 445 c 0,36,37
 513 527 513 527 487 562 c 1,38,-1
 285 97 l 1,39,40
 294 95 294 95 314 95 c 0,41,33
 388 95 388 95 432.5 151.5 c 128,-1,34
EndSplineSet
Substitution2: "'c2sc' Capitals to Small Capitals lookup 27 subtable" oslash.sc
Substitution2: "'aalt' Access All Alternates lookup 0 subtable" oslash.sc
Position2: "'cpsp' Capital Spacing lookup 0 subtable" dx=5 dy=0 dh=10 dv=0
EndChar

StartChar: uni022C
Encoding: 556 556 216
Width: 682
GlyphClass: 2
Flags: W
AnchorPoint: "Anchor-18" 0 0 basechar 0
AnchorPoint: "Anchor-17" 623 692 basechar 0
AnchorPoint: "Anchor-16" 435 1035 basechar 0
AnchorPoint: "Anchor-15" 420 0 basechar 0
AnchorPoint: "Anchor-14" 303 0 basechar 0
LayerCount: 2
Fore
SplineSet
574 935 m 1,0,-1
 281 935 l 1,1,-1
 294 1035 l 1,2,-1
 588 1035 l 1,3,-1
 574 935 l 1,0,-1
433.5 763 m 128,-1,5
 418 770 418 770 399 783 c 0,6,7
 386 792 386 792 377.5 796.5 c 128,-1,8
 369 801 369 801 360 801 c 0,9,10
 342 801 342 801 329 790 c 128,-1,11
 316 779 316 779 299 755 c 1,12,-1
 231 794 l 1,13,14
 257 843 257 843 292 873.5 c 128,-1,15
 327 904 327 904 366 904 c 0,16,17
 388 904 388 904 403 897 c 128,-1,18
 418 890 418 890 437 876 c 0,19,20
 449 867 449 867 457 862.5 c 128,-1,21
 465 858 465 858 474 858 c 0,22,23
 490 858 490 858 503.5 868.5 c 128,-1,24
 517 879 517 879 534 903 c 1,25,-1
 602 864 l 1,26,27
 576 814 576 814 541 785 c 128,-1,28
 506 756 506 756 469 756 c 0,29,4
 449 756 449 756 433.5 763 c 128,-1,5
592.5 634 m 128,-1,31
 661 560 661 560 661 425 c 0,32,33
 661 321 661 321 626 220.5 c 128,-1,34
 591 120 591 120 511 52 c 128,-1,35
 431 -16 431 -16 305 -16 c 0,36,37
 181 -16 181 -16 112.5 58 c 128,-1,38
 44 132 44 132 44 266 c 0,39,40
 44 369 44 369 79 470 c 128,-1,41
 114 571 114 571 194.5 639.5 c 128,-1,42
 275 708 275 708 401 708 c 0,43,30
 524 708 524 708 592.5 634 c 128,-1,31
274 542 m 128,-1,45
 230 486 230 486 212 408 c 128,-1,46
 194 330 194 330 194 257 c 0,47,48
 194 172 194 172 224.5 133.5 c 128,-1,49
 255 95 255 95 314 95 c 0,50,51
 388 95 388 95 432 151 c 128,-1,52
 476 207 476 207 493.5 285 c 128,-1,53
 511 363 511 363 511 437 c 0,54,55
 511 521 511 521 481 559.5 c 128,-1,56
 451 598 451 598 391 598 c 0,57,44
 318 598 318 598 274 542 c 128,-1,45
EndSplineSet
Substitution2: "'c2sc' Capitals to Small Capitals lookup 27 subtable" uni022D.sc
Substitution2: "'aalt' Access All Alternates lookup 0 subtable" uni022D.sc
Position2: "'cpsp' Capital Spacing lookup 0 subtable" dx=5 dy=0 dh=10 dv=0
EndChar

StartChar: OE
Encoding: 338 338 217
Width: 889
GlyphClass: 2
Flags: W
AnchorPoint: "Anchor-18" 0 0 basechar 0
AnchorPoint: "Anchor-17" 0 0 basechar 0
AnchorPoint: "Anchor-16" 508 692 basechar 0
AnchorPoint: "Anchor-15" 0 0 basechar 0
AnchorPoint: "Anchor-14" 411 0 basechar 0
LayerCount: 2
Fore
SplineSet
878 584 m 1,0,-1
 596 584 l 1,1,2
 638 515 638 515 638 411 c 2,3,-1
 638 405 l 1,4,-1
 821 405 l 1,5,-1
 807 299 l 1,6,-1
 627 299 l 1,7,8
 605 184 605 184 533 108 c 1,9,-1
 829 108 l 1,10,-1
 814 0 l 1,11,-1
 381 0 l 1,12,13
 339 -16 339 -16 289 -16 c 0,14,15
 175 -16 175 -16 109.5 57.5 c 128,-1,16
 44 131 44 131 44 265 c 0,17,18
 44 366 44 366 79 468 c 128,-1,19
 114 570 114 570 190.5 639 c 128,-1,20
 267 708 267 708 385 708 c 0,21,22
 436 708 436 708 475 692 c 1,23,-1
 908 692 l 1,24,-1
 878 584 l 1,0,-1
303 95 m 0,26,27
 372 95 372 95 414 149 c 128,-1,28
 456 203 456 203 473.5 282.5 c 128,-1,29
 491 362 491 362 491 447 c 0,30,31
 491 598 491 598 380 598 c 0,32,33
 312 598 312 598 270.5 544 c 128,-1,34
 229 490 229 490 211.5 411 c 128,-1,35
 194 332 194 332 194 250 c 0,36,25
 194 95 194 95 303 95 c 0,26,27
EndSplineSet
Substitution2: "'c2sc' Capitals to Small Capitals lookup 27 subtable" oe.sc
Substitution2: "'aalt' Access All Alternates lookup 0 subtable" oe.sc
Position2: "'cpsp' Capital Spacing lookup 0 subtable" dx=5 dy=0 dh=10 dv=0
EndChar

StartChar: P
Encoding: 80 80 218
Width: 587
GlyphClass: 2
Flags: W
AnchorPoint: "Anchor-18" 0 0 basechar 0
AnchorPoint: "Anchor-17" 0 0 basechar 0
AnchorPoint: "Anchor-16" 354 692 basechar 0
AnchorPoint: "Anchor-15" 0 0 basechar 0
AnchorPoint: "Anchor-14" 256 0 basechar 0
LayerCount: 2
Fore
SplineSet
529.5 643.5 m 128,-1,1
 596 595 596 595 596 501 c 0,2,3
 596 433 596 433 565 373 c 128,-1,4
 534 313 534 313 466 274.5 c 128,-1,5
 398 236 398 236 292 236 c 2,6,-1
 214 236 l 1,7,-1
 181 0 l 1,8,-1
 35 0 l 1,9,-1
 132 692 l 1,10,-1
 342 692 l 2,11,0
 463 692 463 692 529.5 643.5 c 128,-1,1
409.5 388.5 m 128,-1,13
 444 433 444 433 444 496 c 0,14,15
 444 586 444 586 329 586 c 2,16,-1
 262 586 l 1,17,-1
 229 344 l 1,18,-1
 292 344 l 2,19,12
 375 344 375 344 409.5 388.5 c 128,-1,13
EndSplineSet
Substitution2: "'c2sc' Capitals to Small Capitals lookup 27 subtable" p.sc
Substitution2: "'aalt' Access All Alternates lookup 0 subtable" p.sc
Position2: "'cpsp' Capital Spacing lookup 0 subtable" dx=5 dy=0 dh=10 dv=0
EndChar

StartChar: uni01A4
Encoding: 420 420 221
Width: 713
GlyphClass: 2
Flags: W
AnchorPoint: "Anchor-18" 0 0 basechar 0
AnchorPoint: "Anchor-17" 0 0 basechar 0
AnchorPoint: "Anchor-16" 480 692 basechar 0
AnchorPoint: "Anchor-15" 0 0 basechar 0
AnchorPoint: "Anchor-14" 382 0 basechar 0
LayerCount: 2
Fore
SplineSet
655.5 643.5 m 128,-1,1
 722 595 722 595 722 501 c 0,2,3
 722 433 722 433 691 373 c 128,-1,4
 660 313 660 313 592 274.5 c 128,-1,5
 524 236 524 236 418 236 c 2,6,-1
 340 236 l 1,7,-1
 307 0 l 1,8,-1
 161 0 l 1,9,-1
 243 585 l 1,10,-1
 217 585 l 2,11,12
 161 585 161 585 161 524 c 0,13,14
 161 504 161 504 169 474 c 1,15,-1
 70 434 l 1,16,17
 58 459 58 459 51 481.5 c 128,-1,18
 44 504 44 504 44 530 c 0,19,20
 44 604 44 604 94 648 c 128,-1,21
 144 692 144 692 230 692 c 2,22,-1
 468 692 l 2,23,0
 589 692 589 692 655.5 643.5 c 128,-1,1
535.5 388.5 m 128,-1,25
 570 433 570 433 570 496 c 0,26,27
 570 586 570 586 455 586 c 2,28,-1
 388 586 l 1,29,-1
 355 344 l 1,30,-1
 418 344 l 2,31,24
 501 344 501 344 535.5 388.5 c 128,-1,25
EndSplineSet
Substitution2: "'c2sc' Capitals to Small Capitals lookup 27 subtable" uni01A5.sc
Substitution2: "'aalt' Access All Alternates lookup 0 subtable" uni01A5.sc
Position2: "'cpsp' Capital Spacing lookup 0 subtable" dx=5 dy=0 dh=10 dv=0
EndChar

StartChar: Thorn
Encoding: 222 222 222
Width: 587
GlyphClass: 2
Flags: W
AnchorPoint: "Anchor-18" 0 0 basechar 0
AnchorPoint: "Anchor-17" 0 0 basechar 0
AnchorPoint: "Anchor-16" 353 692 basechar 0
AnchorPoint: "Anchor-15" 0 0 basechar 0
AnchorPoint: "Anchor-14" 256 0 basechar 0
LayerCount: 2
Fore
SplineSet
513.5 532.5 m 128,-1,1
 579 484 579 484 579 385 c 0,2,3
 579 319 579 319 550 258.5 c 128,-1,4
 521 198 521 198 453 157.5 c 128,-1,5
 385 117 385 117 275 117 c 2,6,-1
 197 117 l 1,7,-1
 181 0 l 1,8,-1
 35 0 l 1,9,-1
 132 692 l 1,10,-1
 278 692 l 1,11,-1
 262 581 l 1,12,-1
 326 581 l 2,13,0
 448 581 448 581 513.5 532.5 c 128,-1,1
393 272 m 128,-1,15
 428 319 428 319 428 383 c 0,16,17
 428 431 428 431 399 453 c 128,-1,18
 370 475 370 475 313 475 c 2,19,-1
 248 475 l 1,20,-1
 213 225 l 1,21,-1
 275 225 l 2,22,14
 358 225 358 225 393 272 c 128,-1,15
EndSplineSet
Substitution2: "'c2sc' Capitals to Small Capitals lookup 27 subtable" thorn.sc
Substitution2: "'aalt' Access All Alternates lookup 0 subtable" thorn.sc
Position2: "'cpsp' Capital Spacing lookup 0 subtable" dx=5 dy=0 dh=10 dv=0
EndChar

StartChar: Q
Encoding: 81 81 223
Width: 681
GlyphClass: 2
Flags: W
AnchorPoint: "Anchor-18" 0 0 basechar 0
AnchorPoint: "Anchor-17" 0 0 basechar 0
AnchorPoint: "Anchor-16" 400 692 basechar 0
AnchorPoint: "Anchor-15" 0 0 basechar 0
AnchorPoint: "Anchor-14" 303 0 basechar 0
LayerCount: 2
Fore
SplineSet
613.5 197.5 m 128,-1,1
 566 90 566 90 464 41 c 1,2,3
 527 39 527 39 570.5 23 c 128,-1,4
 614 7 614 7 651 -23 c 1,5,-1
 548 -138 l 1,6,7
 500 -77 500 -77 446 -46.5 c 128,-1,8
 392 -16 392 -16 305 -16 c 0,9,10
 181 -16 181 -16 112.5 58 c 128,-1,11
 44 132 44 132 44 266 c 0,12,13
 44 369 44 369 79 470 c 128,-1,14
 114 571 114 571 194.5 639.5 c 128,-1,15
 275 708 275 708 401 708 c 0,16,17
 524 708 524 708 592.5 634 c 128,-1,18
 661 560 661 560 661 425 c 0,19,0
 661 305 661 305 613.5 197.5 c 128,-1,1
314 95 m 0,21,22
 388 95 388 95 432 151.5 c 128,-1,23
 476 208 476 208 493.5 287.5 c 128,-1,24
 511 367 511 367 511 445 c 0,25,26
 511 524 511 524 481 561 c 128,-1,27
 451 598 451 598 391 598 c 0,28,29
 318 598 318 598 273.5 541.5 c 128,-1,30
 229 485 229 485 211.5 406 c 128,-1,31
 194 327 194 327 194 251 c 0,32,20
 194 95 194 95 314 95 c 0,21,22
EndSplineSet
Substitution2: "'c2sc' Capitals to Small Capitals lookup 27 subtable" q.sc
Substitution2: "'aalt' Access All Alternates lookup 0 subtable" q.sc
Position2: "'cpsp' Capital Spacing lookup 0 subtable" dx=5 dy=0 dh=10 dv=0
EndChar

StartChar: uni024A
Encoding: 586 586 224
Width: 666
GlyphClass: 2
Flags: W
AnchorPoint: "Anchor-18" 0 0 basechar 0
AnchorPoint: "Anchor-17" 0 0 basechar 0
AnchorPoint: "Anchor-16" 396 692 basechar 0
AnchorPoint: "Anchor-15" 0 0 basechar 0
AnchorPoint: "Anchor-14" 0 0 basechar 0
LayerCount: 2
Fore
SplineSet
703 -180 m 1,0,1
 643 -220 643 -220 567 -220 c 0,2,3
 489 -220 489 -220 444.5 -182 c 128,-1,4
 400 -144 400 -144 400 -72 c 0,5,6
 400 -56 400 -56 403 -36 c 2,7,-1
 408 0 l 1,8,-1
 414 42 l 1,9,10
 353 -16 353 -16 263 -16 c 0,11,12
 162 -16 162 -16 102 55.5 c 128,-1,13
 42 127 42 127 42 255 c 0,14,15
 42 369 42 369 81.5 473.5 c 128,-1,16
 121 578 121 578 194.5 643 c 128,-1,17
 268 708 268 708 363 708 c 0,18,19
 410 708 410 708 445 691.5 c 128,-1,20
 480 675 480 675 508 646 c 1,21,-1
 521 692 l 1,22,-1
 651 692 l 1,23,-1
 554 0 l 1,24,-1
 547 -49 l 2,25,26
 546 -55 546 -55 546 -66 c 0,27,28
 546 -111 546 -111 590 -111 c 0,29,30
 612 -111 612 -111 627 -106 c 128,-1,31
 642 -101 642 -101 664 -90 c 1,32,-1
 703 -180 l 1,0,1
428 143 m 1,34,-1
 485 551 l 1,35,36
 465 575 465 575 440 586.5 c 128,-1,37
 415 598 415 598 380 598 c 0,38,39
 318 598 318 598 275.5 545 c 128,-1,40
 233 492 233 492 212.5 411.5 c 128,-1,41
 192 331 192 331 192 249 c 0,42,43
 192 165 192 165 221 128.5 c 128,-1,44
 250 92 250 92 304 92 c 0,45,33
 371 92 371 92 428 143 c 1,34,-1
EndSplineSet
Substitution2: "'c2sc' Capitals to Small Capitals lookup 27 subtable" uni024B.sc
Substitution2: "'aalt' Access All Alternates lookup 0 subtable" uni024B.sc
Position2: "'cpsp' Capital Spacing lookup 0 subtable" dx=5 dy=0 dh=10 dv=0
EndChar

StartChar: R
Encoding: 82 82 225
Width: 605
GlyphClass: 2
Flags: W
AnchorPoint: "Anchor-18" 0 0 basechar 0
AnchorPoint: "Anchor-17" 0 0 basechar 0
AnchorPoint: "Anchor-16" 361 692 basechar 0
AnchorPoint: "Anchor-15" 0 0 basechar 0
AnchorPoint: "Anchor-14" 269 0 basechar 0
LayerCount: 2
Fore
SplineSet
557.5 384.5 m 128,-1,1
 521 329 521 329 432 295 c 1,2,-1
 565 0 l 1,3,-1
 405 0 l 1,4,-1
 296 271 l 1,5,-1
 218 271 l 1,6,-1
 181 0 l 1,7,-1
 35 0 l 1,8,-1
 132 692 l 1,9,-1
 345 692 l 2,10,11
 468 692 468 692 531 645 c 128,-1,12
 594 598 594 598 594 511 c 0,13,0
 594 440 594 440 557.5 384.5 c 128,-1,1
233 375 m 1,14,-1
 311 375 l 2,15,16
 381 375 381 375 412 413.5 c 128,-1,17
 443 452 443 452 443 505 c 0,18,19
 443 548 443 548 416 567 c 128,-1,20
 389 586 389 586 330 586 c 2,21,-1
 262 586 l 1,22,-1
 233 375 l 1,14,-1
EndSplineSet
Substitution2: "'c2sc' Capitals to Small Capitals lookup 27 subtable" r.sc
Substitution2: "'aalt' Access All Alternates lookup 0 subtable" r.sc
Position2: "'cpsp' Capital Spacing lookup 0 subtable" dx=5 dy=0 dh=10 dv=0
EndChar

StartChar: uni024C
Encoding: 588 588 232
Width: 617
GlyphClass: 2
Flags: W
AnchorPoint: "Anchor-18" 0 0 basechar 0
AnchorPoint: "Anchor-17" 0 0 basechar 0
AnchorPoint: "Anchor-16" 373 692 basechar 0
AnchorPoint: "Anchor-15" 0 0 basechar 0
AnchorPoint: "Anchor-14" 281 0 basechar 0
LayerCount: 2
Fore
SplineSet
569.5 384.5 m 128,-1,1
 533 329 533 329 444 295 c 1,2,-1
 577 0 l 1,3,-1
 417 0 l 1,4,-1
 308 271 l 1,5,-1
 230 271 l 1,6,-1
 193 0 l 1,7,-1
 47 0 l 1,8,-1
 85 271 l 1,9,-1
 14 271 l 1,10,-1
 28 375 l 1,11,-1
 100 375 l 1,12,-1
 144 692 l 1,13,-1
 357 692 l 2,14,15
 480 692 480 692 543 645 c 128,-1,16
 606 598 606 598 606 511 c 0,17,0
 606 440 606 440 569.5 384.5 c 128,-1,1
323 375 m 2,18,19
 393 375 393 375 424 413.5 c 128,-1,20
 455 452 455 452 455 505 c 0,21,22
 455 548 455 548 428 567 c 128,-1,23
 401 586 401 586 342 586 c 2,24,-1
 274 586 l 1,25,-1
 245 375 l 1,26,-1
 323 375 l 2,18,19
EndSplineSet
Substitution2: "'c2sc' Capitals to Small Capitals lookup 27 subtable" uni024D.sc
Substitution2: "'aalt' Access All Alternates lookup 0 subtable" uni024D.sc
Position2: "'cpsp' Capital Spacing lookup 0 subtable" dx=5 dy=0 dh=10 dv=0
EndChar

StartChar: uni2C64
Encoding: 11364 11364 233
Width: 605
GlyphClass: 2
Flags: W
AnchorPoint: "Anchor-18" 0 0 basechar 0
AnchorPoint: "Anchor-17" 0 0 basechar 0
AnchorPoint: "Anchor-16" 361 692 basechar 0
AnchorPoint: "Anchor-15" 0 0 basechar 0
AnchorPoint: "Anchor-14" 269 0 basechar 0
LayerCount: 2
Fore
SplineSet
557.5 384.5 m 128,-1,1
 521 329 521 329 432 295 c 1,2,-1
 565 0 l 1,3,-1
 405 0 l 1,4,-1
 296 271 l 1,5,-1
 218 271 l 1,6,-1
 181 0 l 1,7,-1
 174 -49 l 2,8,9
 173 -55 173 -55 173 -66 c 0,10,11
 173 -111 173 -111 217 -111 c 0,12,13
 239 -111 239 -111 254 -106 c 128,-1,14
 269 -101 269 -101 291 -90 c 1,15,-1
 330 -180 l 1,16,17
 270 -220 270 -220 194 -220 c 0,18,19
 116 -220 116 -220 71.5 -182 c 128,-1,20
 27 -144 27 -144 27 -72 c 0,21,22
 27 -56 27 -56 30 -36 c 2,23,-1
 35 0 l 1,24,-1
 132 692 l 1,25,-1
 345 692 l 2,26,27
 468 692 468 692 531 645 c 128,-1,28
 594 598 594 598 594 511 c 0,29,0
 594 440 594 440 557.5 384.5 c 128,-1,1
233 375 m 1,30,-1
 311 375 l 2,31,32
 381 375 381 375 412 413.5 c 128,-1,33
 443 452 443 452 443 505 c 0,34,35
 443 548 443 548 416 567 c 128,-1,36
 389 586 389 586 330 586 c 2,37,-1
 262 586 l 1,38,-1
 233 375 l 1,30,-1
EndSplineSet
Substitution2: "'ss01' Style Set 1 lookup 34 subtable" uni2C64.ss01
Substitution2: "'salt' Stylistic Alternatives lookup 33 subtable" uni2C64.ss01
Substitution2: "'c2sc' Capitals to Small Capitals lookup 27 subtable" uni2C64.sc
AlternateSubs2: "'aalt' Access All Alternates lookup 1 subtable" uni2C64.sc uni2C64.ss01
Position2: "'cpsp' Capital Spacing lookup 0 subtable" dx=5 dy=0 dh=10 dv=0
EndChar

StartChar: S
Encoding: 83 83 234
Width: 557
GlyphClass: 2
Flags: W
AnchorPoint: "Anchor-18" 0 0 basechar 0
AnchorPoint: "Anchor-17" 0 0 basechar 0
AnchorPoint: "Anchor-16" 346 692 basechar 0
AnchorPoint: "Anchor-15" 0 0 basechar 0
AnchorPoint: "Anchor-14" 238 0 basechar 0
LayerCount: 2
Fore
SplineSet
559 619 m 1,1,-1
 479 540 l 1,2,3
 448 570 448 570 413.5 584 c 128,-1,4
 379 598 379 598 338 598 c 0,5,6
 288 598 288 598 256.5 575 c 128,-1,7
 225 552 225 552 225 512 c 0,8,9
 225 490 225 490 235.5 475 c 128,-1,10
 246 460 246 460 271 447 c 128,-1,11
 296 434 296 434 344 418 c 0,12,13
 432 390 432 390 477 345 c 128,-1,14
 522 300 522 300 522 223 c 0,15,16
 522 162 522 162 492 107.5 c 128,-1,17
 462 53 462 53 397 18.5 c 128,-1,18
 332 -16 332 -16 232 -16 c 0,19,20
 151 -16 151 -16 90 11 c 128,-1,21
 29 38 29 38 -12 83 c 1,22,-1
 73 167 l 1,23,24
 106 133 106 133 145.5 115.5 c 128,-1,25
 185 98 185 98 236 98 c 0,26,27
 297 98 297 98 333 126 c 128,-1,28
 369 154 369 154 369 202 c 0,29,30
 369 239 369 239 344.5 261 c 128,-1,31
 320 283 320 283 256 305 c 0,32,33
 159 338 159 338 116 382.5 c 128,-1,34
 73 427 73 427 73 496 c 0,35,36
 73 550 73 550 102.5 598.5 c 128,-1,37
 132 647 132 647 191 677.5 c 128,-1,38
 250 708 250 708 334 708 c 0,39,0
 473 708 473 708 559 619 c 1,1,-1
EndSplineSet
Substitution2: "'c2sc' Capitals to Small Capitals lookup 27 subtable" s.sc
Substitution2: "'aalt' Access All Alternates lookup 0 subtable" s.sc
Position2: "'cpsp' Capital Spacing lookup 0 subtable" dx=5 dy=0 dh=10 dv=0
EndChar

StartChar: uniA78B
Encoding: 42891 42891 236
Width: 233
GlyphClass: 2
Flags: W
LayerCount: 2
Fore
SplineSet
76 337 m 1,0,-1
 108 692 l 1,1,-1
 246 692 l 1,2,-1
 176 337 l 1,3,-1
 76 337 l 1,0,-1
EndSplineSet
Position2: "'cpsp' Capital Spacing lookup 0 subtable" dx=5 dy=0 dh=10 dv=0
EndChar

StartChar: Scedilla
Encoding: 350 350 238
Width: 557
GlyphClass: 2
Flags: W
AnchorPoint: "Anchor-18" 0 0 basechar 0
AnchorPoint: "Anchor-17" 0 0 basechar 0
AnchorPoint: "Anchor-16" 346 692 basechar 0
AnchorPoint: "Anchor-15" 0 0 basechar 0
AnchorPoint: "Anchor-14" 233 -257 basechar 0
LayerCount: 2
Fore
SplineSet
477 345 m 128,-1,1
 522 300 522 300 522 223 c 0,2,3
 522 167 522 167 497 116.5 c 128,-1,4
 472 66 472 66 417 30.5 c 128,-1,5
 362 -5 362 -5 279 -14 c 1,6,-1
 273 -50 l 1,7,8
 316 -54 316 -54 339 -77.5 c 128,-1,9
 362 -101 362 -101 362 -138 c 0,10,11
 362 -168 362 -168 345.5 -195 c 128,-1,12
 329 -222 329 -222 294.5 -239.5 c 128,-1,13
 260 -257 260 -257 209 -257 c 0,14,15
 146 -257 146 -257 104 -226 c 1,16,-1
 146 -161 l 1,17,18
 173 -177 173 -177 207 -177 c 0,19,20
 230 -177 230 -177 244 -168 c 128,-1,21
 258 -159 258 -159 258 -142 c 0,22,23
 259 -123 259 -123 240 -116 c 128,-1,24
 221 -109 221 -109 173 -109 c 1,25,-1
 196 -15 l 1,26,27
 68 -4 68 -4 -12 83 c 1,28,-1
 73 167 l 1,29,30
 106 133 106 133 145.5 115.5 c 128,-1,31
 185 98 185 98 236 98 c 0,32,33
 297 98 297 98 333 126 c 128,-1,34
 369 154 369 154 369 202 c 0,35,36
 369 239 369 239 344.5 261 c 128,-1,37
 320 283 320 283 256 305 c 0,38,39
 159 338 159 338 116 382.5 c 128,-1,40
 73 427 73 427 73 496 c 0,41,42
 73 550 73 550 102.5 598.5 c 128,-1,43
 132 647 132 647 191 677.5 c 128,-1,44
 250 708 250 708 334 708 c 0,45,46
 473 708 473 708 559 619 c 1,47,-1
 479 540 l 1,48,49
 448 570 448 570 413.5 584 c 128,-1,50
 379 598 379 598 338 598 c 0,51,52
 288 598 288 598 256.5 575 c 128,-1,53
 225 552 225 552 225 512 c 0,54,55
 225 490 225 490 235.5 475 c 128,-1,56
 246 460 246 460 271 447 c 128,-1,57
 296 434 296 434 344 418 c 0,58,0
 432 390 432 390 477 345 c 128,-1,1
EndSplineSet
Substitution2: "'c2sc' Capitals to Small Capitals lookup 27 subtable" scedilla.sc
Substitution2: "'locl' Localized Forms in Latin lookup 5 subtable" Scommaaccent
Substitution2: "'locl' Localized Forms in Latin lookup 4 subtable" Scommaaccent
AlternateSubs2: "'aalt' Access All Alternates lookup 1 subtable" Scommaaccent scedilla.sc
Position2: "'cpsp' Capital Spacing lookup 0 subtable" dx=5 dy=0 dh=10 dv=0
EndChar

StartChar: uni1E9E
Encoding: 7838 7838 243
Width: 656
GlyphClass: 2
Flags: W
LayerCount: 2
Fore
SplineSet
505 687 m 128,-1,1
 570 666 570 666 634 631 c 1,2,-1
 626 560 l 1,3,-1
 452 392 l 1,4,5
 619 365 619 365 619 224 c 0,6,7
 619 153 619 153 585 98.5 c 128,-1,8
 551 44 551 44 491 14 c 128,-1,9
 431 -16 431 -16 356 -16 c 256,10,11
 281 -16 281 -16 232 11 c 1,12,-1
 286 107 l 1,13,14
 307 97 307 97 349 97 c 0,15,16
 404 97 404 97 435.5 131.5 c 128,-1,17
 467 166 467 166 467 219 c 0,18,19
 467 268 467 268 429 291.5 c 128,-1,20
 391 315 391 315 310 317 c 1,21,-1
 320 400 l 1,22,-1
 493 574 l 1,23,24
 427 598 427 598 365 598 c 0,25,26
 265 598 265 598 249 487 c 2,27,-1
 181 0 l 1,28,-1
 35 0 l 1,29,-1
 103 488 l 2,30,31
 118 593 118 593 185 650.5 c 128,-1,32
 252 708 252 708 365 708 c 0,33,0
 440 708 440 708 505 687 c 128,-1,1
EndSplineSet
Substitution2: "'c2sc' Capitals to Small Capitals lookup 27 subtable" germandbls.sc
Substitution2: "'aalt' Access All Alternates lookup 0 subtable" germandbls.sc
Position2: "'cpsp' Capital Spacing lookup 0 subtable" dx=5 dy=0 dh=10 dv=0
EndChar

StartChar: T
Encoding: 84 84 245
Width: 526
GlyphClass: 2
Flags: W
AnchorPoint: "Anchor-18" 275 346 basechar 0
AnchorPoint: "Anchor-17" 0 0 basechar 0
AnchorPoint: "Anchor-16" 323 692 basechar 0
AnchorPoint: "Anchor-15" 0 0 basechar 0
AnchorPoint: "Anchor-14" 226 0 basechar 0
LayerCount: 2
Fore
SplineSet
584 692 m 1,0,-1
 552 577 l 1,1,-1
 379 577 l 1,2,-1
 298 0 l 1,3,-1
 153 0 l 1,4,-1
 234 577 l 1,5,-1
 53 577 l 1,6,-1
 69 692 l 1,7,-1
 584 692 l 1,0,-1
EndSplineSet
Substitution2: "'c2sc' Capitals to Small Capitals lookup 27 subtable" t.sc
Substitution2: "'aalt' Access All Alternates lookup 0 subtable" t.sc
Position2: "'cpsp' Capital Spacing lookup 0 subtable" dx=5 dy=0 dh=10 dv=0
EndChar

StartChar: Tbar
Encoding: 358 358 246
Width: 526
GlyphClass: 2
Flags: W
AnchorPoint: "Anchor-18" 275 346 basechar 0
AnchorPoint: "Anchor-17" 0 0 basechar 0
AnchorPoint: "Anchor-16" 323 692 basechar 0
AnchorPoint: "Anchor-15" 0 0 basechar 0
AnchorPoint: "Anchor-14" 226 0 basechar 0
LayerCount: 2
Fore
SplineSet
552 577 m 1,0,-1
 379 577 l 1,1,-1
 353 390 l 1,2,-1
 467 390 l 1,3,-1
 455 303 l 1,4,-1
 341 303 l 1,5,-1
 298 0 l 1,6,-1
 153 0 l 1,7,-1
 196 303 l 1,8,-1
 82 303 l 1,9,-1
 93 390 l 1,10,-1
 208 390 l 1,11,-1
 234 577 l 1,12,-1
 53 577 l 1,13,-1
 69 692 l 1,14,-1
 584 692 l 1,15,-1
 552 577 l 1,0,-1
EndSplineSet
Substitution2: "'c2sc' Capitals to Small Capitals lookup 27 subtable" tbar.sc
Substitution2: "'aalt' Access All Alternates lookup 0 subtable" tbar.sc
Position2: "'cpsp' Capital Spacing lookup 0 subtable" dx=5 dy=0 dh=10 dv=0
EndChar

StartChar: uni0162
Encoding: 354 354 248
Width: 526
GlyphClass: 2
Flags: W
AnchorPoint: "Anchor-18" 275 346 basechar 0
AnchorPoint: "Anchor-17" 0 0 basechar 0
AnchorPoint: "Anchor-16" 323 692 basechar 0
AnchorPoint: "Anchor-15" 0 0 basechar 0
AnchorPoint: "Anchor-14" 226 0 basechar 0
LayerCount: 2
Fore
SplineSet
584 692 m 1,0,-1
 552 577 l 1,1,-1
 379 577 l 1,2,-1
 298 0 l 1,3,-1
 299 0 l 1,4,-1
 291 -50 l 1,5,6
 335 -54 335 -54 357 -77 c 128,-1,7
 379 -100 379 -100 379 -136 c 0,8,9
 379 -165 379 -165 363 -192.5 c 128,-1,10
 347 -220 347 -220 312 -238.5 c 128,-1,11
 277 -257 277 -257 224 -257 c 0,12,13
 192 -257 192 -257 165.5 -248.5 c 128,-1,14
 139 -240 139 -240 121 -226 c 1,15,-1
 163 -161 l 1,16,17
 190 -177 190 -177 221 -177 c 0,18,19
 245 -177 245 -177 260 -167.5 c 128,-1,20
 275 -158 275 -158 275 -140 c 0,21,22
 275 -123 275 -123 256 -116 c 128,-1,23
 237 -109 237 -109 190 -109 c 1,24,-1
 217 0 l 1,25,-1
 153 0 l 1,26,-1
 234 577 l 1,27,-1
 53 577 l 1,28,-1
 69 692 l 1,29,-1
 584 692 l 1,0,-1
EndSplineSet
Substitution2: "'c2sc' Capitals to Small Capitals lookup 27 subtable" uni0163.sc
Substitution2: "'locl' Localized Forms in Latin lookup 5 subtable" uni021A
Substitution2: "'locl' Localized Forms in Latin lookup 4 subtable" uni021A
AlternateSubs2: "'aalt' Access All Alternates lookup 1 subtable" uni021A uni0163.sc
Position2: "'cpsp' Capital Spacing lookup 0 subtable" dx=5 dy=0 dh=10 dv=0
EndChar

StartChar: uni023E
Encoding: 574 574 251
Width: 526
GlyphClass: 2
Flags: W
AnchorPoint: "Anchor-18" 0 0 basechar 0
AnchorPoint: "Anchor-17" 0 0 basechar 0
AnchorPoint: "Anchor-16" 323 692 basechar 0
AnchorPoint: "Anchor-15" 0 0 basechar 0
AnchorPoint: "Anchor-14" 226 0 basechar 0
LayerCount: 2
Fore
SplineSet
553 581 m 1,0,-1
 463 581 l 1,1,-1
 340 354 l 1,2,-1
 291 0 l 1,3,-1
 161 0 l 1,4,-1
 165 29 l 1,5,-1
 110 -73 l 1,6,-1
 66 -53 l 1,7,-1
 184 166 l 1,8,-1
 242 581 l 1,9,-1
 54 581 l 1,10,-1
 69 692 l 1,11,-1
 469 692 l 1,12,-1
 502 754 l 1,13,-1
 545 734 l 1,14,-1
 522 692 l 1,15,-1
 584 692 l 1,16,-1
 553 581 l 1,0,-1
359 490 m 1,17,-1
 409 581 l 1,18,-1
 372 581 l 1,19,-1
 359 490 l 1,17,-1
EndSplineSet
Substitution2: "'c2sc' Capitals to Small Capitals lookup 27 subtable" uni2C66.sc
Substitution2: "'aalt' Access All Alternates lookup 0 subtable" uni2C66.sc
Position2: "'cpsp' Capital Spacing lookup 0 subtable" dx=5 dy=0 dh=10 dv=0
EndChar

StartChar: uni01AC
Encoding: 428 428 254
Width: 577
GlyphClass: 2
Flags: W
AnchorPoint: "Anchor-18" 0 0 basechar 0
AnchorPoint: "Anchor-17" 0 0 basechar 0
AnchorPoint: "Anchor-16" 348 692 basechar 0
AnchorPoint: "Anchor-15" 0 0 basechar 0
AnchorPoint: "Anchor-14" 276 0 basechar 0
LayerCount: 2
Fore
SplineSet
603 577 m 1,0,-1
 430 577 l 1,1,-1
 349 0 l 1,2,-1
 204 0 l 1,3,-1
 284 577 l 1,4,-1
 214 577 l 2,5,6
 188 577 188 577 174.5 562.5 c 128,-1,7
 161 548 161 548 161 523 c 0,8,9
 161 504 161 504 169 474 c 1,10,-1
 70 434 l 1,11,12
 58 459 58 459 51 481.5 c 128,-1,13
 44 504 44 504 44 530 c 0,14,15
 44 604 44 604 92.5 648 c 128,-1,16
 141 692 141 692 221 692 c 2,17,-1
 635 692 l 1,18,-1
 603 577 l 1,0,-1
EndSplineSet
Substitution2: "'c2sc' Capitals to Small Capitals lookup 27 subtable" uni01AD.sc
Substitution2: "'aalt' Access All Alternates lookup 0 subtable" uni01AD.sc
Position2: "'cpsp' Capital Spacing lookup 0 subtable" dx=5 dy=0 dh=10 dv=0
EndChar

StartChar: uni0184
Encoding: 388 388 257
Width: 591
GlyphClass: 2
Flags: W
AnchorPoint: "Anchor-18" 0 0 basechar 0
AnchorPoint: "Anchor-17" 0 0 basechar 0
AnchorPoint: "Anchor-16" 356 692 basechar 0
AnchorPoint: "Anchor-15" 0 0 basechar 0
AnchorPoint: "Anchor-14" 258 0 basechar 0
LayerCount: 2
Fore
SplineSet
508.5 402.5 m 128,-1,1
 572 353 572 353 572 258 c 0,2,3
 572 191 572 191 541.5 132.5 c 128,-1,4
 511 74 511 74 443.5 37 c 128,-1,5
 376 0 376 0 271 0 c 2,6,-1
 45 0 l 1,7,-1
 116 499 l 1,8,-1
 49 548 l 1,9,10
 112 605 112 605 165 692 c 1,11,-1
 288 692 l 1,12,-1
 254 452 l 1,13,-1
 329 452 l 2,14,0
 445 452 445 452 508.5 402.5 c 128,-1,1
386.5 150.5 m 128,-1,16
 419 192 419 192 419 250 c 0,17,18
 419 347 419 347 308 347 c 2,19,-1
 239 347 l 1,20,-1
 206 109 l 1,21,-1
 275 109 l 2,22,15
 354 109 354 109 386.5 150.5 c 128,-1,16
EndSplineSet
Substitution2: "'c2sc' Capitals to Small Capitals lookup 27 subtable" uni0185.sc
Substitution2: "'aalt' Access All Alternates lookup 0 subtable" uni0185.sc
Position2: "'cpsp' Capital Spacing lookup 0 subtable" dx=5 dy=0 dh=10 dv=0
EndChar

StartChar: uni01A7
Encoding: 423 423 258
Width: 548
GlyphClass: 2
Flags: W
AnchorPoint: "Anchor-18" 0 0 basechar 0
AnchorPoint: "Anchor-17" 0 0 basechar 0
AnchorPoint: "Anchor-16" 334 692 basechar 0
AnchorPoint: "Anchor-15" 0 0 basechar 0
AnchorPoint: "Anchor-14" 237 0 basechar 0
LayerCount: 2
Fore
SplineSet
495.5 663 m 128,-1,1
 553 618 553 618 553 541 c 0,2,3
 553 449 553 449 494 395.5 c 128,-1,4
 435 342 435 342 316 306 c 0,5,6
 231 281 231 281 198 251 c 128,-1,7
 165 221 165 221 165 173 c 0,8,9
 165 137 165 137 191 117 c 128,-1,10
 217 97 217 97 262 97 c 0,11,12
 353 97 353 97 444 165 c 1,13,-1
 509 79 l 1,14,15
 397 -16 397 -16 244 -16 c 0,16,17
 173 -16 173 -16 121.5 7.5 c 128,-1,18
 70 31 70 31 42.5 73 c 128,-1,19
 15 115 15 115 15 169 c 0,20,21
 15 265 15 265 72 322.5 c 128,-1,22
 129 380 129 380 245 415 c 0,23,24
 305 433 305 433 338.5 448.5 c 128,-1,25
 372 464 372 464 388 484 c 128,-1,26
 404 504 404 504 404 535 c 0,27,28
 404 598 404 598 323 598 c 0,29,30
 278 598 278 598 238.5 583.5 c 128,-1,31
 199 569 199 569 157 539 c 1,32,-1
 97 623 l 1,33,34
 151 666 151 666 211 687 c 128,-1,35
 271 708 271 708 343 708 c 0,36,0
 438 708 438 708 495.5 663 c 128,-1,1
EndSplineSet
Substitution2: "'c2sc' Capitals to Small Capitals lookup 27 subtable" uni01A8.sc
Substitution2: "'aalt' Access All Alternates lookup 0 subtable" uni01A8.sc
Position2: "'cpsp' Capital Spacing lookup 0 subtable" dx=5 dy=0 dh=10 dv=0
EndChar

StartChar: uni01AE
Encoding: 430 430 259
Width: 526
GlyphClass: 2
Flags: W
AnchorPoint: "Anchor-18" 275 346 basechar 0
AnchorPoint: "Anchor-17" 0 0 basechar 0
AnchorPoint: "Anchor-16" 323 692 basechar 0
AnchorPoint: "Anchor-15" 0 0 basechar 0
AnchorPoint: "Anchor-14" 226 0 basechar 0
LayerCount: 2
Fore
SplineSet
291 -49 m 2,0,1
 290 -55 290 -55 290 -66 c 0,2,3
 290 -111 290 -111 334 -111 c 0,4,5
 356 -111 356 -111 371 -106 c 128,-1,6
 386 -101 386 -101 408 -90 c 1,7,-1
 447 -180 l 1,8,9
 387 -220 387 -220 311 -220 c 0,10,11
 233 -220 233 -220 188.5 -182 c 128,-1,12
 144 -144 144 -144 144 -72 c 0,13,14
 144 -56 144 -56 147 -36 c 2,15,-1
 152 0 l 1,16,-1
 153 0 l 1,17,-1
 234 577 l 1,18,-1
 53 577 l 1,19,-1
 69 692 l 1,20,-1
 584 692 l 1,21,-1
 552 577 l 1,22,-1
 379 577 l 1,23,-1
 298 0 l 1,24,-1
 291 -49 l 2,0,1
EndSplineSet
Substitution2: "'c2sc' Capitals to Small Capitals lookup 27 subtable" uni0288.sc
Substitution2: "'aalt' Access All Alternates lookup 0 subtable" uni0288.sc
Position2: "'cpsp' Capital Spacing lookup 0 subtable" dx=5 dy=0 dh=10 dv=0
EndChar

StartChar: U
Encoding: 85 85 260
Width: 645
GlyphClass: 2
Flags: W
AnchorPoint: "Anchor-18" 0 0 basechar 0
AnchorPoint: "Anchor-17" 652 692 basechar 0
AnchorPoint: "Anchor-16" 382 692 basechar 0
AnchorPoint: "Anchor-15" 400 0 basechar 0
AnchorPoint: "Anchor-14" 285 0 basechar 0
LayerCount: 2
Fore
SplineSet
577 226 m 2,0,1
 567 155 567 155 530 100.5 c 128,-1,2
 493 46 493 46 430.5 15 c 128,-1,3
 368 -16 368 -16 285 -16 c 0,4,5
 171 -16 171 -16 112.5 38.5 c 128,-1,6
 54 93 54 93 54 186 c 0,7,8
 54 208 54 208 57 230 c 2,9,-1
 122 692 l 1,10,-1
 268 692 l 1,11,-1
 203 233 l 2,12,13
 200 211 200 211 200 193 c 0,14,15
 200 144 200 144 223 120.5 c 128,-1,16
 246 97 246 97 295 97 c 0,17,18
 356 97 356 97 389 131.5 c 128,-1,19
 422 166 422 166 432 237 c 2,20,-1
 497 692 l 1,21,-1
 642 692 l 1,22,-1
 577 226 l 2,0,1
EndSplineSet
Substitution2: "'c2sc' Capitals to Small Capitals lookup 27 subtable" u.sc
Substitution2: "'aalt' Access All Alternates lookup 0 subtable" u.sc
Position2: "'cpsp' Capital Spacing lookup 0 subtable" dx=5 dy=0 dh=10 dv=0
EndChar

StartChar: uni0244
Encoding: 580 580 262
Width: 681
GlyphClass: 2
Flags: W
AnchorPoint: "Anchor-18" 0 0 basechar 0
AnchorPoint: "Anchor-17" 669 692 basechar 0
AnchorPoint: "Anchor-16" 399 692 basechar 0
AnchorPoint: "Anchor-15" 417 0 basechar 0
AnchorPoint: "Anchor-14" 302 0 basechar 0
LayerCount: 2
Fore
SplineSet
692 502 m 1,0,-1
 632 502 l 1,1,-1
 594 226 l 2,2,3
 584 155 584 155 547 100.5 c 128,-1,4
 510 46 510 46 447.5 15 c 128,-1,5
 385 -16 385 -16 302 -16 c 0,6,7
 188 -16 188 -16 129.5 38.5 c 128,-1,8
 71 93 71 93 71 186 c 0,9,10
 71 208 71 208 74 230 c 2,11,-1
 112 502 l 1,12,-1
 54 502 l 1,13,-1
 66 588 l 1,14,-1
 124 588 l 1,15,-1
 139 692 l 1,16,-1
 285 692 l 1,17,-1
 270 588 l 1,18,-1
 499 588 l 1,19,-1
 514 692 l 1,20,-1
 659 692 l 1,21,-1
 644 588 l 1,22,-1
 704 588 l 1,23,-1
 692 502 l 1,0,-1
487 502 m 1,24,-1
 258 502 l 1,25,-1
 220 233 l 2,26,27
 217 211 217 211 217 193 c 0,28,29
 217 144 217 144 240 120.5 c 128,-1,30
 263 97 263 97 312 97 c 0,31,32
 373 97 373 97 406 131.5 c 128,-1,33
 439 166 439 166 449 237 c 2,34,-1
 487 502 l 1,24,-1
EndSplineSet
Substitution2: "'c2sc' Capitals to Small Capitals lookup 27 subtable" uni0289.sc
Substitution2: "'aalt' Access All Alternates lookup 0 subtable" uni0289.sc
Position2: "'cpsp' Capital Spacing lookup 0 subtable" dx=5 dy=0 dh=10 dv=0
EndChar

StartChar: Uhorn
Encoding: 431 431 275
Width: 700
GlyphClass: 2
Flags: W
AnchorPoint: "Anchor-18" 0 0 basechar 0
AnchorPoint: "Anchor-17" 704 692 basechar 0
AnchorPoint: "Anchor-16" 382 692 basechar 0
AnchorPoint: "Anchor-15" 400 0 basechar 0
AnchorPoint: "Anchor-14" 285 0 basechar 0
LayerCount: 2
Fore
SplineSet
740.5 604.5 m 128,-1,1
 700 566 700 566 624 564 c 1,2,-1
 577 226 l 2,3,4
 567 155 567 155 530 100.5 c 128,-1,5
 493 46 493 46 430.5 15 c 128,-1,6
 368 -16 368 -16 285 -16 c 0,7,8
 171 -16 171 -16 112.5 38.5 c 128,-1,9
 54 93 54 93 54 186 c 0,10,11
 54 208 54 208 57 230 c 2,12,-1
 122 692 l 1,13,-1
 268 692 l 1,14,-1
 203 233 l 2,15,16
 200 211 200 211 200 193 c 0,17,18
 200 144 200 144 223 120.5 c 128,-1,19
 246 97 246 97 295 97 c 0,20,21
 356 97 356 97 389 131.5 c 128,-1,22
 422 166 422 166 432 237 c 2,23,-1
 497 692 l 1,24,-1
 642 692 l 1,25,-1
 635 639 l 1,26,27
 682 650 682 650 682 713 c 0,28,29
 682 737 682 737 677 760 c 1,30,-1
 772 771 l 1,31,32
 781 746 781 746 781 714 c 0,33,0
 781 643 781 643 740.5 604.5 c 128,-1,1
EndSplineSet
Substitution2: "'c2sc' Capitals to Small Capitals lookup 27 subtable" uhorn.sc
Substitution2: "'aalt' Access All Alternates lookup 0 subtable" uhorn.sc
Position2: "'cpsp' Capital Spacing lookup 0 subtable" dx=5 dy=0 dh=10 dv=0
EndChar

StartChar: uni1EE8
Encoding: 7912 7912 276
Width: 700
GlyphClass: 2
Flags: W
AnchorPoint: "Anchor-18" 0 0 basechar 0
AnchorPoint: "Anchor-17" 704 692 basechar 0
AnchorPoint: "Anchor-16" 405 946 basechar 0
AnchorPoint: "Anchor-15" 400 0 basechar 0
AnchorPoint: "Anchor-14" 285 0 basechar 0
LayerCount: 2
Fore
SplineSet
542 831 m 1,0,-1
 303 749 l 1,1,-1
 273 820 l 1,2,-1
 498 940 l 1,3,-1
 542 831 l 1,0,-1
740.5 604.5 m 128,-1,5
 700 566 700 566 624 564 c 1,6,-1
 577 226 l 2,7,8
 567 155 567 155 530 100.5 c 128,-1,9
 493 46 493 46 430.5 15 c 128,-1,10
 368 -16 368 -16 285 -16 c 0,11,12
 171 -16 171 -16 112.5 38.5 c 128,-1,13
 54 93 54 93 54 186 c 0,14,15
 54 208 54 208 57 230 c 2,16,-1
 122 692 l 1,17,-1
 268 692 l 1,18,-1
 203 233 l 2,19,20
 200 211 200 211 200 193 c 0,21,22
 200 144 200 144 223 120.5 c 128,-1,23
 246 97 246 97 295 97 c 0,24,25
 356 97 356 97 389 131.5 c 128,-1,26
 422 166 422 166 432 237 c 2,27,-1
 497 692 l 1,28,-1
 642 692 l 1,29,-1
 635 639 l 1,30,31
 682 650 682 650 682 713 c 0,32,33
 682 737 682 737 677 760 c 1,34,-1
 772 771 l 1,35,36
 781 746 781 746 781 714 c 0,37,4
 781 643 781 643 740.5 604.5 c 128,-1,5
EndSplineSet
Substitution2: "'c2sc' Capitals to Small Capitals lookup 27 subtable" uni1EE9.sc
Substitution2: "'aalt' Access All Alternates lookup 0 subtable" uni1EE9.sc
Position2: "'cpsp' Capital Spacing lookup 0 subtable" dx=5 dy=0 dh=10 dv=0
EndChar

StartChar: uni1EF0
Encoding: 7920 7920 277
Width: 700
GlyphClass: 2
Flags: W
AnchorPoint: "Anchor-18" 0 0 basechar 0
AnchorPoint: "Anchor-17" 704 692 basechar 0
AnchorPoint: "Anchor-16" 382 692 basechar 0
AnchorPoint: "Anchor-15" 400 0 basechar 0
AnchorPoint: "Anchor-14" 259 -230 basechar 0
LayerCount: 2
Fore
SplineSet
740.5 604.5 m 128,-1,1
 700 566 700 566 624 564 c 1,2,-1
 577 226 l 2,3,4
 567 155 567 155 530 100.5 c 128,-1,5
 493 46 493 46 430.5 15 c 128,-1,6
 368 -16 368 -16 285 -16 c 0,7,8
 171 -16 171 -16 112.5 38.5 c 128,-1,9
 54 93 54 93 54 186 c 0,10,11
 54 208 54 208 57 230 c 2,12,-1
 122 692 l 1,13,-1
 268 692 l 1,14,-1
 203 233 l 2,15,16
 200 211 200 211 200 193 c 0,17,18
 200 144 200 144 223 120.5 c 128,-1,19
 246 97 246 97 295 97 c 0,20,21
 356 97 356 97 389 131.5 c 128,-1,22
 422 166 422 166 432 237 c 2,23,-1
 497 692 l 1,24,-1
 642 692 l 1,25,-1
 635 639 l 1,26,27
 682 650 682 650 682 713 c 0,28,29
 682 737 682 737 677 760 c 1,30,-1
 772 771 l 1,31,32
 781 746 781 746 781 714 c 0,33,0
 781 643 781 643 740.5 604.5 c 128,-1,1
328 -85 m 128,-1,35
 349 -106 349 -106 349 -138 c 0,36,37
 349 -178 349 -178 322 -204 c 128,-1,38
 295 -230 295 -230 255 -230 c 0,39,40
 220 -230 220 -230 199 -209.5 c 128,-1,41
 178 -189 178 -189 178 -156 c 0,42,43
 178 -116 178 -116 205 -90 c 128,-1,44
 232 -64 232 -64 272 -64 c 0,45,34
 307 -64 307 -64 328 -85 c 128,-1,35
EndSplineSet
Substitution2: "'c2sc' Capitals to Small Capitals lookup 27 subtable" uni1EF1.sc
Substitution2: "'aalt' Access All Alternates lookup 0 subtable" uni1EF1.sc
Position2: "'cpsp' Capital Spacing lookup 0 subtable" dx=5 dy=0 dh=10 dv=0
EndChar

StartChar: uni1EEA
Encoding: 7914 7914 278
Width: 700
GlyphClass: 2
Flags: W
AnchorPoint: "Anchor-18" 0 0 basechar 0
AnchorPoint: "Anchor-17" 704 692 basechar 0
AnchorPoint: "Anchor-16" 406 947 basechar 0
AnchorPoint: "Anchor-15" 400 0 basechar 0
AnchorPoint: "Anchor-14" 285 0 basechar 0
LayerCount: 2
Fore
SplineSet
535 820 m 1,0,-1
 497 749 l 1,1,-1
 279 830 l 1,2,-1
 339 939 l 1,3,-1
 535 820 l 1,0,-1
740.5 604.5 m 128,-1,5
 700 566 700 566 624 564 c 1,6,-1
 577 226 l 2,7,8
 567 155 567 155 530 100.5 c 128,-1,9
 493 46 493 46 430.5 15 c 128,-1,10
 368 -16 368 -16 285 -16 c 0,11,12
 171 -16 171 -16 112.5 38.5 c 128,-1,13
 54 93 54 93 54 186 c 0,14,15
 54 208 54 208 57 230 c 2,16,-1
 122 692 l 1,17,-1
 268 692 l 1,18,-1
 203 233 l 2,19,20
 200 211 200 211 200 193 c 0,21,22
 200 144 200 144 223 120.5 c 128,-1,23
 246 97 246 97 295 97 c 0,24,25
 356 97 356 97 389 131.5 c 128,-1,26
 422 166 422 166 432 237 c 2,27,-1
 497 692 l 1,28,-1
 642 692 l 1,29,-1
 635 639 l 1,30,31
 682 650 682 650 682 713 c 0,32,33
 682 737 682 737 677 760 c 1,34,-1
 772 771 l 1,35,36
 781 746 781 746 781 714 c 0,37,4
 781 643 781 643 740.5 604.5 c 128,-1,5
EndSplineSet
Substitution2: "'c2sc' Capitals to Small Capitals lookup 27 subtable" uni1EEB.sc
Substitution2: "'aalt' Access All Alternates lookup 0 subtable" uni1EEB.sc
Position2: "'cpsp' Capital Spacing lookup 0 subtable" dx=5 dy=0 dh=10 dv=0
EndChar

StartChar: uni1EEC
Encoding: 7916 7916 279
Width: 700
GlyphClass: 2
Flags: W
AnchorPoint: "Anchor-18" 0 0 basechar 0
AnchorPoint: "Anchor-17" 704 692 basechar 0
AnchorPoint: "Anchor-16" 429 998 basechar 0
AnchorPoint: "Anchor-15" 400 0 basechar 0
AnchorPoint: "Anchor-14" 285 0 basechar 0
LayerCount: 2
Fore
SplineSet
342 909 m 1,1,-1
 323 973 l 1,2,3
 370 998 370 998 426 998 c 0,4,5
 480 998 480 998 509 971.5 c 128,-1,6
 538 945 538 945 538 904 c 0,7,8
 538 825 538 825 442 807 c 1,9,-1
 436 763 l 1,10,-1
 350 763 l 1,11,-1
 359 852 l 1,12,13
 397 854 397 854 417 864.5 c 128,-1,14
 437 875 437 875 437 897 c 0,15,16
 437 923 437 923 402 923 c 0,17,0
 373 923 373 923 342 909 c 1,1,-1
740.5 604.5 m 128,-1,19
 700 566 700 566 624 564 c 1,20,-1
 577 226 l 2,21,22
 567 155 567 155 530 100.5 c 128,-1,23
 493 46 493 46 430.5 15 c 128,-1,24
 368 -16 368 -16 285 -16 c 0,25,26
 171 -16 171 -16 112.5 38.5 c 128,-1,27
 54 93 54 93 54 186 c 0,28,29
 54 208 54 208 57 230 c 2,30,-1
 122 692 l 1,31,-1
 268 692 l 1,32,-1
 203 233 l 2,33,34
 200 211 200 211 200 193 c 0,35,36
 200 144 200 144 223 120.5 c 128,-1,37
 246 97 246 97 295 97 c 0,38,39
 356 97 356 97 389 131.5 c 128,-1,40
 422 166 422 166 432 237 c 2,41,-1
 497 692 l 1,42,-1
 642 692 l 1,43,-1
 635 639 l 1,44,45
 682 650 682 650 682 713 c 0,46,47
 682 737 682 737 677 760 c 1,48,-1
 772 771 l 1,49,50
 781 746 781 746 781 714 c 0,51,18
 781 643 781 643 740.5 604.5 c 128,-1,19
EndSplineSet
Substitution2: "'c2sc' Capitals to Small Capitals lookup 27 subtable" uni1EED.sc
Substitution2: "'aalt' Access All Alternates lookup 0 subtable" uni1EED.sc
Position2: "'cpsp' Capital Spacing lookup 0 subtable" dx=5 dy=0 dh=10 dv=0
EndChar

StartChar: uni1EEE
Encoding: 7918 7918 280
Width: 700
GlyphClass: 2
Flags: W
AnchorPoint: "Anchor-18" 0 0 basechar 0
AnchorPoint: "Anchor-17" 704 692 basechar 0
AnchorPoint: "Anchor-16" 406 914 basechar 0
AnchorPoint: "Anchor-15" 400 0 basechar 0
AnchorPoint: "Anchor-14" 285 0 basechar 0
LayerCount: 2
Fore
SplineSet
315 800 m 128,-1,1
 302 789 302 789 285 765 c 1,2,-1
 217 804 l 1,3,4
 243 853 243 853 278 883.5 c 128,-1,5
 313 914 313 914 352 914 c 0,6,7
 374 914 374 914 389 907 c 128,-1,8
 404 900 404 900 423 886 c 0,9,10
 435 877 435 877 443 872.5 c 128,-1,11
 451 868 451 868 460 868 c 0,12,13
 476 868 476 868 489.5 878.5 c 128,-1,14
 503 889 503 889 520 913 c 1,15,-1
 588 874 l 1,16,17
 562 824 562 824 527 795 c 128,-1,18
 492 766 492 766 455 766 c 0,19,20
 435 766 435 766 419.5 773 c 128,-1,21
 404 780 404 780 385 793 c 0,22,23
 372 802 372 802 363.5 806.5 c 128,-1,24
 355 811 355 811 346 811 c 0,25,0
 328 811 328 811 315 800 c 128,-1,1
740.5 604.5 m 128,-1,27
 700 566 700 566 624 564 c 1,28,-1
 577 226 l 2,29,30
 567 155 567 155 530 100.5 c 128,-1,31
 493 46 493 46 430.5 15 c 128,-1,32
 368 -16 368 -16 285 -16 c 0,33,34
 171 -16 171 -16 112.5 38.5 c 128,-1,35
 54 93 54 93 54 186 c 0,36,37
 54 208 54 208 57 230 c 2,38,-1
 122 692 l 1,39,-1
 268 692 l 1,40,-1
 203 233 l 2,41,42
 200 211 200 211 200 193 c 0,43,44
 200 144 200 144 223 120.5 c 128,-1,45
 246 97 246 97 295 97 c 0,46,47
 356 97 356 97 389 131.5 c 128,-1,48
 422 166 422 166 432 237 c 2,49,-1
 497 692 l 1,50,-1
 642 692 l 1,51,-1
 635 639 l 1,52,53
 682 650 682 650 682 713 c 0,54,55
 682 737 682 737 677 760 c 1,56,-1
 772 771 l 1,57,58
 781 746 781 746 781 714 c 0,59,26
 781 643 781 643 740.5 604.5 c 128,-1,27
EndSplineSet
Substitution2: "'c2sc' Capitals to Small Capitals lookup 27 subtable" uni1EEF.sc
Substitution2: "'aalt' Access All Alternates lookup 0 subtable" uni1EEF.sc
Position2: "'cpsp' Capital Spacing lookup 0 subtable" dx=5 dy=0 dh=10 dv=0
EndChar

StartChar: Uogonek
Encoding: 370 370 284
Width: 645
GlyphClass: 2
Flags: W
AnchorPoint: "Anchor-18" 0 0 basechar 0
AnchorPoint: "Anchor-17" 652 692 basechar 0
AnchorPoint: "Anchor-16" 382 692 basechar 0
AnchorPoint: "Anchor-15" 400 0 basechar 0
AnchorPoint: "Anchor-14" 285 0 basechar 0
LayerCount: 2
Fore
SplineSet
642 692 m 1,0,-1
 577 226 l 2,1,2
 566 141 566 141 514.5 80 c 128,-1,3
 463 19 463 19 379 -4 c 1,4,5
 313 -31 313 -31 288.5 -57 c 128,-1,6
 264 -83 264 -83 264 -111 c 0,7,8
 264 -151 264 -151 314 -151 c 0,9,10
 344 -151 344 -151 376 -144 c 1,11,-1
 359 -235 l 1,12,13
 322 -242 322 -242 290 -242 c 0,14,15
 229 -242 229 -242 192.5 -213.5 c 128,-1,16
 156 -185 156 -185 156 -137 c 0,17,18
 156 -96 156 -96 181 -65 c 128,-1,19
 206 -34 206 -34 251 -15 c 1,20,21
 154 -7 154 -7 104 46.5 c 128,-1,22
 54 100 54 100 54 185 c 0,23,24
 54 208 54 208 57 230 c 2,25,-1
 122 692 l 1,26,-1
 268 692 l 1,27,-1
 203 233 l 2,28,29
 200 211 200 211 200 193 c 0,30,31
 200 144 200 144 223 120.5 c 128,-1,32
 246 97 246 97 295 97 c 0,33,34
 356 97 356 97 389 131.5 c 128,-1,35
 422 166 422 166 432 237 c 2,36,-1
 497 692 l 1,37,-1
 642 692 l 1,0,-1
EndSplineSet
Substitution2: "'c2sc' Capitals to Small Capitals lookup 27 subtable" uogonek.sc
Substitution2: "'aalt' Access All Alternates lookup 0 subtable" uogonek.sc
Position2: "'cpsp' Capital Spacing lookup 0 subtable" dx=5 dy=0 dh=10 dv=0
EndChar

StartChar: uni01B1
Encoding: 433 433 285
Width: 682
GlyphClass: 2
Flags: W
AnchorPoint: "Anchor-18" 0 0 basechar 0
AnchorPoint: "Anchor-17" 0 0 basechar 0
AnchorPoint: "Anchor-16" 402 692 basechar 0
AnchorPoint: "Anchor-15" 0 0 basechar 0
AnchorPoint: "Anchor-14" 304 0 basechar 0
LayerCount: 2
Fore
SplineSet
162.5 17.5 m 128,-1,1
 103 51 103 51 71.5 111 c 128,-1,2
 40 171 40 171 40 249 c 0,3,4
 40 467 40 467 217 585 c 1,5,-1
 105 585 l 1,6,-1
 119 692 l 1,7,-1
 344 692 l 1,8,-1
 330 587 l 1,9,10
 260 522 260 522 226 433.5 c 128,-1,11
 192 345 192 345 192 247 c 0,12,13
 192 171 192 171 223 133 c 128,-1,14
 254 95 254 95 314 95 c 0,15,16
 379 95 379 95 422 137 c 128,-1,17
 465 179 465 179 485.5 246.5 c 128,-1,18
 506 314 506 314 506 392 c 0,19,20
 506 461 506 461 490.5 506 c 128,-1,21
 475 551 475 551 445 590 c 1,22,-1
 459 692 l 1,23,-1
 682 692 l 1,24,-1
 668 582 l 1,25,-1
 559 582 l 1,26,27
 654 506 654 506 654 371 c 0,28,29
 654 262 654 262 610.5 173.5 c 128,-1,30
 567 85 567 85 487.5 34.5 c 128,-1,31
 408 -16 408 -16 305 -16 c 0,32,0
 222 -16 222 -16 162.5 17.5 c 128,-1,1
EndSplineSet
Substitution2: "'c2sc' Capitals to Small Capitals lookup 27 subtable" uni01B1.sc
Substitution2: "'aalt' Access All Alternates lookup 0 subtable" uni01B1.sc
Position2: "'cpsp' Capital Spacing lookup 0 subtable" dx=5 dy=0 dh=10 dv=0
EndChar

StartChar: V
Encoding: 86 86 289
Width: 558
GlyphClass: 2
Flags: W
AnchorPoint: "Anchor-18" 0 0 basechar 0
AnchorPoint: "Anchor-17" 0 0 basechar 0
AnchorPoint: "Anchor-16" 339 692 basechar 0
AnchorPoint: "Anchor-15" 0 0 basechar 0
AnchorPoint: "Anchor-14" 241 0 basechar 0
LayerCount: 2
Fore
SplineSet
627 692 m 1,0,-1
 333 0 l 1,1,-1
 157 0 l 1,2,-1
 51 692 l 1,3,-1
 202 692 l 1,4,-1
 261 122 l 1,5,-1
 476 692 l 1,6,-1
 627 692 l 1,0,-1
EndSplineSet
Substitution2: "'c2sc' Capitals to Small Capitals lookup 27 subtable" v.sc
Substitution2: "'aalt' Access All Alternates lookup 0 subtable" v.sc
Position2: "'cpsp' Capital Spacing lookup 0 subtable" dx=5 dy=0 dh=10 dv=0
EndChar

StartChar: uni01B2
Encoding: 434 434 290
Width: 633
GlyphClass: 2
Flags: W
AnchorPoint: "Anchor-18" 0 0 basechar 0
AnchorPoint: "Anchor-17" 0 0 basechar 0
AnchorPoint: "Anchor-16" 367 692 basechar 0
AnchorPoint: "Anchor-15" 0 0 basechar 0
AnchorPoint: "Anchor-14" 270 0 basechar 0
LayerCount: 2
Fore
SplineSet
591 677 m 128,-1,1
 624 646 624 646 624 584 c 0,2,3
 624 565 624 565 621 544 c 2,4,-1
 587 292 l 2,5,6
 566 145 566 145 481.5 64.5 c 128,-1,7
 397 -16 397 -16 268 -16 c 0,8,9
 167 -16 167 -16 109.5 38 c 128,-1,10
 52 92 52 92 52 179 c 0,11,12
 52 197 52 197 55 215 c 2,13,-1
 123 692 l 1,14,-1
 268 692 l 1,15,-1
 201 213 l 2,16,17
 199 191 199 191 199 183 c 0,18,19
 199 141 199 141 219 119 c 128,-1,20
 239 97 239 97 279 97 c 0,21,22
 342 97 342 97 384 146 c 128,-1,23
 426 195 426 195 441 296 c 2,24,-1
 477 560 l 2,25,26
 478 565 478 565 478 573 c 0,27,28
 478 599 478 599 455 599 c 0,29,30
 442 599 442 599 424 594 c 1,31,-1
 409 691 l 1,32,33
 449 708 449 708 496 708 c 0,34,0
 558 708 558 708 591 677 c 128,-1,1
EndSplineSet
Substitution2: "'c2sc' Capitals to Small Capitals lookup 27 subtable" uni028B.sc
Substitution2: "'aalt' Access All Alternates lookup 0 subtable" uni028B.sc
Position2: "'cpsp' Capital Spacing lookup 0 subtable" dx=5 dy=0 dh=10 dv=0
EndChar

StartChar: W
Encoding: 87 87 292
Width: 833
GlyphClass: 2
Flags: W
AnchorPoint: "Anchor-18" 0 0 basechar 0
AnchorPoint: "Anchor-17" 0 0 basechar 0
AnchorPoint: "Anchor-16" 478 692 basechar 0
AnchorPoint: "Anchor-15" 0 0 basechar 0
AnchorPoint: "Anchor-14" 379 0 basechar 0
LayerCount: 2
Fore
SplineSet
879 692 m 1,0,-1
 662 0 l 1,1,-1
 473 0 l 1,2,-1
 454 540 l 1,3,-1
 280 0 l 1,4,-1
 96 0 l 1,5,-1
 75 692 l 1,6,-1
 217 692 l 1,7,-1
 214 114 l 1,8,-1
 398 692 l 1,9,-1
 553 692 l 1,10,-1
 571 114 l 1,11,-1
 740 692 l 1,12,-1
 879 692 l 1,0,-1
EndSplineSet
Substitution2: "'c2sc' Capitals to Small Capitals lookup 27 subtable" w.sc
Substitution2: "'aalt' Access All Alternates lookup 0 subtable" w.sc
Position2: "'cpsp' Capital Spacing lookup 0 subtable" dx=5 dy=0 dh=10 dv=0
EndChar

StartChar: uni2C72
Encoding: 11378 11378 297
Width: 883
GlyphClass: 2
Flags: W
AnchorPoint: "Anchor-18" 0 0 basechar 0
AnchorPoint: "Anchor-17" 0 0 basechar 0
AnchorPoint: "Anchor-16" 476 692 basechar 0
AnchorPoint: "Anchor-15" 0 0 basechar 0
AnchorPoint: "Anchor-14" 377 0 basechar 0
LayerCount: 2
Fore
SplineSet
280 0 m 1,0,-1
 454 540 l 1,1,-1
 473 0 l 1,2,-1
 659 0 l 1,3,-1
 818 548 l 2,4,5
 827 577 827 577 841 589.5 c 128,-1,6
 855 602 855 602 877 602 c 0,7,8
 904 602 904 602 928 585 c 1,9,-1
 981 668 l 1,10,11
 934 708 934 708 864 708 c 0,12,13
 796 708 796 708 755.5 674.5 c 128,-1,14
 715 641 715 641 693 558 c 2,15,-1
 571 114 l 1,16,-1
 553 692 l 1,17,-1
 398 692 l 1,18,-1
 214 115 l 1,19,-1
 217 692 l 1,20,-1
 75 692 l 1,21,-1
 96 0 l 1,22,-1
 280 0 l 1,0,-1
EndSplineSet
Substitution2: "'c2sc' Capitals to Small Capitals lookup 27 subtable" uni2C73.sc
Substitution2: "'aalt' Access All Alternates lookup 0 subtable" uni2C73.sc
Position2: "'cpsp' Capital Spacing lookup 0 subtable" dx=5 dy=0 dh=10 dv=0
EndChar

StartChar: uni01F7
Encoding: 503 503 298
Width: 587
GlyphClass: 2
Flags: W
AnchorPoint: "Anchor-18" 0 0 basechar 0
AnchorPoint: "Anchor-17" 0 0 basechar 0
AnchorPoint: "Anchor-16" 353 692 basechar 0
AnchorPoint: "Anchor-15" 0 0 basechar 0
AnchorPoint: "Anchor-14" 256 0 basechar 0
LayerCount: 2
Fore
SplineSet
553.5 663 m 128,-1,1
 601 618 601 618 601 540 c 0,2,3
 601 459 601 459 561 401 c 128,-1,4
 521 343 521 343 454.5 304 c 128,-1,5
 388 265 388 265 292 231 c 2,6,-1
 209 202 l 1,7,-1
 181 0 l 1,8,-1
 35 0 l 1,9,-1
 132 692 l 1,10,-1
 278 692 l 1,11,-1
 272 649 l 1,12,13
 339 708 339 708 432 708 c 0,14,0
 506 708 506 708 553.5 663 c 128,-1,1
449 526 m 0,16,17
 449 563 449 563 430.5 581 c 128,-1,18
 412 599 412 599 378 599 c 0,19,20
 314 599 314 599 258 553 c 1,21,-1
 224 308 l 1,22,-1
 277 330 l 1,23,15
 449 406 449 406 449 526 c 0,16,17
EndSplineSet
Substitution2: "'c2sc' Capitals to Small Capitals lookup 27 subtable" uni01BF.sc
Substitution2: "'aalt' Access All Alternates lookup 0 subtable" uni01BF.sc
Position2: "'cpsp' Capital Spacing lookup 0 subtable" dx=5 dy=0 dh=10 dv=0
EndChar

StartChar: X
Encoding: 88 88 299
Width: 563
GlyphClass: 2
Flags: W
AnchorPoint: "Anchor-18" 0 0 basechar 0
AnchorPoint: "Anchor-17" 0 0 basechar 0
AnchorPoint: "Anchor-16" 341 692 basechar 0
AnchorPoint: "Anchor-15" 0 0 basechar 0
AnchorPoint: "Anchor-14" 243 0 basechar 0
LayerCount: 2
Fore
SplineSet
606 692 m 1,0,-1
 379 373 l 1,1,-1
 527 0 l 1,2,-1
 370 0 l 1,3,-1
 282 278 l 1,4,-1
 118 0 l 1,5,-1
 -40 0 l 1,6,-1
 206 368 l 1,7,-1
 73 692 l 1,8,-1
 229 692 l 1,9,-1
 303 457 l 1,10,-1
 449 692 l 1,11,-1
 606 692 l 1,0,-1
EndSplineSet
Substitution2: "'c2sc' Capitals to Small Capitals lookup 27 subtable" x.sc
Substitution2: "'aalt' Access All Alternates lookup 0 subtable" x.sc
Position2: "'cpsp' Capital Spacing lookup 0 subtable" dx=5 dy=0 dh=10 dv=0
EndChar

StartChar: Y
Encoding: 89 89 300
Width: 574
GlyphClass: 2
Flags: W
AnchorPoint: "Anchor-18" 0 0 basechar 0
AnchorPoint: "Anchor-17" 0 0 basechar 0
AnchorPoint: "Anchor-16" 349 692 basechar 0
AnchorPoint: "Anchor-15" 0 0 basechar 0
AnchorPoint: "Anchor-14" 250 0 basechar 0
LayerCount: 2
Fore
SplineSet
639 692 m 1,0,-1
 360 261 l 1,1,-1
 323 0 l 1,2,-1
 177 0 l 1,3,-1
 214 260 l 1,4,-1
 55 692 l 1,5,-1
 211 692 l 1,6,-1
 302 378 l 1,7,-1
 483 692 l 1,8,-1
 639 692 l 1,0,-1
EndSplineSet
Substitution2: "'c2sc' Capitals to Small Capitals lookup 27 subtable" y.sc
Substitution2: "'aalt' Access All Alternates lookup 0 subtable" y.sc
Position2: "'cpsp' Capital Spacing lookup 0 subtable" dx=5 dy=0 dh=10 dv=0
EndChar

StartChar: uni01B3
Encoding: 435 435 306
Width: 610
GlyphClass: 2
Flags: W
AnchorPoint: "Anchor-18" 0 0 basechar 0
AnchorPoint: "Anchor-17" 0 0 basechar 0
AnchorPoint: "Anchor-16" 365 692 basechar 0
AnchorPoint: "Anchor-15" 0 0 basechar 0
AnchorPoint: "Anchor-14" 250 0 basechar 0
LayerCount: 2
Fore
SplineSet
214 260 m 1,0,-1
 55 692 l 1,1,-1
 211 692 l 1,2,-1
 303 378 l 1,3,-1
 413 579 l 2,4,5
 450 651 450 651 488.5 679.5 c 128,-1,6
 527 708 527 708 591 708 c 0,7,8
 660 708 660 708 707 668 c 1,9,-1
 655 586 l 1,10,11
 628 602 628 602 604 602 c 0,12,13
 582 602 582 602 567.5 590.5 c 128,-1,14
 553 579 553 579 534 548 c 2,15,-1
 360 261 l 1,16,-1
 323 0 l 1,17,-1
 177 0 l 1,18,-1
 214 260 l 1,0,-1
EndSplineSet
Substitution2: "'c2sc' Capitals to Small Capitals lookup 27 subtable" uni01B4.sc
Substitution2: "'aalt' Access All Alternates lookup 0 subtable" uni01B4.sc
Position2: "'cpsp' Capital Spacing lookup 0 subtable" dx=5 dy=0 dh=10 dv=0
EndChar

StartChar: uni01A6
Encoding: 422 422 309
Width: 605
GlyphClass: 2
Flags: W
AnchorPoint: "Anchor-18" 0 0 basechar 0
AnchorPoint: "Anchor-17" 0 0 basechar 0
AnchorPoint: "Anchor-16" 363 692 basechar 0
AnchorPoint: "Anchor-15" 0 0 basechar 0
AnchorPoint: "Anchor-14" 0 0 basechar 0
LayerCount: 2
Fore
SplineSet
541.5 270.5 m 128,-1,1
 505 214 505 214 416 179 c 1,2,-1
 549 -116 l 1,3,-1
 391 -116 l 1,4,-1
 279 154 l 1,5,-1
 203 155 l 1,6,-1
 181 0 l 1,7,-1
 35 0 l 1,8,-1
 132 692 l 1,9,-1
 278 692 l 1,10,-1
 262 576 l 1,11,-1
 329 576 l 2,12,13
 578 576 578 576 578 401 c 0,14,0
 578 327 578 327 541.5 270.5 c 128,-1,1
217 259 m 1,15,-1
 295 259 l 2,16,17
 366 259 366 259 396.5 298 c 128,-1,18
 427 337 427 337 427 391 c 0,19,20
 427 433 427 433 399.5 451.5 c 128,-1,21
 372 470 372 470 314 470 c 2,22,-1
 247 470 l 1,23,-1
 217 259 l 1,15,-1
EndSplineSet
Substitution2: "'c2sc' Capitals to Small Capitals lookup 27 subtable" uni0280.sc
Substitution2: "'aalt' Access All Alternates lookup 0 subtable" uni0280.sc
Position2: "'cpsp' Capital Spacing lookup 0 subtable" dx=5 dy=0 dh=10 dv=0
EndChar

StartChar: uni024E
Encoding: 590 590 310
Width: 575
GlyphClass: 2
Flags: W
AnchorPoint: "Anchor-18" 0 0 basechar 0
AnchorPoint: "Anchor-17" 0 0 basechar 0
AnchorPoint: "Anchor-16" 348 692 basechar 0
AnchorPoint: "Anchor-15" 0 0 basechar 0
AnchorPoint: "Anchor-14" 250 0 basechar 0
LayerCount: 2
Fore
SplineSet
640 692 m 1,0,-1
 588 612 l 1,1,-1
 629 612 l 1,2,-1
 617 525 l 1,3,-1
 532 525 l 1,4,-1
 361 261 l 1,5,-1
 324 0 l 1,6,-1
 178 0 l 1,7,-1
 215 260 l 1,8,-1
 117 525 l 1,9,-1
 35 525 l 1,10,-1
 47 612 l 1,11,-1
 85 612 l 1,12,-1
 56 692 l 1,13,-1
 202 692 l 1,14,-1
 227 612 l 1,15,-1
 446 612 l 1,16,-1
 493 692 l 1,17,-1
 640 692 l 1,0,-1
302 369 m 1,18,-1
 394 525 l 1,19,-1
 254 525 l 1,20,-1
 302 369 l 1,18,-1
EndSplineSet
Substitution2: "'c2sc' Capitals to Small Capitals lookup 27 subtable" uni024F.sc
Substitution2: "'aalt' Access All Alternates lookup 0 subtable" uni024F.sc
Position2: "'cpsp' Capital Spacing lookup 0 subtable" dx=5 dy=0 dh=10 dv=0
EndChar

StartChar: Z
Encoding: 90 90 312
Width: 530
GlyphClass: 2
Flags: W
AnchorPoint: "Anchor-18" 0 0 basechar 0
AnchorPoint: "Anchor-17" 0 0 basechar 0
AnchorPoint: "Anchor-16" 331 692 basechar 0
AnchorPoint: "Anchor-15" 0 0 basechar 0
AnchorPoint: "Anchor-14" 215 0 basechar 0
LayerCount: 2
Fore
SplineSet
-18 0 m 1,0,-1
 -3 112 l 1,1,-1
 373 576 l 1,2,-1
 96 576 l 1,3,-1
 112 692 l 1,4,-1
 556 692 l 1,5,-1
 541 579 l 1,6,-1
 169 119 l 1,7,-1
 479 119 l 1,8,-1
 448 0 l 1,9,-1
 -18 0 l 1,0,-1
EndSplineSet
Substitution2: "'c2sc' Capitals to Small Capitals lookup 27 subtable" z.sc
Substitution2: "'aalt' Access All Alternates lookup 0 subtable" z.sc
Position2: "'cpsp' Capital Spacing lookup 0 subtable" dx=5 dy=0 dh=10 dv=0
EndChar

StartChar: uni0224
Encoding: 548 548 317
Width: 526
GlyphClass: 2
Flags: W
AnchorPoint: "Anchor-18" 0 0 basechar 0
AnchorPoint: "Anchor-17" 0 0 basechar 0
AnchorPoint: "Anchor-16" 323 692 basechar 0
AnchorPoint: "Anchor-15" 0 0 basechar 0
AnchorPoint: "Anchor-14" 0 0 basechar 0
LayerCount: 2
Fore
SplineSet
541 579 m 1,0,-1
 171 119 l 1,1,-1
 472 119 l 1,2,-1
 454 0 l 1,3,-1
 448 -44 l 2,4,5
 433 -131 433 -131 380.5 -175.5 c 128,-1,6
 328 -220 328 -220 246 -220 c 0,7,8
 171 -220 171 -220 116 -177 c 1,9,-1
 174 -93 l 1,10,11
 191 -104 191 -104 205.5 -108.5 c 128,-1,12
 220 -113 220 -113 241 -113 c 0,13,14
 298 -113 298 -113 308 -45 c 2,15,-1
 315 0 l 1,16,-1
 -18 0 l 1,17,-1
 -3 112 l 1,18,-1
 373 576 l 1,19,-1
 96 576 l 1,20,-1
 112 692 l 1,21,-1
 556 692 l 1,22,-1
 541 579 l 1,0,-1
EndSplineSet
Substitution2: "'c2sc' Capitals to Small Capitals lookup 27 subtable" uni0225.sc
Substitution2: "'aalt' Access All Alternates lookup 0 subtable" uni0225.sc
Position2: "'cpsp' Capital Spacing lookup 0 subtable" dx=5 dy=0 dh=10 dv=0
EndChar

StartChar: uni01B5
Encoding: 437 437 318
Width: 530
GlyphClass: 2
Flags: W
AnchorPoint: "Anchor-18" 0 0 basechar 0
AnchorPoint: "Anchor-17" 0 0 basechar 0
AnchorPoint: "Anchor-16" 325 692 basechar 0
AnchorPoint: "Anchor-15" 0 0 basechar 0
AnchorPoint: "Anchor-14" 228 0 basechar 0
LayerCount: 2
Fore
SplineSet
556 692 m 1,0,-1
 541 579 l 1,1,-1
 389 395 l 1,2,-1
 467 395 l 1,3,-1
 452 299 l 1,4,-1
 309 299 l 1,5,-1
 160 119 l 1,6,-1
 479 119 l 1,7,-1
 448 0 l 1,8,-1
 -18 0 l 1,9,-1
 -3 112 l 1,10,-1
 153 299 l 1,11,-1
 68 299 l 1,12,-1
 83 395 l 1,13,-1
 233 395 l 1,14,-1
 384 576 l 1,15,-1
 96 576 l 1,16,-1
 112 692 l 1,17,-1
 556 692 l 1,0,-1
EndSplineSet
Substitution2: "'c2sc' Capitals to Small Capitals lookup 27 subtable" uni01B6.sc
Substitution2: "'aalt' Access All Alternates lookup 0 subtable" uni01B6.sc
Position2: "'cpsp' Capital Spacing lookup 0 subtable" dx=5 dy=0 dh=10 dv=0
EndChar

StartChar: Eng.ss01
Encoding: 65542 -1 324
Width: 649
GlyphClass: 2
Flags: W
AnchorPoint: "Anchor-18" 0 0 basechar 0
AnchorPoint: "Anchor-17" 0 0 basechar 0
AnchorPoint: "Anchor-16" 383 692 basechar 0
AnchorPoint: "Anchor-15" 0 0 basechar 0
AnchorPoint: "Anchor-14" 0 0 basechar 0
LayerCount: 2
Fore
SplineSet
581.5 666.5 m 128,-1,1
 621 625 621 625 621 556 c 0,2,3
 621 539 621 539 618 519 c 2,4,-1
 547 0 l 1,5,-1
 541 -40 l 2,6,7
 527 -129 527 -129 472.5 -174.5 c 128,-1,8
 418 -220 418 -220 333 -220 c 0,9,10
 256 -220 256 -220 203 -177 c 1,11,-1
 262 -90 l 1,12,13
 280 -101 280 -101 294 -106 c 128,-1,14
 308 -111 308 -111 327 -111 c 0,15,16
 385 -111 385 -111 395 -45 c 2,17,-1
 401 0 l 1,18,-1
 471 498 l 2,19,20
 473 520 473 520 473 528 c 0,21,22
 473 563 473 563 457 579.5 c 128,-1,23
 441 596 441 596 407 596 c 0,24,25
 366 596 366 596 333.5 578.5 c 128,-1,26
 301 561 301 561 254 522 c 1,27,-1
 180 0 l 1,28,-1
 35 0 l 1,29,-1
 132 692 l 1,30,-1
 259 692 l 1,31,-1
 261 624 l 1,32,33
 310 667 310 667 357 687.5 c 128,-1,34
 404 708 404 708 463 708 c 0,35,0
 542 708 542 708 581.5 666.5 c 128,-1,1
EndSplineSet
Position2: "'cpsp' Capital Spacing lookup 0 subtable" dx=5 dy=0 dh=10 dv=0
EndChar

StartChar: uni019D.ss01
Encoding: 65543 -1 325
Width: 649
GlyphClass: 2
Flags: W
AnchorPoint: "Anchor-18" 0 0 basechar 0
AnchorPoint: "Anchor-17" 0 0 basechar 0
AnchorPoint: "Anchor-16" 383 692 basechar 0
AnchorPoint: "Anchor-15" 0 0 basechar 0
AnchorPoint: "Anchor-14" 0 0 basechar 0
LayerCount: 2
Fore
SplineSet
581 666.5 m 128,-1,1
 621 625 621 625 621 555 c 0,2,3
 621 536 621 536 618 516 c 2,4,-1
 547 0 l 1,5,-1
 402 0 l 1,6,-1
 471 498 l 2,7,8
 473 520 473 520 473 528 c 0,9,10
 473 563 473 563 457.5 579.5 c 128,-1,11
 442 596 442 596 407 596 c 0,12,13
 366 596 366 596 331.5 577.5 c 128,-1,14
 297 559 297 559 255 520 c 1,15,-1
 181 0 l 1,16,-1
 182 0 l 1,17,-1
 176 -40 l 2,18,19
 162 -129 162 -129 107.5 -174.5 c 128,-1,20
 53 -220 53 -220 -32 -220 c 0,21,22
 -109 -220 -109 -220 -162 -177 c 1,23,-1
 -103 -90 l 1,24,25
 -85 -101 -85 -101 -71 -106 c 128,-1,26
 -57 -111 -57 -111 -38 -111 c 0,27,28
 19 -111 19 -111 30 -45 c 2,29,-1
 36 0 l 1,30,-1
 133 692 l 1,31,-1
 260 692 l 1,32,-1
 262 624 l 1,33,34
 308 667 308 667 356 687.5 c 128,-1,35
 404 708 404 708 461 708 c 0,36,0
 541 708 541 708 581 666.5 c 128,-1,1
EndSplineSet
Position2: "'cpsp' Capital Spacing lookup 0 subtable" dx=5 dy=0 dh=10 dv=0
EndChar

StartChar: uni2C64.ss01
Encoding: 65544 -1 326
Width: 424
GlyphClass: 2
Flags: W
AnchorPoint: "Anchor-18" 0 0 basechar 0
AnchorPoint: "Anchor-17" 0 0 basechar 0
AnchorPoint: "Anchor-16" 272 692 basechar 0
AnchorPoint: "Anchor-15" 0 0 basechar 0
AnchorPoint: "Anchor-14" 0 0 basechar 0
LayerCount: 2
Fore
SplineSet
490 697 m 1,1,-1
 449 556 l 1,2,3
 425 564 425 564 393 564 c 0,4,5
 335 564 335 564 300 529.5 c 128,-1,6
 265 495 265 495 240 424 c 1,7,-1
 181 0 l 1,8,-1
 174 -49 l 2,9,10
 173 -55 173 -55 173 -66 c 0,11,12
 173 -111 173 -111 217 -111 c 0,13,14
 239 -111 239 -111 254 -106 c 128,-1,15
 269 -101 269 -101 291 -90 c 1,16,-1
 330 -180 l 1,17,18
 270 -220 270 -220 194 -220 c 0,19,20
 116 -220 116 -220 71.5 -182 c 128,-1,21
 27 -144 27 -144 27 -72 c 0,22,23
 27 -56 27 -56 30 -36 c 2,24,-1
 35 0 l 1,25,-1
 132 692 l 1,26,-1
 259 692 l 1,27,-1
 257 596 l 1,28,29
 285 651 285 651 325 679 c 128,-1,30
 365 707 365 707 424 707 c 0,31,0
 458 707 458 707 490 697 c 1,1,-1
EndSplineSet
Position2: "'cpsp' Capital Spacing lookup 0 subtable" dx=5 dy=0 dh=10 dv=0
EndChar

StartChar: uniA78D.ss02
Encoding: 65546 -1 328
Width: 591
GlyphClass: 2
Flags: W
AnchorPoint: "Anchor-18" 0 0 basechar 0
AnchorPoint: "Anchor-17" 0 0 basechar 0
AnchorPoint: "Anchor-16" 335 692 basechar 0
AnchorPoint: "Anchor-15" 0 0 basechar 0
AnchorPoint: "Anchor-14" 258 0 basechar 0
LayerCount: 2
Fore
SplineSet
481 0 m 1,0,-1
 336 0 l 1,1,-1
 371 250 l 1,2,-1
 29 250 l 1,3,-1
 90 692 l 1,4,-1
 236 692 l 1,5,-1
 191 366 l 1,6,-1
 388 366 l 1,7,-1
 433 692 l 1,8,-1
 578 692 l 1,9,-1
 481 0 l 1,0,-1
EndSplineSet
Position2: "'cpsp' Capital Spacing lookup 0 subtable" dx=5 dy=0 dh=10 dv=0
EndChar

StartChar: uni0299
Encoding: 665 665 329
Width: 536
GlyphClass: 2
Flags: W
AnchorPoint: "Anchor-18" 0 0 basechar 0
AnchorPoint: "Anchor-17" 0 0 basechar 0
AnchorPoint: "Anchor-16" 305 530 basechar 0
AnchorPoint: "Anchor-15" 0 0 basechar 0
AnchorPoint: "Anchor-14" 230 0 basechar 0
LayerCount: 2
Fore
SplineSet
383 290 m 1,1,2
 441 283 441 283 470 255.5 c 128,-1,3
 499 228 499 228 499 182 c 0,4,5
 499 90 499 90 430.5 45 c 128,-1,6
 362 0 362 0 247 0 c 2,7,-1
 32 0 l 1,8,-1
 105 525 l 1,9,10
 218 546 218 546 303 546 c 0,11,12
 400 546 400 546 454.5 513 c 128,-1,13
 509 480 509 480 509 419 c 0,14,0
 509 316 509 316 383 290 c 1,1,2
344 342 m 128,-1,16
 368 363 368 363 368 401 c 0,17,18
 368 428 368 428 350.5 440 c 128,-1,19
 333 452 333 452 296 452 c 0,20,21
 264 452 264 452 237 448 c 1,22,-1
 219 321 l 1,23,-1
 278 321 l 2,24,15
 320 321 320 321 344 342 c 128,-1,16
325 118 m 128,-1,26
 356 140 356 140 356 189 c 0,27,28
 356 218 356 218 336 229.5 c 128,-1,29
 316 241 316 241 278 241 c 2,30,-1
 207 241 l 1,31,-1
 186 96 l 1,32,-1
 246 96 l 2,33,25
 294 96 294 96 325 118 c 128,-1,26
EndSplineSet
EndChar

StartChar: uni0262
Encoding: 610 610 330
Width: 553
GlyphClass: 2
Flags: W
AnchorPoint: "Anchor-18" 0 0 basechar 0
AnchorPoint: "Anchor-17" 0 0 basechar 0
AnchorPoint: "Anchor-16" 335 530 basechar 0
AnchorPoint: "Anchor-15" 0 0 basechar 0
AnchorPoint: "Anchor-14" 260 0 basechar 0
LayerCount: 2
Fore
SplineSet
445.5 527.5 m 128,-1,1
 490 509 490 509 528 474 c 1,2,-1
 450 400 l 1,3,4
 423 422 423 422 396.5 432 c 128,-1,5
 370 442 370 442 337 442 c 0,6,7
 259 442 259 442 218.5 371 c 128,-1,8
 178 300 178 300 178 200 c 0,9,10
 178 140 178 140 200 114.5 c 128,-1,11
 222 89 222 89 267 89 c 0,12,13
 310 89 310 89 349 105 c 1,14,-1
 363 212 l 1,15,-1
 290 212 l 1,16,-1
 289 308 l 1,17,-1
 509 308 l 1,18,-1
 473 46 l 1,19,20
 375 -14 375 -14 254 -14 c 0,21,22
 145 -14 145 -14 88.5 40.5 c 128,-1,23
 32 95 32 95 32 201 c 0,24,25
 32 298 32 298 71 377 c 128,-1,26
 110 456 110 456 179 501 c 128,-1,27
 248 546 248 546 337 546 c 0,28,0
 401 546 401 546 445.5 527.5 c 128,-1,1
EndSplineSet
EndChar

StartChar: uni029B
Encoding: 667 667 331
Width: 559
GlyphClass: 2
Flags: W
AnchorPoint: "Anchor-18" 0 0 basechar 0
AnchorPoint: "Anchor-17" 0 0 basechar 0
AnchorPoint: "Anchor-16" 347 741 basechar 0
AnchorPoint: "Anchor-15" 0 0 basechar 0
AnchorPoint: "Anchor-14" 256 0 basechar 0
LayerCount: 2
Fore
SplineSet
724 718 m 1,1,-1
 671 631 l 1,2,3
 642 650 642 650 608 650 c 0,4,5
 551 650 551 650 542 584 c 2,6,-1
 527 474 l 1,7,-1
 459 410 l 1,8,9
 400 442 400 442 337 442 c 0,10,11
 258 442 258 442 217.5 371 c 128,-1,12
 177 300 177 300 177 200 c 0,13,14
 177 140 177 140 199.5 114.5 c 128,-1,15
 222 89 222 89 266 89 c 256,16,17
 310 89 310 89 348 105 c 1,18,-1
 362 212 l 1,19,-1
 289 212 l 1,20,-1
 289 308 l 1,21,-1
 508 308 l 1,22,-1
 473 46 l 1,23,24
 428 18 428 18 372 2 c 128,-1,25
 316 -14 316 -14 254 -14 c 0,26,27
 145 -14 145 -14 88.5 40.5 c 128,-1,28
 32 95 32 95 32 201 c 0,29,30
 32 298 32 298 71 377 c 128,-1,31
 110 456 110 456 176.5 501 c 128,-1,32
 243 546 243 546 323 546 c 0,33,34
 372 546 372 546 408 532 c 1,35,-1
 417 592 l 2,36,37
 428 673 428 673 474.5 715 c 128,-1,38
 521 757 521 757 599 757 c 0,39,0
 671 757 671 757 724 718 c 1,1,-1
EndSplineSet
EndChar

StartChar: uni026A
Encoding: 618 618 333
Width: 326
GlyphClass: 2
Flags: W
AnchorPoint: "Anchor-18" 0 0 basechar 0
AnchorPoint: "Anchor-17" 0 0 basechar 0
AnchorPoint: "Anchor-16" 201 530 basechar 0
AnchorPoint: "Anchor-15" 0 0 basechar 0
AnchorPoint: "Anchor-14" 126 0 basechar 0
LayerCount: 2
Fore
SplineSet
335 429 m 1,0,-1
 256 429 l 1,1,-1
 210 101 l 1,2,-1
 288 101 l 1,3,-1
 274 0 l 1,4,-1
 -23 0 l 1,5,-1
 -8 101 l 1,6,-1
 69 101 l 1,7,-1
 116 429 l 1,8,-1
 38 429 l 1,9,-1
 52 530 l 1,10,-1
 348 530 l 1,11,-1
 335 429 l 1,0,-1
EndSplineSet
EndChar

StartChar: uni029F
Encoding: 671 671 334
Width: 443
GlyphClass: 2
Flags: W
AnchorPoint: "Anchor-18" 0 0 basechar 0
AnchorPoint: "Anchor-17" 0 0 basechar 0
AnchorPoint: "Anchor-16" 176 530 basechar 0
AnchorPoint: "Anchor-15" 0 0 basechar 0
AnchorPoint: "Anchor-14" 202 0 basechar 0
LayerCount: 2
Fore
SplineSet
246 530 m 1,0,-1
 188 111 l 1,1,-1
 409 111 l 1,2,-1
 378 0 l 1,3,-1
 32 0 l 1,4,-1
 106 530 l 1,5,-1
 246 530 l 1,0,-1
EndSplineSet
EndChar

StartChar: uni0274
Encoding: 628 628 335
Width: 580
GlyphClass: 2
Flags: W
AnchorPoint: "Anchor-18" 0 0 basechar 0
AnchorPoint: "Anchor-17" 0 0 basechar 0
AnchorPoint: "Anchor-16" 328 530 basechar 0
AnchorPoint: "Anchor-15" 0 0 basechar 0
AnchorPoint: "Anchor-14" 253 0 basechar 0
LayerCount: 2
Fore
SplineSet
475 0 m 1,0,-1
 305 0 l 1,1,-1
 193 402 l 1,2,-1
 193 361 l 2,3,4
 193 261 193 261 180 162 c 2,5,-1
 157 0 l 1,6,-1
 32 0 l 1,7,-1
 106 530 l 1,8,-1
 274 530 l 1,9,-1
 388 128 l 1,10,11
 387 150 387 150 387 192 c 0,12,13
 387 257 387 257 397 331 c 2,14,-1
 424 530 l 1,15,-1
 549 530 l 1,16,-1
 475 0 l 1,0,-1
EndSplineSet
EndChar

StartChar: uni0276
Encoding: 630 630 336
Width: 754
GlyphClass: 2
Flags: W
AnchorPoint: "Anchor-18" 0 0 basechar 0
AnchorPoint: "Anchor-17" 0 0 basechar 0
AnchorPoint: "Anchor-16" 454 530 basechar 0
AnchorPoint: "Anchor-15" 0 0 basechar 0
AnchorPoint: "Anchor-14" 375 0 basechar 0
LayerCount: 2
Fore
SplineSet
502 430 m 1,0,1
 531 382 531 382 536 318 c 1,2,-1
 695 318 l 1,3,-1
 681 220 l 1,4,-1
 526 220 l 1,5,6
 507 149 507 149 458 100 c 1,7,-1
 705 100 l 1,8,-1
 690 0 l 1,9,-1
 340 0 l 1,10,11
 297 -16 297 -16 249 -16 c 0,12,13
 147 -16 147 -16 90 43.5 c 128,-1,14
 33 103 33 103 33 208 c 0,15,16
 33 288 33 288 62 365.5 c 128,-1,17
 91 443 91 443 156 494.5 c 128,-1,18
 221 546 221 546 323 546 c 0,19,20
 367 546 367 546 415 530 c 1,21,-1
 766 530 l 1,22,-1
 737 430 l 1,23,-1
 502 430 l 1,0,1
198.5 117 m 128,-1,25
 219 91 219 91 260 91 c 0,26,27
 334 91 334 91 365 167 c 128,-1,28
 396 243 396 243 397 332 c 0,29,30
 397 388 397 388 376.5 414 c 128,-1,31
 356 440 356 440 315 440 c 0,32,33
 263 440 263 440 232.5 400.5 c 128,-1,34
 202 361 202 361 190 305.5 c 128,-1,35
 178 250 178 250 178 198 c 0,36,24
 178 143 178 143 198.5 117 c 128,-1,25
EndSplineSet
EndChar

StartChar: uni0280
Encoding: 640 640 337
Width: 529
GlyphClass: 2
Flags: W
AnchorPoint: "Anchor-18" 0 0 basechar 0
AnchorPoint: "Anchor-17" 0 0 basechar 0
AnchorPoint: "Anchor-16" 301 530 basechar 0
AnchorPoint: "Anchor-15" 0 0 basechar 0
AnchorPoint: "Anchor-14" 242 0 basechar 0
LayerCount: 2
Fore
SplineSet
368 211 m 1,1,-1
 473 0 l 1,2,-1
 327 0 l 1,3,-1
 246 188 l 1,4,-1
 193 188 l 1,5,-1
 167 0 l 1,6,-1
 32 0 l 1,7,-1
 106 530 l 1,8,-1
 281 530 l 2,9,10
 382 530 382 530 435 492 c 128,-1,11
 488 454 488 454 488 379 c 0,12,0
 488 260 488 260 368 211 c 1,1,-1
207 284 m 1,13,-1
 250 284 l 2,14,15
 297 284 297 284 322.5 308 c 128,-1,16
 348 332 348 332 348 372 c 0,17,18
 348 405 348 405 328.5 418 c 128,-1,19
 309 431 309 431 268 431 c 2,20,-1
 227 431 l 1,21,-1
 207 284 l 1,13,-1
EndSplineSet
Substitution2: "'smcp' Lowercase to Small Capitals lookup 28 subtable" uni0280.sc
Substitution2: "'aalt' Access All Alternates lookup 0 subtable" uni0280.sc
EndChar

StartChar: uni0281
Encoding: 641 641 338
Width: 530
GlyphClass: 2
Flags: W
LayerCount: 2
Fore
SplineSet
461 193 m 0,1,2
 461 97 461 97 394 48.5 c 128,-1,3
 327 0 327 0 211 0 c 2,4,-1
 32 0 l 1,5,-1
 106 530 l 1,6,-1
 241 530 l 1,7,-1
 215 343 l 1,8,-1
 269 343 l 1,9,-1
 402 530 l 1,10,-1
 548 530 l 1,11,-1
 385 319 l 1,12,0
 461 281 461 281 461 193 c 0,1,2
294.5 121 m 128,-1,14
 322 143 322 143 322 188 c 0,15,16
 322 219 322 219 303 232.5 c 128,-1,17
 284 246 284 246 246 246 c 2,18,-1
 201 246 l 1,19,-1
 181 99 l 1,20,-1
 218 99 l 2,21,13
 267 99 267 99 294.5 121 c 128,-1,14
EndSplineSet
EndChar

StartChar: uni028F
Encoding: 655 655 339
Width: 494
GlyphClass: 2
Flags: W
AnchorPoint: "Anchor-18" 0 0 basechar 0
AnchorPoint: "Anchor-17" 0 0 basechar 0
AnchorPoint: "Anchor-16" 284 530 basechar 0
AnchorPoint: "Anchor-15" 0 0 basechar 0
AnchorPoint: "Anchor-14" 209 0 basechar 0
LayerCount: 2
Fore
SplineSet
534 530 m 1,0,-1
 308 194 l 1,1,-1
 280 0 l 1,2,-1
 140 0 l 1,3,-1
 168 193 l 1,4,-1
 35 530 l 1,5,-1
 183 530 l 1,6,-1
 250 292 l 1,7,-1
 383 530 l 1,8,-1
 534 530 l 1,0,-1
EndSplineSet
EndChar

StartChar: a
Encoding: 97 97 340
Width: 571
GlyphClass: 2
Flags: W
AnchorPoint: "Anchor-18" 0 0 basechar 0
AnchorPoint: "Anchor-17" 0 0 basechar 0
AnchorPoint: "Anchor-16" 342 530 basechar 0
AnchorPoint: "Anchor-15" 485 -14 basechar 0
AnchorPoint: "Anchor-14" 276 0 basechar 0
LayerCount: 2
Fore
SplineSet
540 493 m 1,1,-1
 490 145 l 2,2,3
 488 127 488 127 488 121 c 0,4,5
 488 105 488 105 494.5 95.5 c 128,-1,6
 501 86 501 86 517 79 c 1,7,-1
 477 -14 l 1,8,9
 379 -4 379 -4 361 74 c 1,10,11
 296 -16 296 -16 203 -16 c 0,12,13
 121 -16 121 -16 76 40.5 c 128,-1,14
 31 97 31 97 31 193 c 0,15,16
 31 276 31 276 62 357 c 128,-1,17
 93 438 93 438 160.5 492 c 128,-1,18
 228 546 228 546 331 546 c 0,19,0
 441 546 441 546 540 493 c 1,1,-1
242 405 m 128,-1,21
 208 367 208 367 192.5 309.5 c 128,-1,22
 177 252 177 252 177 193 c 0,23,24
 177 90 177 90 245 90 c 0,25,26
 276 90 276 90 302 110 c 128,-1,27
 328 130 328 130 355 169 c 1,28,-1
 393 431 l 1,29,30
 364 443 364 443 328 443 c 0,31,20
 276 443 276 443 242 405 c 128,-1,21
EndSplineSet
Substitution2: "Single Substitution lookup 44 subtable" ordfeminine
Substitution2: "'smcp' Lowercase to Small Capitals lookup 28 subtable" a.sc
AlternateSubs2: "'aalt' Access All Alternates lookup 1 subtable" ordfeminine a.sc
EndChar

StartChar: uni1EAF
Encoding: 7855 7855 343
Width: 571
GlyphClass: 2
Flags: W
AnchorPoint: "Anchor-18" 0 0 basechar 0
AnchorPoint: "Anchor-17" 0 0 basechar 0
AnchorPoint: "Anchor-16" 378 770 basechar 0
AnchorPoint: "Anchor-15" 485 -14 basechar 0
AnchorPoint: "Anchor-14" 0 0 basechar 0
LayerCount: 2
Fore
SplineSet
465 967 m 1,0,-1
 535 890 l 1,1,-1
 367 753 l 1,2,-1
 317 802 l 1,3,-1
 465 967 l 1,0,-1
274.5 621 m 128,-1,5
 241 642 241 642 225 677.5 c 128,-1,6
 209 713 209 713 211 755 c 1,7,-1
 290 767 l 1,8,9
 295 736 295 736 313 718.5 c 128,-1,10
 331 701 331 701 363 701 c 0,11,12
 397 701 397 701 421.5 720 c 128,-1,13
 446 739 446 739 460 770 c 1,14,-1
 540 751 l 1,15,16
 525 686 525 686 475.5 643 c 128,-1,17
 426 600 426 600 356 600 c 0,18,4
 308 600 308 600 274.5 621 c 128,-1,5
540 493 m 1,20,-1
 490 145 l 2,21,22
 488 127 488 127 488 121 c 0,23,24
 488 105 488 105 494.5 95.5 c 128,-1,25
 501 86 501 86 517 79 c 1,26,-1
 477 -14 l 1,27,28
 379 -4 379 -4 361 74 c 1,29,30
 296 -16 296 -16 203 -16 c 0,31,32
 121 -16 121 -16 76 40.5 c 128,-1,33
 31 97 31 97 31 193 c 0,34,35
 31 276 31 276 62 357 c 128,-1,36
 93 438 93 438 160.5 492 c 128,-1,37
 228 546 228 546 331 546 c 0,38,19
 441 546 441 546 540 493 c 1,20,-1
242 405 m 128,-1,40
 208 367 208 367 192.5 309.5 c 128,-1,41
 177 252 177 252 177 193 c 0,42,43
 177 90 177 90 245 90 c 0,44,45
 276 90 276 90 302 110 c 128,-1,46
 328 130 328 130 355 169 c 1,47,-1
 393 431 l 1,48,49
 364 443 364 443 328 443 c 0,50,39
 276 443 276 443 242 405 c 128,-1,40
EndSplineSet
Substitution2: "'smcp' Lowercase to Small Capitals lookup 28 subtable" uni1EAF.sc
Substitution2: "'aalt' Access All Alternates lookup 0 subtable" uni1EAF.sc
EndChar

StartChar: uni1EB1
Encoding: 7857 7857 345
Width: 571
GlyphClass: 2
Flags: W
AnchorPoint: "Anchor-18" 0 0 basechar 0
AnchorPoint: "Anchor-17" 0 0 basechar 0
AnchorPoint: "Anchor-16" 378 770 basechar 0
AnchorPoint: "Anchor-15" 485 -14 basechar 0
AnchorPoint: "Anchor-14" 0 0 basechar 0
LayerCount: 2
Fore
SplineSet
319 964 m 1,0,-1
 423 798 l 1,1,-1
 366 753 l 1,2,-1
 234 894 l 1,3,-1
 319 964 l 1,0,-1
274.5 621 m 128,-1,5
 241 642 241 642 225 677.5 c 128,-1,6
 209 713 209 713 211 755 c 1,7,-1
 290 767 l 1,8,9
 295 736 295 736 313 718.5 c 128,-1,10
 331 701 331 701 363 701 c 0,11,12
 397 701 397 701 421.5 720 c 128,-1,13
 446 739 446 739 460 770 c 1,14,-1
 540 751 l 1,15,16
 525 686 525 686 475.5 643 c 128,-1,17
 426 600 426 600 356 600 c 0,18,4
 308 600 308 600 274.5 621 c 128,-1,5
540 493 m 1,20,-1
 490 145 l 2,21,22
 488 127 488 127 488 121 c 0,23,24
 488 105 488 105 494.5 95.5 c 128,-1,25
 501 86 501 86 517 79 c 1,26,-1
 477 -14 l 1,27,28
 379 -4 379 -4 361 74 c 1,29,30
 296 -16 296 -16 203 -16 c 0,31,32
 121 -16 121 -16 76 40.5 c 128,-1,33
 31 97 31 97 31 193 c 0,34,35
 31 276 31 276 62 357 c 128,-1,36
 93 438 93 438 160.5 492 c 128,-1,37
 228 546 228 546 331 546 c 0,38,19
 441 546 441 546 540 493 c 1,20,-1
242 405 m 128,-1,40
 208 367 208 367 192.5 309.5 c 128,-1,41
 177 252 177 252 177 193 c 0,42,43
 177 90 177 90 245 90 c 0,44,45
 276 90 276 90 302 110 c 128,-1,46
 328 130 328 130 355 169 c 1,47,-1
 393 431 l 1,48,49
 364 443 364 443 328 443 c 0,50,39
 276 443 276 443 242 405 c 128,-1,40
EndSplineSet
Substitution2: "'smcp' Lowercase to Small Capitals lookup 28 subtable" uni1EB1.sc
Substitution2: "'aalt' Access All Alternates lookup 0 subtable" uni1EB1.sc
EndChar

StartChar: uni1EB5
Encoding: 7861 7861 347
Width: 571
GlyphClass: 2
Flags: W
AnchorPoint: "Anchor-18" 0 0 basechar 0
AnchorPoint: "Anchor-17" 0 0 basechar 0
AnchorPoint: "Anchor-16" 392 933 basechar 0
AnchorPoint: "Anchor-15" 485 -14 basechar 0
AnchorPoint: "Anchor-14" 0 0 basechar 0
LayerCount: 2
Fore
SplineSet
408.5 798 m 128,-1,1
 395 804 395 804 372 817 c 0,2,3
 360 826 360 826 351.5 830 c 128,-1,4
 343 834 343 834 334 834 c 0,5,6
 316 834 316 834 303 823.5 c 128,-1,7
 290 813 290 813 274 791 c 1,8,-1
 206 828 l 1,9,10
 232 875 232 875 266.5 904 c 128,-1,11
 301 933 301 933 340 933 c 0,12,13
 361 933 361 933 376.5 926 c 128,-1,14
 392 919 392 919 410 906 c 0,15,16
 423 897 423 897 430.5 893 c 128,-1,17
 438 889 438 889 447 889 c 0,18,19
 463 889 463 889 476 899 c 128,-1,20
 489 909 489 909 506 932 c 1,21,-1
 574 894 l 1,22,23
 548 847 548 847 513.5 819.5 c 128,-1,24
 479 792 479 792 442 792 c 0,25,0
 422 792 422 792 408.5 798 c 128,-1,1
276.5 621 m 128,-1,27
 243 642 243 642 227 677.5 c 128,-1,28
 211 713 211 713 213 755 c 1,29,-1
 292 767 l 1,30,31
 297 736 297 736 315 718.5 c 128,-1,32
 333 701 333 701 365 701 c 0,33,34
 399 701 399 701 423.5 720 c 128,-1,35
 448 739 448 739 462 770 c 1,36,-1
 542 751 l 1,37,38
 527 686 527 686 477.5 643 c 128,-1,39
 428 600 428 600 358 600 c 0,40,26
 310 600 310 600 276.5 621 c 128,-1,27
540 493 m 1,42,-1
 490 145 l 2,43,44
 488 127 488 127 488 121 c 0,45,46
 488 105 488 105 494.5 95.5 c 128,-1,47
 501 86 501 86 517 79 c 1,48,-1
 477 -14 l 1,49,50
 379 -4 379 -4 361 74 c 1,51,52
 296 -16 296 -16 203 -16 c 0,53,54
 121 -16 121 -16 76 40.5 c 128,-1,55
 31 97 31 97 31 193 c 0,56,57
 31 276 31 276 62 357 c 128,-1,58
 93 438 93 438 160.5 492 c 128,-1,59
 228 546 228 546 331 546 c 0,60,41
 441 546 441 546 540 493 c 1,42,-1
242 405 m 128,-1,62
 208 367 208 367 192.5 309.5 c 128,-1,63
 177 252 177 252 177 193 c 0,64,65
 177 90 177 90 245 90 c 0,66,67
 276 90 276 90 302 110 c 128,-1,68
 328 130 328 130 355 169 c 1,69,-1
 393 431 l 1,70,71
 364 443 364 443 328 443 c 0,72,61
 276 443 276 443 242 405 c 128,-1,62
EndSplineSet
Substitution2: "'smcp' Lowercase to Small Capitals lookup 28 subtable" uni1EB5.sc
Substitution2: "'aalt' Access All Alternates lookup 0 subtable" uni1EB5.sc
EndChar

StartChar: uni1EA5
Encoding: 7845 7845 350
Width: 571
GlyphClass: 2
Flags: W
AnchorPoint: "Anchor-18" 0 0 basechar 0
AnchorPoint: "Anchor-17" 458 649 basechar 0
AnchorPoint: "Anchor-16" 370 771 basechar 0
AnchorPoint: "Anchor-15" 485 -14 basechar 0
AnchorPoint: "Anchor-14" 0 0 basechar 0
LayerCount: 2
Fore
SplineSet
608 942 m 1,0,-1
 678 865 l 1,1,-1
 510 728 l 1,2,-1
 460 777 l 1,3,-1
 608 942 l 1,0,-1
220 586 m 1,4,-1
 172 646 l 1,5,-1
 328 771 l 1,6,-1
 414 771 l 1,7,-1
 535 646 l 1,8,-1
 478 586 l 1,9,-1
 360 670 l 1,10,-1
 220 586 l 1,4,-1
540 493 m 1,12,-1
 490 145 l 2,13,14
 488 127 488 127 488 121 c 0,15,16
 488 105 488 105 494.5 95.5 c 128,-1,17
 501 86 501 86 517 79 c 1,18,-1
 477 -14 l 1,19,20
 379 -4 379 -4 361 74 c 1,21,22
 296 -16 296 -16 203 -16 c 0,23,24
 121 -16 121 -16 76 40.5 c 128,-1,25
 31 97 31 97 31 193 c 0,26,27
 31 276 31 276 62 357 c 128,-1,28
 93 438 93 438 160.5 492 c 128,-1,29
 228 546 228 546 331 546 c 0,30,11
 441 546 441 546 540 493 c 1,12,-1
242 405 m 128,-1,32
 208 367 208 367 192.5 309.5 c 128,-1,33
 177 252 177 252 177 193 c 0,34,35
 177 90 177 90 245 90 c 0,36,37
 276 90 276 90 302 110 c 128,-1,38
 328 130 328 130 355 169 c 1,39,-1
 393 431 l 1,40,41
 364 443 364 443 328 443 c 0,42,31
 276 443 276 443 242 405 c 128,-1,32
EndSplineSet
Substitution2: "'smcp' Lowercase to Small Capitals lookup 28 subtable" uni1EA5.sc
Substitution2: "'aalt' Access All Alternates lookup 0 subtable" uni1EA5.sc
EndChar

StartChar: uni1EA7
Encoding: 7847 7847 352
Width: 571
GlyphClass: 2
Flags: W
AnchorPoint: "Anchor-18" 0 0 basechar 0
AnchorPoint: "Anchor-17" 458 649 basechar 0
AnchorPoint: "Anchor-16" 370 771 basechar 0
AnchorPoint: "Anchor-15" 485 -14 basechar 0
AnchorPoint: "Anchor-14" 0 0 basechar 0
LayerCount: 2
Fore
SplineSet
170 939 m 1,0,-1
 274 773 l 1,1,-1
 217 728 l 1,2,-1
 85 869 l 1,3,-1
 170 939 l 1,0,-1
220 586 m 1,4,-1
 172 646 l 1,5,-1
 328 771 l 1,6,-1
 414 771 l 1,7,-1
 535 646 l 1,8,-1
 478 586 l 1,9,-1
 360 670 l 1,10,-1
 220 586 l 1,4,-1
540 493 m 1,12,-1
 490 145 l 2,13,14
 488 127 488 127 488 121 c 0,15,16
 488 105 488 105 494.5 95.5 c 128,-1,17
 501 86 501 86 517 79 c 1,18,-1
 477 -14 l 1,19,20
 379 -4 379 -4 361 74 c 1,21,22
 296 -16 296 -16 203 -16 c 0,23,24
 121 -16 121 -16 76 40.5 c 128,-1,25
 31 97 31 97 31 193 c 0,26,27
 31 276 31 276 62 357 c 128,-1,28
 93 438 93 438 160.5 492 c 128,-1,29
 228 546 228 546 331 546 c 0,30,11
 441 546 441 546 540 493 c 1,12,-1
242 405 m 128,-1,32
 208 367 208 367 192.5 309.5 c 128,-1,33
 177 252 177 252 177 193 c 0,34,35
 177 90 177 90 245 90 c 0,36,37
 276 90 276 90 302 110 c 128,-1,38
 328 130 328 130 355 169 c 1,39,-1
 393 431 l 1,40,41
 364 443 364 443 328 443 c 0,42,31
 276 443 276 443 242 405 c 128,-1,32
EndSplineSet
Substitution2: "'smcp' Lowercase to Small Capitals lookup 28 subtable" uni1EA7.sc
Substitution2: "'aalt' Access All Alternates lookup 0 subtable" uni1EA7.sc
EndChar

StartChar: uni1EAB
Encoding: 7851 7851 354
Width: 571
GlyphClass: 2
Flags: W
AnchorPoint: "Anchor-18" 0 0 basechar 0
AnchorPoint: "Anchor-17" 455 644 basechar 0
AnchorPoint: "Anchor-16" 390 934 basechar 0
AnchorPoint: "Anchor-15" 485 -14 basechar 0
AnchorPoint: "Anchor-14" 0 0 basechar 0
LayerCount: 2
Fore
SplineSet
406.5 799 m 128,-1,1
 393 805 393 805 370 818 c 0,2,3
 358 827 358 827 349.5 831 c 128,-1,4
 341 835 341 835 332 835 c 0,5,6
 314 835 314 835 301 824.5 c 128,-1,7
 288 814 288 814 272 792 c 1,8,-1
 204 829 l 1,9,10
 230 876 230 876 264.5 905 c 128,-1,11
 299 934 299 934 338 934 c 0,12,13
 359 934 359 934 374.5 927 c 128,-1,14
 390 920 390 920 408 907 c 0,15,16
 421 898 421 898 428.5 894 c 128,-1,17
 436 890 436 890 445 890 c 0,18,19
 461 890 461 890 474 900 c 128,-1,20
 487 910 487 910 504 933 c 1,21,-1
 572 895 l 1,22,23
 546 848 546 848 511.5 820.5 c 128,-1,24
 477 793 477 793 440 793 c 0,25,0
 420 793 420 793 406.5 799 c 128,-1,1
217 581 m 1,26,-1
 169 641 l 1,27,-1
 325 766 l 1,28,-1
 411 766 l 1,29,-1
 532 641 l 1,30,-1
 475 581 l 1,31,-1
 357 665 l 1,32,-1
 217 581 l 1,26,-1
540 493 m 1,34,-1
 490 145 l 2,35,36
 488 127 488 127 488 121 c 0,37,38
 488 105 488 105 494.5 95.5 c 128,-1,39
 501 86 501 86 517 79 c 1,40,-1
 477 -14 l 1,41,42
 379 -4 379 -4 361 74 c 1,43,44
 296 -16 296 -16 203 -16 c 0,45,46
 121 -16 121 -16 76 40.5 c 128,-1,47
 31 97 31 97 31 193 c 0,48,49
 31 276 31 276 62 357 c 128,-1,50
 93 438 93 438 160.5 492 c 128,-1,51
 228 546 228 546 331 546 c 0,52,33
 441 546 441 546 540 493 c 1,34,-1
242 405 m 128,-1,54
 208 367 208 367 192.5 309.5 c 128,-1,55
 177 252 177 252 177 193 c 0,56,57
 177 90 177 90 245 90 c 0,58,59
 276 90 276 90 302 110 c 128,-1,60
 328 130 328 130 355 169 c 1,61,-1
 393 431 l 1,62,63
 364 443 364 443 328 443 c 0,64,53
 276 443 276 443 242 405 c 128,-1,54
EndSplineSet
Substitution2: "'smcp' Lowercase to Small Capitals lookup 28 subtable" uni1EAB.sc
Substitution2: "'aalt' Access All Alternates lookup 0 subtable" uni1EAB.sc
EndChar

StartChar: uni0251
Encoding: 593 593 364
Width: 571
GlyphClass: 2
Flags: W
AnchorPoint: "Anchor-18" 0 0 basechar 0
AnchorPoint: "Anchor-17" 0 0 basechar 0
AnchorPoint: "Anchor-16" 324 530 basechar 0
AnchorPoint: "Anchor-15" 0 0 basechar 0
AnchorPoint: "Anchor-14" 249 0 basechar 0
LayerCount: 2
Fore
SplineSet
488 121 m 0,1,2
 488 105 488 105 494.5 95.5 c 128,-1,3
 501 86 501 86 517 79 c 1,4,-1
 477 -14 l 1,5,6
 379 -4 379 -4 361 74 c 1,7,8
 296 -16 296 -16 204 -16 c 0,9,10
 120 -16 120 -16 75.5 40.5 c 128,-1,11
 31 97 31 97 31 194 c 0,12,13
 31 281 31 281 64 362.5 c 128,-1,14
 97 444 97 444 157.5 495 c 128,-1,15
 218 546 218 546 297 546 c 0,16,17
 341 546 341 546 371.5 529 c 128,-1,18
 402 512 402 512 420 475 c 1,19,-1
 444 530 l 1,20,-1
 546 530 l 1,21,-1
 490 145 l 2,22,0
 488 127 488 127 488 121 c 0,1,2
387 379 m 1,23,24
 374 413 374 413 354 428 c 128,-1,25
 334 443 334 443 306 443 c 0,26,27
 265 443 265 443 235.5 407.5 c 128,-1,28
 206 372 206 372 191.5 315 c 128,-1,29
 177 258 177 258 177 194 c 0,30,31
 177 90 177 90 246 90 c 0,32,33
 276 90 276 90 302 110 c 128,-1,34
 328 130 328 130 355 169 c 1,35,-1
 387 379 l 1,23,24
EndSplineSet
Substitution2: "'smcp' Lowercase to Small Capitals lookup 28 subtable" uni0251.sc
Substitution2: "'aalt' Access All Alternates lookup 0 subtable" uni0251.sc
EndChar

StartChar: uni0252
Encoding: 594 594 365
Width: 571
GlyphClass: 2
Flags: W
AnchorPoint: "Anchor-18" 0 0 basechar 0
AnchorPoint: "Anchor-17" 0 0 basechar 0
AnchorPoint: "Anchor-16" 323 530 basechar 0
AnchorPoint: "Anchor-15" 0 0 basechar 0
AnchorPoint: "Anchor-14" 248 0 basechar 0
LayerCount: 2
Fore
SplineSet
495.5 489.5 m 128,-1,1
 540 433 540 433 540 336 c 0,2,3
 540 249 540 249 507 167.5 c 128,-1,4
 474 86 474 86 413.5 35 c 128,-1,5
 353 -16 353 -16 274 -16 c 0,6,7
 230 -16 230 -16 199.5 1 c 128,-1,8
 169 18 169 18 151 55 c 1,9,-1
 127 0 l 1,10,-1
 25 0 l 1,11,-1
 81 385 l 2,12,13
 83 403 83 403 83 409 c 0,14,15
 83 425 83 425 76.5 434.5 c 128,-1,16
 70 444 70 444 54 451 c 1,17,-1
 94 544 l 1,18,19
 192 534 192 534 210 456 c 1,20,21
 275 546 275 546 367 546 c 0,22,0
 451 546 451 546 495.5 489.5 c 128,-1,1
335.5 122.5 m 128,-1,24
 365 158 365 158 379.5 215 c 128,-1,25
 394 272 394 272 394 336 c 0,26,27
 394 440 394 440 325 440 c 0,28,29
 295 440 295 440 269 420 c 128,-1,30
 243 400 243 400 216 361 c 1,31,-1
 184 151 l 1,32,33
 197 117 197 117 217 102 c 128,-1,34
 237 87 237 87 265 87 c 0,35,23
 306 87 306 87 335.5 122.5 c 128,-1,24
EndSplineSet
EndChar

StartChar: aogonek
Encoding: 261 261 367
Width: 571
GlyphClass: 2
Flags: W
AnchorPoint: "Anchor-18" 0 0 basechar 0
AnchorPoint: "Anchor-17" 0 0 basechar 0
AnchorPoint: "Anchor-16" 342 530 basechar 0
AnchorPoint: "Anchor-15" 485 -14 basechar 0
AnchorPoint: "Anchor-14" 276 0 basechar 0
LayerCount: 2
Fore
SplineSet
488 121 m 0,1,2
 488 105 488 105 494.5 95.5 c 128,-1,3
 501 86 501 86 517 79 c 1,4,-1
 477 -14 l 1,5,6
 342 -64 342 -64 342 -130 c 0,7,8
 342 -165 342 -165 387 -165 c 0,9,10
 412 -165 412 -165 449 -157 c 1,11,-1
 429 -249 l 1,12,13
 392 -256 392 -256 362 -256 c 0,14,15
 305 -256 305 -256 270 -228 c 128,-1,16
 235 -200 235 -200 235 -154 c 0,17,18
 235 -45 235 -45 398 14 c 1,19,20
 370 36 370 36 361 74 c 1,21,22
 296 -16 296 -16 203 -16 c 0,23,24
 121 -16 121 -16 76 40.5 c 128,-1,25
 31 97 31 97 31 193 c 0,26,27
 31 276 31 276 62 357 c 128,-1,28
 93 438 93 438 160.5 492 c 128,-1,29
 228 546 228 546 331 546 c 0,30,31
 441 546 441 546 540 493 c 1,32,-1
 490 145 l 2,33,0
 488 127 488 127 488 121 c 0,1,2
393 431 m 1,34,35
 364 443 364 443 328 443 c 0,36,37
 276 443 276 443 242 405 c 128,-1,38
 208 367 208 367 192.5 309.5 c 128,-1,39
 177 252 177 252 177 193 c 0,40,41
 177 90 177 90 245 90 c 0,42,43
 276 90 276 90 302 110 c 128,-1,44
 328 130 328 130 355 169 c 1,45,-1
 393 431 l 1,34,35
EndSplineSet
Substitution2: "'smcp' Lowercase to Small Capitals lookup 28 subtable" aogonek.sc
Substitution2: "'aalt' Access All Alternates lookup 0 subtable" aogonek.sc
EndChar

StartChar: uni2C65
Encoding: 11365 11365 370
Width: 571
GlyphClass: 2
Flags: W
AnchorPoint: "Anchor-18" 0 0 basechar 0
AnchorPoint: "Anchor-17" 0 0 basechar 0
AnchorPoint: "Anchor-16" 323 530 basechar 0
AnchorPoint: "Anchor-15" 0 0 basechar 0
AnchorPoint: "Anchor-14" 248 0 basechar 0
LayerCount: 2
Fore
SplineSet
488 121 m 0,1,2
 488 105 488 105 494.5 95.5 c 128,-1,3
 501 86 501 86 517 79 c 1,4,-1
 477 -14 l 1,5,6
 379 -4 379 -4 361 74 c 1,7,8
 296 -16 296 -16 204 -16 c 2,9,-1
 191 -16 l 1,10,-1
 168 -73 l 1,11,-1
 118 -60 l 1,12,-1
 140 -6 l 1,13,14
 87 13 87 13 59 65 c 128,-1,15
 31 117 31 117 31 193 c 0,16,17
 31 276 31 276 62 357 c 128,-1,18
 93 438 93 438 160.5 492 c 128,-1,19
 228 546 228 546 331 546 c 0,20,21
 354 546 354 546 366 545 c 1,22,-1
 388 599 l 1,23,-1
 438 586 l 1,24,-1
 418 537 l 1,25,26
 478 526 478 526 540 493 c 1,27,-1
 490 145 l 2,28,0
 488 127 488 127 488 121 c 0,1,2
189 113 m 1,30,-1
 326 448 l 1,31,32
 272 447 272 447 237.5 408.5 c 128,-1,33
 203 370 203 370 188 312 c 128,-1,34
 173 254 173 254 173 193 c 0,35,29
 173 140 173 140 189 113 c 1,30,-1
399 436 m 1,36,-1
 379 442 l 1,37,-1
 233 85 l 1,38,-1
 242 85 l 2,39,40
 306 85 306 85 358 165 c 1,41,-1
 399 436 l 1,36,-1
EndSplineSet
Substitution2: "'smcp' Lowercase to Small Capitals lookup 28 subtable" uni2C65.sc
Substitution2: "'aalt' Access All Alternates lookup 0 subtable" uni2C65.sc
EndChar

StartChar: uni0250
Encoding: 592 592 372
Width: 535
GlyphClass: 2
Flags: W
AnchorPoint: "Anchor-18" 0 0 basechar 0
AnchorPoint: "Anchor-17" 0 0 basechar 0
AnchorPoint: "Anchor-16" 307 530 basechar 0
AnchorPoint: "Anchor-15" 0 0 basechar 0
AnchorPoint: "Anchor-14" 233 0 basechar 0
LayerCount: 2
Fore
SplineSet
191 175 m 2,0,1
 189 157 189 157 189 150 c 0,2,3
 189 117 189 117 206 103.5 c 128,-1,4
 223 90 223 90 266 90 c 0,5,6
 324 90 324 90 407 117 c 1,7,-1
 433 22 l 1,8,9
 333 -16 333 -16 237 -16 c 0,10,11
 49 -16 49 -16 49 133 c 0,12,13
 49 151 49 151 52 172 c 2,14,-1
 82 386 l 2,15,16
 84 402 84 402 84 408 c 0,17,18
 84 425 84 425 77.5 435 c 128,-1,19
 71 445 71 445 55 452 c 1,20,-1
 95 545 l 1,21,22
 140 540 140 540 167 522.5 c 128,-1,23
 194 505 194 505 205 468 c 1,24,25
 266 546 266 546 370 546 c 0,26,27
 441 546 441 546 481.5 506.5 c 128,-1,28
 522 467 522 467 522 401 c 0,29,30
 522 304 522 304 448.5 254 c 128,-1,31
 375 204 375 204 256 204 c 2,32,-1
 195 204 l 1,33,-1
 191 175 l 2,0,1
219 382 m 1,35,-1
 206 285 l 1,36,-1
 249 285 l 2,37,38
 312 285 312 285 346 311.5 c 128,-1,39
 380 338 380 338 380 389 c 0,40,41
 380 416 380 416 365.5 430 c 128,-1,42
 351 444 351 444 324 444 c 0,43,34
 262 444 262 444 219 382 c 1,35,-1
EndSplineSet
EndChar

StartChar: ae
Encoding: 230 230 373
Width: 829
GlyphClass: 2
Flags: W
AnchorPoint: "Anchor-18" 0 0 basechar 0
AnchorPoint: "Anchor-17" 0 0 basechar 0
AnchorPoint: "Anchor-16" 457 530 basechar 0
AnchorPoint: "Anchor-15" 0 0 basechar 0
AnchorPoint: "Anchor-14" 366 0 basechar 0
LayerCount: 2
Fore
SplineSet
387 527 m 128,-1,1
 425 508 425 508 447 472 c 1,2,3
 478 505 478 505 525 525.5 c 128,-1,4
 572 546 572 546 627 546 c 0,5,6
 687 546 687 546 730 527 c 128,-1,7
 773 508 773 508 795 475.5 c 128,-1,8
 817 443 817 443 817 403 c 0,9,10
 817 302 817 302 722.5 256 c 128,-1,11
 628 210 628 210 473 196 c 1,12,13
 475 139 475 139 501.5 115 c 128,-1,14
 528 91 528 91 574 91 c 0,15,16
 609 91 609 91 641 103 c 128,-1,17
 673 115 673 115 711 140 c 1,18,-1
 763 54 l 1,19,20
 666 -16 666 -16 557 -16 c 0,21,22
 491 -16 491 -16 443.5 7 c 128,-1,23
 396 30 396 30 369 73 c 1,24,25
 327 25 327 25 279.5 4.5 c 128,-1,26
 232 -16 232 -16 175 -16 c 0,27,28
 101 -16 101 -16 57 23.5 c 128,-1,29
 13 63 13 63 13 127 c 0,30,31
 13 209 13 209 75.5 263.5 c 128,-1,32
 138 318 138 318 284 318 c 2,33,-1
 349 318 l 1,34,35
 357 355 357 355 367 377 c 1,36,37
 363 406 363 406 336 422.5 c 128,-1,38
 309 439 309 439 267 439 c 0,39,40
 204 439 204 439 125 414 c 1,41,-1
 103 510 l 1,42,43
 198 546 198 546 287 546 c 0,44,0
 349 546 349 546 387 527 c 128,-1,1
525.5 401 m 128,-1,46
 492 354 492 354 480 285 c 1,47,48
 579 294 579 294 626.5 323 c 128,-1,49
 674 352 674 352 674 396 c 0,50,51
 674 417 674 417 660.5 432.5 c 128,-1,52
 647 448 647 448 616 448 c 0,53,45
 559 448 559 448 525.5 401 c 128,-1,46
289 234 m 2,54,55
 163 234 163 234 163 142 c 0,56,57
 163 86 163 86 220 86 c 0,58,59
 253 86 253 86 281 103.5 c 128,-1,60
 309 121 309 121 339 156 c 1,61,62
 337 167 337 167 336 191 c 128,-1,63
 335 215 335 215 336 234 c 1,64,-1
 289 234 l 2,54,55
EndSplineSet
Substitution2: "'smcp' Lowercase to Small Capitals lookup 28 subtable" ae.sc
Substitution2: "'aalt' Access All Alternates lookup 0 subtable" ae.sc
EndChar

StartChar: b
Encoding: 98 98 376
Width: 581
GlyphClass: 2
Flags: W
AnchorPoint: "Anchor-18" 0 0 basechar 0
AnchorPoint: "Anchor-17" 0 0 basechar 0
AnchorPoint: "Anchor-16" 379 741 basechar 0
AnchorPoint: "Anchor-15" 0 0 basechar 0
AnchorPoint: "Anchor-14" 253 0 basechar 0
LayerCount: 2
Fore
SplineSet
506 492 m 128,-1,1
 548 438 548 438 548 339 c 0,2,3
 548 253 548 253 520 172.5 c 128,-1,4
 492 92 492 92 424 38 c 128,-1,5
 356 -16 356 -16 245 -16 c 0,6,7
 191 -16 191 -16 141 -5.5 c 128,-1,8
 91 5 91 5 35 26 c 1,9,-1
 135 741 l 1,10,-1
 277 757 l 1,11,-1
 239 483 l 1,12,13
 270 513 270 513 308 529.5 c 128,-1,14
 346 546 346 546 386 546 c 0,15,0
 464 546 464 546 506 492 c 128,-1,1
224 375 m 1,17,-1
 186 103 l 1,18,19
 221 90 221 90 259 90 c 0,20,21
 309 90 309 90 341.5 128.5 c 128,-1,22
 374 167 374 167 389 224 c 128,-1,23
 404 281 404 281 404 339 c 0,24,25
 404 394 404 394 385.5 417 c 128,-1,26
 367 440 367 440 334 440 c 0,27,16
 277 440 277 440 224 375 c 1,17,-1
EndSplineSet
Substitution2: "'smcp' Lowercase to Small Capitals lookup 28 subtable" b.sc
Substitution2: "'aalt' Access All Alternates lookup 0 subtable" b.sc
EndChar

StartChar: uni0253
Encoding: 595 595 380
Width: 581
GlyphClass: 2
Flags: W
AnchorPoint: "Anchor-18" 0 0 basechar 0
AnchorPoint: "Anchor-17" 0 0 basechar 0
AnchorPoint: "Anchor-16" 358 741 basechar 0
AnchorPoint: "Anchor-15" 0 0 basechar 0
AnchorPoint: "Anchor-14" 253 0 basechar 0
LayerCount: 2
Fore
SplineSet
506.5 492.5 m 128,-1,1
 548 439 548 439 548 339 c 0,2,3
 548 253 548 253 520 172.5 c 128,-1,4
 492 92 492 92 424 38 c 128,-1,5
 356 -16 356 -16 245 -16 c 0,6,7
 191 -16 191 -16 141 -5.5 c 128,-1,8
 91 5 91 5 35 26 c 1,9,-1
 106 529 l 1,10,-1
 105 529 l 1,11,-1
 113 585 l 2,12,13
 124 662 124 662 179 709.5 c 128,-1,14
 234 757 234 757 325 757 c 0,15,16
 398 757 398 757 461 724 c 1,17,-1
 412 631 l 1,18,19
 375 650 375 650 332 650 c 0,20,21
 295 650 295 650 276.5 632.5 c 128,-1,22
 258 615 258 615 253 577 c 2,23,-1
 246 529 l 1,24,-1
 240 483 l 1,25,26
 270 513 270 513 308 529.5 c 128,-1,27
 346 546 346 546 386 546 c 0,28,0
 465 546 465 546 506.5 492.5 c 128,-1,1
341.5 128.5 m 128,-1,30
 374 167 374 167 389 224 c 128,-1,31
 404 281 404 281 404 339 c 0,32,33
 404 394 404 394 385.5 417 c 128,-1,34
 367 440 367 440 333 440 c 0,35,36
 277 440 277 440 224 375 c 1,37,-1
 186 103 l 1,38,39
 221 90 221 90 259 90 c 0,40,29
 309 90 309 90 341.5 128.5 c 128,-1,30
EndSplineSet
Substitution2: "'smcp' Lowercase to Small Capitals lookup 28 subtable" uni0253.sc
Substitution2: "'aalt' Access All Alternates lookup 0 subtable" uni0253.sc
EndChar

StartChar: uni02AD
Encoding: 685 685 381
Width: 359
GlyphClass: 2
Flags: W
AnchorPoint: "Anchor-18" 0 0 basechar 0
AnchorPoint: "Anchor-17" 0 0 basechar 0
AnchorPoint: "Anchor-16" 165 160 basechar 0
AnchorPoint: "Anchor-15" 0 0 basechar 0
AnchorPoint: "Anchor-14" 0 0 basechar 0
LayerCount: 2
Fore
SplineSet
346 399 m 1,0,-1
 260 399 l 1,1,-1
 272 484 l 1,2,-1
 149 484 l 1,3,-1
 137 399 l 1,4,-1
 51 399 l 1,5,-1
 73 560 l 1,6,-1
 368 560 l 1,7,-1
 346 399 l 1,0,-1
290 -1 m 1,8,-1
 204 -1 l 1,9,-1
 216 84 l 1,10,-1
 93 84 l 1,11,-1
 81 -1 l 1,12,-1
 -5 -1 l 1,13,-1
 17 160 l 1,14,-1
 312 160 l 1,15,-1
 290 -1 l 1,8,-1
EndSplineSet
EndChar

StartChar: uni0298
Encoding: 664 664 382
Width: 786
GlyphClass: 2
Flags: W
AnchorPoint: "Anchor-18" 0 0 basechar 0
AnchorPoint: "Anchor-17" 0 0 basechar 0
AnchorPoint: "Anchor-16" 453 692 basechar 0
AnchorPoint: "Anchor-15" 0 0 basechar 0
AnchorPoint: "Anchor-14" 356 0 basechar 0
LayerCount: 2
Fore
SplineSet
617.5 672 m 128,-1,1
 688 636 688 636 726 568.5 c 128,-1,2
 764 501 764 501 764 409 c 0,3,4
 764 289 764 289 713 192 c 128,-1,5
 662 95 662 95 569.5 39.5 c 128,-1,6
 477 -16 477 -16 358 -16 c 0,7,8
 263 -16 263 -16 192.5 20 c 128,-1,9
 122 56 122 56 83.5 124 c 128,-1,10
 45 192 45 192 45 284 c 0,11,12
 45 404 45 404 97 500.5 c 128,-1,13
 149 597 149 597 241.5 652.5 c 128,-1,14
 334 708 334 708 452 708 c 0,15,0
 547 708 547 708 617.5 672 c 128,-1,1
300 563 m 128,-1,17
 241 519 241 519 211.5 444.5 c 128,-1,18
 182 370 182 370 182 279 c 0,19,20
 182 181 182 181 230 133.5 c 128,-1,21
 278 86 278 86 365 86 c 0,22,23
 451 86 451 86 510 129.5 c 128,-1,24
 569 173 569 173 598.5 246.5 c 128,-1,25
 628 320 628 320 628 411 c 0,26,27
 628 510 628 510 579.5 558.5 c 128,-1,28
 531 607 531 607 445 607 c 256,29,16
 359 607 359 607 300 563 c 128,-1,17
350 290 m 128,-1,31
 331 309 331 309 331 338 c 0,32,33
 331 374 331 374 355.5 398 c 128,-1,34
 380 422 380 422 416 422 c 0,35,36
 448 422 448 422 467 403.5 c 128,-1,37
 486 385 486 385 486 355 c 0,38,39
 486 319 486 319 461.5 295 c 128,-1,40
 437 271 437 271 401 271 c 0,41,30
 369 271 369 271 350 290 c 128,-1,31
EndSplineSet
EndChar

StartChar: uni0180
Encoding: 384 384 384
Width: 591
GlyphClass: 2
Flags: W
AnchorPoint: "Anchor-18" 0 0 basechar 0
AnchorPoint: "Anchor-17" 0 0 basechar 0
AnchorPoint: "Anchor-16" 389 741 basechar 0
AnchorPoint: "Anchor-15" 0 0 basechar 0
AnchorPoint: "Anchor-14" 263 0 basechar 0
LayerCount: 2
Fore
SplineSet
516 492 m 128,-1,1
 558 438 558 438 558 339 c 0,2,3
 558 253 558 253 530 172.5 c 128,-1,4
 502 92 502 92 434 38 c 128,-1,5
 366 -16 366 -16 255 -16 c 0,6,7
 201 -16 201 -16 151 -5.5 c 128,-1,8
 101 5 101 5 45 26 c 1,9,-1
 125 598 l 1,10,-1
 60 598 l 1,11,-1
 72 686 l 1,12,-1
 137 686 l 1,13,-1
 145 741 l 1,14,-1
 287 757 l 1,15,-1
 277 686 l 1,16,-1
 418 686 l 1,17,-1
 394 598 l 1,18,-1
 265 598 l 1,19,-1
 249 483 l 1,20,21
 280 513 280 513 318 529.5 c 128,-1,22
 356 546 356 546 396 546 c 0,23,0
 474 546 474 546 516 492 c 128,-1,1
351.5 128.5 m 128,-1,25
 384 167 384 167 399 224 c 128,-1,26
 414 281 414 281 414 339 c 0,27,28
 414 394 414 394 395.5 417 c 128,-1,29
 377 440 377 440 344 440 c 0,30,31
 287 440 287 440 234 375 c 1,32,-1
 196 103 l 1,33,34
 231 90 231 90 269 90 c 0,35,24
 319 90 319 90 351.5 128.5 c 128,-1,25
EndSplineSet
Substitution2: "'smcp' Lowercase to Small Capitals lookup 28 subtable" uni0180.sc
Substitution2: "'aalt' Access All Alternates lookup 0 subtable" uni0180.sc
EndChar

